<?xml version="1.0" encoding="utf-8"?>
<!-- Generator: Adobe Illustrator 27.1.1, SVG Export Plug-In . SVG Version: 6.00 Build 0)  -->
<svg version="1.1" id="down" xmlns="http://www.w3.org/2000/svg" xmlns:xlink="http://www.w3.org/1999/xlink" x="0px" y="0px"
	 viewBox="0 0 146.7 208.9" style="enable-background:new 0 0 146.7 208.9;" xml:space="preserve">
<style type="text/css">
	.st0{fill:#191919;}
</style>
<path id="Down_Arrow_Btn" class="st0" d="M146.7,137l-71.1,71.1c-1.1,1.1-2.9,1.1-4.1,0L0.8,137.4c-1.1-1.1-1.1-2.9,0-4l12.6-12.6
	c1.1-1.1,2.9-1.1,4.1,0l39.9,39.9c1.8,1.8,4.9,0.5,4.9-2V2.9c0-1.6,1.3-2.9,2.9-2.9H83c1.6,0,2.9,1.3,2.9,2.9v155.2
	c0,2.5,3.1,3.8,4.9,2l39.6-39.6c1.1-1.1,2.9-1.1,4,0l12.5,12.5C147.8,134.1,147.8,135.9,146.7,137L146.7,137z"/>
</svg>
