<?xml version="1.0" standalone="no"?>
<!DOCTYPE svg PUBLIC "-//W3C//DTD SVG 1.1//EN" "http://www.w3.org/Graphics/SVG/1.1/DTD/svg11.dtd" >
<svg xmlns="http://www.w3.org/2000/svg" xmlns:xlink="http://www.w3.org/1999/xlink" version="1.1">
<metadata></metadata>
<defs>
<font id="pp_moriregular" horiz-adv-x="602" >
<font-face units-per-em="1000" ascent="800" descent="-200" />
<missing-glyph horiz-adv-x="225" />
<glyph horiz-adv-x="0" />
<glyph horiz-adv-x="333" />
<glyph unicode="&#xd;" horiz-adv-x="600" />
<glyph unicode=" "  horiz-adv-x="225" />
<glyph unicode="&#x09;" horiz-adv-x="225" />
<glyph unicode="&#xa0;" horiz-adv-x="225" />
<glyph unicode="!" horiz-adv-x="252" d="M63 53q0 26 18 44t45 18t45 -18t18 -44q0 -27 -18 -45t-45 -18t-45 18t-18 45zM85 180v570h83v-570h-83z" />
<glyph unicode="&#x22;" horiz-adv-x="376" d="M71 419v331h75v-331h-75zM230 419v331h75v-331h-75z" />
<glyph unicode="#" horiz-adv-x="816" d="M39 184v64h183l50 208h-168v64h183l48 200l69 -20l-43 -180h174l48 200l69 -20l-43 -180h168v-64h-183l-50 -208h168v-64h-183l-49 -204l-69 20l44 184h-174l-49 -204l-69 20l44 184h-168zM296 248h174l50 208h-174z" />
<glyph unicode="$" horiz-adv-x="647" d="M50 212h88q6 -55 47.5 -92.5t108.5 -49.5v261l-25 8q-1 0 -24 7t-31 10t-31 13t-34 18t-28.5 23t-26 30t-15.5 37t-7 47q0 82 60 132t162 55v116h67v-119q98 -12 155 -70.5t64 -156.5h-87q-4 61 -38.5 99t-93.5 50v-234l48 -15q35 -11 55.5 -18.5t51 -24t47 -35t29.5 -49 t13 -68.5q0 -91 -65 -143t-179 -54v-124h-67v128q-107 14 -172.5 73t-71.5 146zM156 528q0 -11 2.5 -21t5.5 -18t11 -15.5t12 -12t16 -10.5t16.5 -9t19 -8t18 -6t19.5 -5.5t18 -5.5v218q-63 -3 -100.5 -31.5t-37.5 -75.5zM361 65q77 1 117.5 31.5t40.5 85.5q0 48 -33.5 74 t-95.5 45l-29 9v-245z" />
<glyph unicode="%" horiz-adv-x="906" d="M40 527q0 82 44.5 133t115.5 51t115.5 -50.5t44.5 -130.5q0 -82 -44.5 -133.5t-115.5 -51.5t-115.5 51t-44.5 131zM105 528q0 -55 26.5 -89.5t68.5 -34.5t68.5 35t26.5 90t-26.5 89t-68.5 34t-68.5 -34.5t-26.5 -89.5zM176 11l501 724l64 -30l-502 -725zM546 171 q0 82 44.5 133t115.5 51t115.5 -50.5t44.5 -130.5q0 -82 -44.5 -133.5t-115.5 -51.5t-115.5 51t-44.5 131zM611 172q0 -55 26.5 -89.5t68.5 -34.5t68.5 35t26.5 90t-26.5 89t-68.5 34t-68.5 -34.5t-26.5 -89.5z" />
<glyph unicode="&#x26;" horiz-adv-x="709" d="M50 196q0 77 45 124.5t123 87.5q-38 43 -56.5 77.5t-18.5 73.5q0 65 48.5 108.5t121.5 43.5t121.5 -43t48.5 -108q0 -57 -37 -94.5t-105 -71.5l181 -186q32 76 32 182h85q0 -143 -56 -244l99 -102l-63 -55l-86 90q-87 -90 -223 -90q-115 0 -187.5 58t-72.5 149zM136 201 q0 -61 46.5 -98t127.5 -37q104 0 168 70l-212 221q-62 -33 -96 -68t-34 -88zM229 556q0 -47 63 -113q51 26 78 52.5t27 62.5q0 34 -24 57t-59 23q-36 0 -60.5 -23.5t-24.5 -58.5z" />
<glyph unicode="'" horiz-adv-x="217" d="M71 418v332h75v-332h-75z" />
<glyph unicode="(" horiz-adv-x="318" d="M77 304q0 266 154 453l66 -26q-146 -171 -144 -427q2 -249 146 -411l-68 -23q-154 172 -154 434z" />
<glyph unicode=")" horiz-adv-x="318" d="M19 -107q144 162 146 411q2 256 -144 427l66 26q154 -187 154 -453q0 -262 -154 -434z" />
<glyph unicode="*" horiz-adv-x="495" d="M37 428l150 88l-150 87l31 54l149 -87v163h62v-164l150 88l29 -55l-148 -86l148 -87l-30 -54l-149 87v-164h-62v163l-149 -87z" />
<glyph unicode="+" horiz-adv-x="564" d="M45 276v70h199v190h76v-190h199v-70h-199v-190h-76v190h-199z" />
<glyph unicode="," horiz-adv-x="252" d="M27 -162l105 335l71 -22l-109 -334z" />
<glyph unicode="-" horiz-adv-x="518" d="M45 276v70h428v-70h-428z" />
<glyph unicode="." horiz-adv-x="226" d="M50 53q0 26 18 44t45 18t45 -18t18 -44q0 -27 -18 -45t-45 -18t-45 18t-18 45z" />
<glyph unicode="/" horiz-adv-x="359" d="M13 -90l265 878l75 -21l-266 -880z" />
<glyph unicode="0" horiz-adv-x="640" d="M53 352q0 164 72.5 261.5t194.5 97.5t194.5 -97.5t72.5 -261.5q0 -166 -72.5 -264.5t-194.5 -98.5t-194.5 98.5t-72.5 264.5zM139 352q0 -130 49 -208t132 -78t132 78t49 208q0 129 -49 205.5t-132 76.5t-132 -76.5t-49 -205.5z" />
<glyph unicode="1" horiz-adv-x="371" d="M30 479v82h12q79 0 120 33t41 96v10h83v-700h-84v545q-50 -66 -160 -66h-12z" />
<glyph unicode="2" horiz-adv-x="567" d="M50 466q6 117 75 181t174 64q100 0 161 -55.5t61 -145.5q0 -66 -38 -116.5t-92 -82.5t-107.5 -62t-91.5 -73t-38 -99h357v-77h-446v66q0 60 27.5 109t68.5 78.5t88.5 59.5t88.5 54.5t68.5 61.5t27.5 81q0 56 -37 90t-99 34q-69 0 -114 -43.5t-46 -124.5h-88z" />
<glyph unicode="3" horiz-adv-x="606" d="M40 223h87q5 -72 55.5 -114.5t132.5 -42.5q75 0 120 36.5t45 96.5q0 59 -44.5 92.5t-123.5 33.5h-94v69h94q62 0 101.5 33t39.5 86t-39.5 87t-102.5 34q-65 0 -110 -38.5t-55 -102.5h-87q14 100 83.5 159t173.5 59q97 0 159 -50.5t62 -130.5q0 -60 -36 -104t-95 -60 q75 -17 116 -63t41 -113q0 -90 -68.5 -145.5t-180.5 -55.5q-119 0 -193 63.5t-81 170.5z" />
<glyph unicode="4" horiz-adv-x="619" d="M40 175v75l346 450h85v-448h123v-77h-123v-175h-84v175h-347zM132 252h255v331z" />
<glyph unicode="5" d="M49 211h87q8 -66 55 -105.5t116 -39.5q74 0 119.5 45t45.5 117q0 71 -45 116t-116 45q-80 0 -145 -69h-93l57 380h397v-77h-327l-36 -236q68 74 169 74q98 0 161 -65t63 -167q0 -107 -69 -173.5t-181 -66.5q-106 0 -176.5 60.5t-81.5 161.5z" />
<glyph unicode="6" horiz-adv-x="637" d="M53 355q0 168 78 262t211 94q100 0 169 -60.5t79 -157.5h-87q-8 62 -52.5 101.5t-108.5 39.5q-101 0 -156.5 -78t-55.5 -206q0 -14 2 -40q19 65 80 109t144 44q100 0 164.5 -65.5t64.5 -169.5q0 -106 -67.5 -172.5t-174.5 -66.5q-139 0 -214.5 101.5t-75.5 264.5z M173 227q0 -76 49 -119t115 -43t114 43t48 120q0 78 -47 120.5t-113 42.5q-67 0 -116.5 -43.5t-49.5 -120.5z" />
<glyph unicode="7" horiz-adv-x="527" d="M29 623v77h470v-77l-324 -623h-96l327 623h-377z" />
<glyph unicode="8" horiz-adv-x="622" d="M45 194q0 60 36.5 105.5t101.5 69.5q-50 23 -78 63.5t-28 91.5q0 83 65.5 135t169.5 52q103 0 168 -52.5t65 -134.5q0 -51 -27.5 -91t-77.5 -64q64 -24 100.5 -69.5t36.5 -105.5q0 -92 -72 -148.5t-193 -56.5q-119 0 -193 56t-74 149zM132 199q0 -59 50.5 -96t129.5 -37 t128.5 37t49.5 96t-49.5 96.5t-128.5 37.5q-80 0 -130 -37.5t-50 -96.5zM161 520q0 -54 42 -88t109 -34q66 0 107.5 34t41.5 88q0 51 -41.5 83.5t-107.5 32.5q-67 0 -109 -32.5t-42 -83.5z" />
<glyph unicode="9" horiz-adv-x="616" d="M47 199h87q10 -64 52.5 -98.5t112.5 -34.5q90 0 138.5 74t48.5 207q0 11 -2 31q-14 -60 -65 -98t-125 -38q-107 0 -175.5 66t-68.5 169t68 168.5t175 65.5q130 0 200 -97.5t70 -266.5q0 -168 -68.5 -263t-195.5 -95q-103 0 -170.5 55.5t-81.5 154.5zM133 475 q-1 -75 47 -117.5t113 -42.5q64 0 111 41.5t47 117.5q0 77 -46 119t-110 42q-65 0 -113 -42.5t-49 -117.5z" />
<glyph unicode=":" horiz-adv-x="226" d="M50 53q0 26 18 44t45 18t45 -18t18 -44q0 -27 -18 -45t-45 -18t-45 18t-18 45zM50 480q0 26 18 44t45 18t45 -18t18 -44q0 -27 -18 -45t-45 -18t-45 18t-18 45z" />
<glyph unicode=";" horiz-adv-x="275" d="M35 -162l105 335l71 -22l-109 -334zM80 480q0 26 18 44t45 18t45 -18t18 -44q0 -27 -18 -45t-45 -18t-45 18t-18 45z" />
<glyph unicode="&#x3c;" horiz-adv-x="570" d="M45 238v82l446 232l39 -62l-406 -211l406 -211l-39 -62z" />
<glyph unicode="=" horiz-adv-x="572" d="M50 152v70h472v-70h-472zM50 364v70h472v-70h-472z" />
<glyph unicode="&#x3e;" horiz-adv-x="570" d="M40 68l406 211l-406 211l39 62l446 -232v-82l-446 -232z" />
<glyph unicode="?" horiz-adv-x="563" d="M43 466q6 117 75 181t174 64q99 0 160.5 -54t61.5 -137q0 -46 -20 -82.5t-48 -61t-56 -47t-48 -52.5t-20 -66v-38h-82v38q0 45 19.5 81.5t47 61t55.5 47.5t47.5 52.5t19.5 65.5q0 50 -38 82.5t-100 32.5q-69 0 -114 -43.5t-46 -124.5h-88zM218 53q0 26 18 44t45 18 t45 -18t18 -44q0 -27 -18 -45t-45 -18t-45 18t-18 45z" />
<glyph unicode="@" horiz-adv-x="891" d="M59 272q0 179 114 294t294 115q164 0 267.5 -99t103.5 -256q0 -107 -47 -173.5t-123 -66.5q-45 0 -72.5 24.5t-27.5 64.5q-52 -89 -154 -89q-75 0 -120.5 51t-45.5 132q0 99 58 166.5t142 67.5q48 0 85.5 -23.5t56.5 -63.5l17 73h40l-30 -285q-3 -31 11 -49.5t42 -18.5 q49 0 79.5 52.5t30.5 133.5q0 135 -87 218t-225 83q-152 0 -249 -99t-97 -251q0 -148 95.5 -233t258.5 -85q116 0 210 47v-63q-96 -41 -214 -41q-189 0 -301 100.5t-112 273.5zM310 274q0 -59 32 -96t84 -37q56 0 94.5 43.5t45.5 110.5t-24.5 110t-88.5 43q-61 0 -102 -50 t-41 -124z" />
<glyph unicode="A" horiz-adv-x="718" d="M28 0l288 700h85l289 -700h-87l-82 200h-324l-82 -200h-87zM229 276h260l-130 317z" />
<glyph unicode="B" horiz-adv-x="681" d="M85 0v700h321q92 0 149.5 -49t57.5 -127q0 -56 -36.5 -99.5t-98.5 -63.5q69 -14 110 -60t41 -110q0 -85 -60 -138t-155 -53h-329zM168 77h255q53 0 86 34t33 89q0 56 -38.5 87.5t-97.5 31.5h-238v-242zM168 394h233q56 0 91.5 34t35.5 87q0 48 -32 78t-82 30h-246v-229z " />
<glyph unicode="C" horiz-adv-x="778" d="M53 352q0 159 92 259t250 100q133 0 220 -74t110 -206h-87q-19 96 -83.5 149.5t-159.5 53.5q-118 0 -186 -76t-68 -206q0 -134 68 -210t186 -76q98 0 160.5 52t82.5 151h87q-23 -136 -108 -208t-222 -72q-159 0 -250.5 100.5t-91.5 262.5z" />
<glyph unicode="D" horiz-adv-x="726" d="M85 0v700h247q151 0 246 -96.5t95 -249.5q0 -157 -95 -255.5t-246 -98.5h-247zM169 77h168q109 0 178 77.5t69 199.5q0 114 -69.5 191.5t-177.5 77.5h-168v-546z" />
<glyph unicode="E" horiz-adv-x="621" d="M85 0v700h478v-77h-395v-221h355v-75h-355v-250h404v-77h-487z" />
<glyph unicode="F" horiz-adv-x="604" d="M85 0v700h477v-77h-393v-227h363v-77h-363v-319h-84z" />
<glyph unicode="G" horiz-adv-x="786" d="M53 352q0 159 91.5 259t248.5 100q133 0 220.5 -75t109.5 -205h-87q-20 96 -83.5 149.5t-159.5 53.5q-117 0 -184.5 -75.5t-67.5 -206.5t67 -208.5t176 -77.5q97 0 155.5 60t58.5 156h-236v72h246q55 0 83.5 -27t28.5 -78v-249h-75v239h-2q-10 -117 -77 -183.5 t-182 -66.5q-146 0 -238.5 99.5t-92.5 263.5z" />
<glyph unicode="H" horiz-adv-x="768" d="M85 0v700h84v-301h430v301h84v-700h-84v322h-430v-322h-84z" />
<glyph unicode="I" horiz-adv-x="254" d="M85 0v700h84v-700h-84z" />
<glyph unicode="J" horiz-adv-x="580" d="M44 187v100h83v-99q0 -54 41.5 -88t106.5 -34q63 0 102.5 36.5t39.5 95.5v502h84v-504q0 -92 -63 -149.5t-163 -57.5q-102 0 -166.5 55t-64.5 143z" />
<glyph unicode="K" horiz-adv-x="679" d="M85 0v700h84v-383l361 383h109l-279 -292l298 -408h-104l-252 347l-133 -139v-208h-84z" />
<glyph unicode="L" horiz-adv-x="584" d="M85 0v700h84v-623h375v-77h-459z" />
<glyph unicode="M" horiz-adv-x="874" d="M85 0v700h105l247 -600l246 600h106v-700h-84v554l-228 -554h-81l-227 552v-552h-84z" />
<glyph unicode="N" horiz-adv-x="746" d="M85 0v700h96l396 -580v580h84v-700h-96l-396 580v-580h-84z" />
<glyph unicode="O" horiz-adv-x="782" d="M53 352q0 159 91 259t246 100q152 0 245.5 -98.5t93.5 -260.5q0 -161 -91.5 -262t-247.5 -101q-151 0 -244 99t-93 264zM139 352q0 -131 68 -208.5t183 -77.5q117 0 185 77.5t68 208.5q0 130 -68.5 206t-184.5 76q-115 0 -183 -76t-68 -206z" />
<glyph unicode="P" horiz-adv-x="680" d="M85 0v700h331q105 0 164.5 -58.5t59.5 -146.5q0 -103 -63.5 -160.5t-160.5 -57.5h-247v-277h-84zM169 354h251q63 0 98.5 40t35.5 101q0 60 -38 94t-96 34h-251v-269z" />
<glyph unicode="Q" horiz-adv-x="782" d="M53 352q0 159 91 259t246 100q152 0 245.5 -98.5t93.5 -260.5q0 -105 -40 -186.5t-114 -127.5l78 -137l-64 -33l-80 139q-54 -18 -119 -18q-151 0 -244 99t-93 264zM139 352q0 -131 68 -208.5t183 -77.5q41 0 79 11l-105 183l65 33l106 -185q108 74 108 244 q0 130 -68.5 206t-184.5 76q-115 0 -183 -76t-68 -206z" />
<glyph unicode="R" horiz-adv-x="692" d="M85 0v700h319q99 0 161 -53.5t62 -139.5q0 -62 -38.5 -111t-102.5 -69q56 -15 76 -69l97 -258h-90l-90 243q-17 46 -68 46h-242v-289h-84zM169 364h239q63 0 98.5 38t35.5 97t-37.5 91.5t-96.5 32.5h-239v-259z" />
<glyph unicode="S" horiz-adv-x="647" d="M50 212h88q7 -67 66.5 -107t151.5 -40q79 0 121 31t42 86q0 48 -33.5 74t-95.5 45l-121 38q-1 0 -24 7t-31 10t-31 13t-34 18t-28.5 23t-26 30t-15.5 37t-7 47q0 85 64.5 136t173.5 51q121 0 191.5 -59.5t78.5 -170.5h-87q-5 74 -54 114t-133 40q-67 0 -108.5 -28.5 t-41.5 -78.5q0 -14 4 -26t9 -21t16 -17.5t18 -13t23 -11t22.5 -8.5t25 -8t22.5 -7l113 -35q35 -11 55.5 -18.5t51 -24t47 -35t29.5 -49t13 -68.5q0 -92 -66.5 -144.5t-182.5 -52.5q-131 0 -215 61.5t-91 161.5z" />
<glyph unicode="T" horiz-adv-x="638" d="M35 623v77h568v-77h-242v-623h-84v623h-242z" />
<glyph unicode="U" horiz-adv-x="716" d="M79 235v465h84v-463q0 -80 55.5 -125t139.5 -45t139.5 45t55.5 125v463h84v-465q-1 -105 -75 -176q-73 -70 -200 -70h-4q-131 0 -205 70.5t-74 175.5z" />
<glyph unicode="V" horiz-adv-x="666" d="M20 700h90l227 -584l220 584h89l-264 -700h-90z" />
<glyph unicode="W" horiz-adv-x="946" d="M20 700h87l162 -574l162 574h82l164 -576l162 576h87l-198 -700h-94l-162 570l-160 -570h-94z" />
<glyph unicode="X" horiz-adv-x="694" d="M30 0l266 352l-258 348h102l208 -282l207 282h102l-256 -346l263 -354h-102l-213 288l-217 -288h-102z" />
<glyph unicode="Y" horiz-adv-x="651" d="M17 700h99l210 -311l209 311h99l-267 -391v-309h-84v309z" />
<glyph unicode="Z" horiz-adv-x="616" d="M52 0v77l403 546h-385v77h484v-77l-403 -546h413v-77h-512z" />
<glyph unicode="[" horiz-adv-x="359" d="M100 -128v892h234v-64h-160v-764h160v-64h-234z" />
<glyph unicode="\" horiz-adv-x="359" d="M6 767l75 21l265 -878l-74 -23z" />
<glyph unicode="]" horiz-adv-x="359" d="M25 -64h160v764h-160v64h234v-892h-234v64z" />
<glyph unicode="^" horiz-adv-x="472" d="M40 432l156 268h79l157 -268h-87l-109 191l-109 -191h-87z" />
<glyph unicode="_" horiz-adv-x="538" d="M45 -11h448v-70h-448v70z" />
<glyph unicode="`" horiz-adv-x="372" d="M22 817l47 52l281 -227l-47 -52z" />
<glyph unicode="a" horiz-adv-x="581" d="M42 151q0 44 19 74t55 46t69 23.5t81 12.5l33 3t32.5 3t27.5 3.5t25 5.5t17 7.5t13 11.5t4 16q-1 50 -38.5 82t-97.5 32q-58 0 -98.5 -29.5t-47.5 -76.5h-82q8 78 72 127.5t158 49.5q97 0 156 -52.5t59 -137.5v-258q0 -26 27 -26h30v-68h-47q-87 0 -87 75v16 q-50 -99 -183 -99q-90 0 -143.5 43t-53.5 116zM125 153q0 -41 34.5 -65.5t91.5 -24.5q74 0 120.5 42.5t46.5 108.5v69q-11 -15 -36.5 -24t-46.5 -12t-64 -8q-35 -4 -55 -7.5t-44 -12.5t-35.5 -25.5t-11.5 -40.5z" />
<glyph unicode="b" horiz-adv-x="619" d="M71 0v750h83v-303q30 44 78.5 69.5t107.5 25.5q105 0 171.5 -76.5t66.5 -197.5q0 -124 -66.5 -201.5t-171.5 -77.5q-65 0 -116 30t-78 82l-9 -101h-66zM154 272q0 -93 48.5 -152t124.5 -59q73 0 119 57.5t46 149.5q0 90 -46 146t-120 56q-75 0 -123.5 -55.5t-48.5 -142.5 z" />
<glyph unicode="c" horiz-adv-x="586" d="M41 268q0 129 74 201.5t187 72.5q101 0 166.5 -57.5t76.5 -158.5h-81q-11 67 -54.5 105.5t-109.5 38.5q-79 0 -127 -54.5t-48 -147.5q0 -98 51.5 -152.5t129.5 -54.5q64 0 105.5 38.5t52.5 107.5h81q-11 -103 -74 -160.5t-166 -57.5q-124 0 -194 79.5t-70 199.5z" />
<glyph unicode="d" horiz-adv-x="620" d="M41 268q0 122 67 198t173 76q59 0 107.5 -24t77.5 -67v299h83v-750h-66l-9 102q-27 -52 -77.5 -82.5t-114.5 -30.5q-107 0 -174 77.5t-67 201.5zM127 268q0 -91 47 -149t121 -58q76 0 123.5 58.5t47.5 150.5q0 89 -46 145t-120 56q-77 0 -125 -56.5t-48 -146.5z" />
<glyph unicode="e" horiz-adv-x="576" d="M41 263q0 130 72.5 204.5t178.5 74.5q110 0 175.5 -71t67.5 -197v-23h-411q4 -86 51.5 -138t126.5 -52q116 0 150 106h81q-18 -82 -79.5 -130t-151.5 -48q-117 0 -189 77t-72 197zM129 320h319q-11 70 -52 110t-104 40t-106.5 -39.5t-56.5 -110.5z" />
<glyph unicode="f" horiz-adv-x="404" d="M29 460v70h98v74q0 71 38.5 108.5t112.5 37.5h118v-70h-118q-68 0 -68 -76v-74h172v-70h-172v-460h-83v460h-98z" />
<glyph unicode="g" horiz-adv-x="615" d="M41 273q0 119 68 194t174 75q63 0 113 -27.5t77 -76.5l9 92h65v-516q0 -102 -65.5 -164t-182.5 -62q-108 0 -174 49t-66 132h83q0 -48 44 -79.5t113 -31.5q80 0 123 43t43 113v86q-61 -91 -182 -91q-106 0 -174 73.5t-68 190.5zM127 274q0 -85 47 -139t121 -54 q75 0 122.5 54.5t47.5 140.5t-47.5 140t-122.5 54q-74 0 -121 -54.5t-47 -141.5z" />
<glyph unicode="h" horiz-adv-x="581" d="M71 0v750h83v-288q29 37 75.5 58.5t99.5 21.5q86 0 138 -52t52 -139v-351h-83v348q0 55 -33.5 88t-89.5 33q-73 0 -115.5 -42t-43.5 -105v-322h-83z" />
<glyph unicode="i" horiz-adv-x="219" d="M48 681q0 26 18 43.5t44 17.5t43.5 -17.5t17.5 -43.5t-17.5 -44t-43.5 -18t-44 18t-18 44zM68 0v530h83v-530h-83z" />
<glyph unicode="j" horiz-adv-x="219" d="M-81 -130h74q75 0 75 81v579h83v-579q0 -74 -40.5 -112.5t-117.5 -38.5h-74v70zM48 681q0 26 17.5 43.5t44.5 17.5q26 0 43.5 -17.5t17.5 -43.5q0 -27 -17.5 -44.5t-43.5 -17.5q-27 0 -44.5 17.5t-17.5 44.5z" />
<glyph unicode="k" horiz-adv-x="543" d="M71 0v750h83v-481l258 261h100l-191 -193l220 -337h-97l-180 279l-110 -111v-168h-83z" />
<glyph unicode="l" horiz-adv-x="225" d="M71 0v750h83v-750h-83z" />
<glyph unicode="m" horiz-adv-x="924" d="M68 0v530h66l8 -82q27 43 75.5 68.5t105.5 25.5q59 0 102.5 -28t64.5 -77q26 47 77 76t111 29q83 0 133.5 -52.5t50.5 -134.5v-355h-83v352q0 53 -31 85t-84 32q-72 0 -114.5 -42t-43.5 -105v-322h-82v352q0 53 -31 85t-84 32q-72 0 -114.5 -42t-43.5 -105v-322h-83z" />
<glyph unicode="n" horiz-adv-x="578" d="M68 0v530h66l8 -81q27 43 76.5 68t107.5 25q86 0 138 -52t52 -139v-351h-83v348q0 56 -34 88.5t-94 32.5q-69 0 -111 -42t-43 -105v-322h-83z" />
<glyph unicode="o" d="M41 270q0 128 73.5 200t186.5 72q122 0 191 -77.5t69 -194.5q0 -133 -72 -207t-188 -74q-124 0 -192 78.5t-68 202.5zM126 270q0 -98 50 -153.5t125 -55.5q82 0 128.5 59.5t46.5 149.5t-48 145t-127 55t-127 -55t-48 -145z" />
<glyph unicode="p" horiz-adv-x="618" d="M70 -200v730h66l9 -96q29 50 79.5 79t114.5 29q105 0 171.5 -76.5t66.5 -197.5q0 -124 -66.5 -201.5t-171.5 -77.5q-125 0 -186 99v-288h-83zM153 272q0 -93 48.5 -152t124.5 -59q73 0 119 57.5t46 149.5q0 90 -46 146t-120 56q-75 0 -123.5 -55.5t-48.5 -142.5z" />
<glyph unicode="q" horiz-adv-x="619" d="M41 268q0 122 67 198t173 76q64 0 115 -28t78 -76l9 92h66v-730h-83v288q-28 -46 -76 -72.5t-108 -26.5q-107 0 -174 77.5t-67 201.5zM127 268q0 -91 47 -149t121 -58q76 0 123.5 58.5t47.5 150.5q0 89 -46 145t-120 56q-77 0 -125 -56.5t-48 -146.5z" />
<glyph unicode="r" horiz-adv-x="373" d="M68 0v530h66l10 -101q52 104 184 104h18v-82h-18q-84 0 -130.5 -45.5t-46.5 -127.5v-278h-83z" />
<glyph unicode="s" horiz-adv-x="497" d="M40 167h81q4 -50 45.5 -78.5t103.5 -28.5q111 0 111 82q0 15 -5.5 26.5t-10.5 17.5t-22 14t-24 10.5t-32 11.5l-77 26q-33 11 -47.5 16t-40 18.5t-37 26.5t-21.5 35t-10 50q0 68 50 108t136 40q89 0 145 -47t66 -134h-81q-7 54 -42 82t-91 28q-48 0 -75.5 -20t-27.5 -55 q0 -13 5.5 -24t10.5 -17.5t19.5 -14t20 -10t24.5 -8.5t22 -7l72 -24q81 -27 118 -59t37 -94q0 -71 -50.5 -110t-146.5 -39t-158.5 47.5t-67.5 130.5z" />
<glyph unicode="t" horiz-adv-x="383" d="M29 460v70h98v181h83v-181h143v-70h-143v-309q0 -81 75 -81h59v-70h-59q-77 0 -117.5 38.5t-40.5 112.5v309h-98z" />
<glyph unicode="u" horiz-adv-x="574" d="M58 176v354h83v-351q0 -56 35 -86.5t93 -30.5q72 0 112.5 41.5t41.5 104.5v322h83v-530h-66l-7 80q-53 -91 -172 -91q-95 0 -149 52t-54 135z" />
<glyph unicode="v" horiz-adv-x="569" d="M20 530h90l175 -433l174 433h90l-221 -530h-87z" />
<glyph unicode="w" horiz-adv-x="761" d="M20 530h85l122 -427l118 427h72l118 -425l121 425h85l-157 -530h-91l-112 404l-112 -404h-92z" />
<glyph unicode="x" horiz-adv-x="529" d="M26 0l192 263l-190 267h93l144 -205l143 205h93l-190 -266l192 -264h-94l-144 204l-145 -204h-94z" />
<glyph unicode="y" horiz-adv-x="552" d="M20 530h89l172 -447l166 447h85l-238 -641q-34 -89 -162 -89h-85v70h85q70 0 89 51l29 79h-20z" />
<glyph unicode="z" horiz-adv-x="505" d="M47 0v75l312 380h-303v75h398v-75l-312 -380h316v-75h-411z" />
<glyph unicode="{" horiz-adv-x="363" d="M38 285v66q39 0 61.5 19.5t22.5 54.5v197q0 68 38 105t110 37h68v-64h-68q-74 0 -74 -78v-197q0 -41 -20 -70t-55 -37q34 -8 54.5 -34t20.5 -64v-207q0 -37 19.5 -57t54.5 -20h68v-64h-68q-72 0 -110 37t-38 104v207q0 30 -22 47.5t-62 17.5z" />
<glyph unicode="|" horiz-adv-x="264" d="M90 -115v865h84v-865h-84z" />
<glyph unicode="}" horiz-adv-x="363" d="M25 -64h68q35 0 54.5 20t19.5 57v207q0 38 20.5 64t54.5 34q-35 8 -55 37t-20 70v197q0 78 -74 78h-68v64h68q72 0 110 -37t38 -105v-197q0 -35 22.5 -54.5t61.5 -19.5v-66q-40 0 -62 -17.5t-22 -47.5v-207q0 -67 -38 -104t-110 -37h-68v64z" />
<glyph unicode="~" horiz-adv-x="594" d="M45 213q0 84 34.5 128.5t99.5 44.5q38 0 82.5 -29t85.5 -58t71 -29q56 0 56 95h75q0 -82 -33 -126t-93 -44q-36 0 -74 18t-64 40t-54.5 40t-47.5 18q-63 0 -63 -98h-75z" />
<glyph unicode="&#xa1;" horiz-adv-x="252" d="M63 479q0 27 18 45t45 18t45 -18t18 -45q0 -26 -18 -44t-45 -18t-45 18t-18 44zM85 -218v570h83v-570h-83z" />
<glyph unicode="&#xa2;" horiz-adv-x="586" d="M41 352q0 116 60.5 187t157.5 84v119h67v-117q91 -7 150 -63.5t69 -151.5h-81q-10 60 -46 97.5t-92 44.5v-406q56 6 92 43.5t46 101.5h81q-10 -97 -67.5 -154t-151.5 -63v-125h-67v127q-103 15 -160.5 91.5t-57.5 184.5zM125 352q0 -82 37 -134t97 -67v399 q-62 -14 -98 -66t-36 -132z" />
<glyph unicode="&#xa3;" horiz-adv-x="646" d="M45 0v77q144 0 144 110q0 42 -31 106h-113v74h75q-35 72 -35 131q0 94 67 153.5t173 59.5q101 0 166.5 -59t76.5 -165h-87q-13 71 -53.5 109t-103.5 38q-65 0 -106.5 -38t-41.5 -98q0 -49 40 -131h213v-74h-177q26 -57 26 -98q0 -45 -25.5 -76.5t-69.5 -41.5h233 q93 0 93 84v101h83v-101q0 -79 -45 -120t-131 -41h-371z" />
<glyph unicode="&#xa4;" horiz-adv-x="564" d="M45 107l78 78q-41 52 -41 125q0 72 40 121l-77 77l39 36l77 -77q52 35 121 35q72 0 121 -35l77 77l39 -36l-77 -77q41 -50 41 -122q0 -74 -42 -124l78 -78l-39 -36l-78 78q-51 -34 -120 -34t-120 34l-78 -78zM160 309q0 -55 34 -90t88 -35q55 0 89 34.5t34 90.5 q0 55 -34 89.5t-89 34.5q-54 0 -88 -34.5t-34 -89.5z" />
<glyph unicode="&#xa5;" horiz-adv-x="651" d="M17 700h99l210 -311l209 311h99l-267 -391h209v-64h-209v-74h209v-64h-209v-107h-84v107h-208v64h208v74h-208v64h208z" />
<glyph unicode="&#xa6;" horiz-adv-x="264" d="M90 -115v380h84v-380h-84zM90 370v380h84v-380h-84z" />
<glyph unicode="&#xa7;" d="M84 75h81q5 -44 43 -70.5t98 -26.5q57 0 88 21t31 61q0 15 -5.5 26.5t-10.5 17.5t-22 14t-24 10.5t-32 11.5l-77 26q-33 11 -47.5 16t-40 18t-37 25.5t-21.5 34t-10 47.5q0 41 27 75t74 54q-49 19 -75.5 47.5t-26.5 79.5q0 68 51.5 108t138.5 40q88 0 142.5 -45 t64.5 -126h-81q-7 48 -41 74t-88 26q-49 0 -78 -20.5t-29 -54.5q0 -13 5.5 -24t10.5 -17.5t19.5 -14t20 -10t24.5 -8.5t22 -7l72 -24q81 -27 118 -59t37 -92q0 -39 -26 -72t-70 -50q49 -21 73 -51.5t24 -79.5q0 -70 -54 -109.5t-151 -39.5q-94 0 -153.5 45.5t-64.5 122.5z M175 323q0 -13 3 -24t10.5 -19.5t13.5 -14t18.5 -11t19 -8t21.5 -7.5t19 -6l82 -27q68 32 68 96q0 37 -21.5 53.5t-69.5 32.5l-9 3l-77 26q-78 -36 -78 -94z" />
<glyph unicode="&#xa8;" horiz-adv-x="401" d="M35 668q0 26 18.5 44t44.5 18t44 -18t18 -44t-18 -44.5t-44 -18.5t-44.5 18.5t-18.5 44.5zM241 668q0 26 18.5 44t44.5 18t44 -18t18 -44t-18 -44.5t-44 -18.5t-44.5 18.5t-18.5 44.5z" />
<glyph unicode="&#xa9;" horiz-adv-x="890" d="M55 350q0 168 109.5 279t280.5 111q168 0 279 -109.5t111 -280.5q0 -168 -109.5 -279t-280.5 -111q-168 0 -279 109.5t-111 280.5zM118 350q0 -143 91.5 -237.5t235.5 -94.5q141 0 234 93t93 239q0 143 -91.5 237.5t-235.5 94.5q-141 0 -234 -93t-93 -239zM270 352 q0 84 50 136.5t130 52.5q70 0 116 -40.5t54 -108.5h-61q-8 43 -37 68.5t-72 25.5q-51 0 -83.5 -37.5t-32.5 -96.5q0 -61 34 -99t87 -38q41 0 69 26t35 69h61q-7 -68 -53 -109t-114 -41q-81 0 -132 53.5t-51 138.5z" />
<glyph unicode="&#xaa;" horiz-adv-x="463" d="M42 425q0 26 10 45.5t24.5 30.5t37.5 19t41.5 11.5t44.5 6.5q10 1 26.5 2.5t25.5 2.5t21 2.5t18.5 4t13 6t9.5 9t3 12.5q0 33 -24 54t-64 21q-47 0 -76 -18.5t-34 -52.5h-69q6 60 54 95t126 35q70 0 112 -38t42 -101v-181q0 -19 20 -19h22v-58h-31q-35 0 -54.5 16.5 t-19.5 45.5v8q-39 -75 -136 -75q-63 0 -103 31.5t-40 84.5zM110 424q0 -28 23.5 -42.5t62.5 -14.5q51 0 86 29t35 75v45q-2 -4 -5.5 -7.5t-9 -6.5t-9.5 -5t-12 -4t-12.5 -3t-14 -2t-14.5 -1.5t-16 -2t-15 -1.5q-33 -4 -51 -8t-33 -16.5t-15 -34.5z" />
<glyph unicode="&#xab;" horiz-adv-x="556" d="M45 242v74l214 214l53 -48l-204 -203l204 -203l-53 -48zM252 242v74l214 214l53 -48l-204 -203l204 -203l-53 -48z" />
<glyph unicode="&#xac;" horiz-adv-x="573" d="M45 256v70h468v-309h-76v239h-392z" />
<glyph unicode="&#xad;" horiz-adv-x="518" d="M45 276v70h428v-70h-428z" />
<glyph unicode="&#xae;" horiz-adv-x="615" d="M41 476q0 115 74.5 190.5t192.5 75.5q115 0 190.5 -74.5t75.5 -191.5q0 -115 -74.5 -191t-191.5 -76q-115 0 -191 75t-76 192zM100 476q0 -92 58.5 -152.5t149.5 -60.5q89 0 148 59.5t59 153.5q0 91 -58 151.5t-149 60.5q-90 0 -149 -59.5t-59 -152.5zM207 355v242h131 q37 0 60 -20t23 -52q0 -48 -49 -65q25 -5 33 -30l24 -75h-51l-20 64q-5 17 -24 17h-77v-81h-50zM257 479h82q16 0 24.5 11t8.5 26t-8.5 25.5t-24.5 10.5h-82v-73z" />
<glyph unicode="&#xaf;" horiz-adv-x="414" d="M25 636v67h364v-67h-364z" />
<glyph unicode="&#xb0;" horiz-adv-x="375" d="M37 545q0 63 43 105t107 42q65 0 108 -42t43 -105t-43.5 -105.5t-107.5 -42.5t-107 42.5t-43 105.5zM100 545q0 -39 25 -65t62 -26q38 0 63 26t25 65q0 38 -25.5 64t-62.5 26t-62 -26t-25 -64z" />
<glyph unicode="&#xb1;" d="M50 33v70h502v-70h-502zM50 310v70h213v156h76v-156h213v-70h-213v-156h-76v156h-213z" />
<glyph unicode="&#xb2;" horiz-adv-x="377" d="M50 681q7 60 47 94t102 34q56 0 90 -31.5t34 -81.5q0 -41 -29.5 -74.5t-64.5 -52.5t-64.5 -44.5t-29.5 -51.5h196v-59h-268v36q0 41 20 72t48 49.5t56 35t48 38t20 48.5q0 24 -16 40.5t-44 16.5q-33 0 -52.5 -19t-23.5 -50h-69z" />
<glyph unicode="&#xb3;" horiz-adv-x="388" d="M40 538h68q3 -36 28.5 -55.5t65.5 -19.5q34 0 54.5 16.5t20.5 46.5q0 27 -21 43t-58 16h-60v54h60q30 0 47 16.5t17 40.5q0 23 -15.5 39.5t-49.5 16.5q-29 0 -51 -18.5t-27 -50.5h-69q8 60 49 93t102 33q57 0 93 -29.5t36 -75.5q0 -64 -70 -88q40 -10 62.5 -36t22.5 -61 q0 -51 -40 -82.5t-105 -31.5q-70 0 -113.5 35.5t-46.5 97.5z" />
<glyph unicode="&#xb4;" horiz-adv-x="372" d="M22 642l281 227l47 -52l-281 -227z" />
<glyph unicode="&#xb6;" horiz-adv-x="599" d="M40 495q0 88 59.5 146.5t164.5 58.5h245v-803h-79v734h-75v-734h-79v380h-12q-97 0 -160.5 57.5t-63.5 160.5z" />
<glyph unicode="&#xb7;" horiz-adv-x="246" d="M60 311q0 26 18 44t45 18t45 -18t18 -44q0 -27 -18 -45t-45 -18t-45 18t-18 45z" />
<glyph unicode="&#xb8;" horiz-adv-x="182" d="M22 -199l70 211l68 -12l-70 -212z" />
<glyph unicode="&#xb9;" horiz-adv-x="278" d="M30 664v68h17q79 0 79 62v6h67v-386h-67v284q-23 -34 -79 -34h-17z" />
<glyph unicode="&#xba;" horiz-adv-x="462" d="M40 511q0 94 54 147t137 53q90 0 140.5 -57t50.5 -143q0 -98 -53 -152t-138 -54q-90 0 -140.5 57.5t-50.5 148.5zM108 511q0 -68 35.5 -107.5t87.5 -39.5q57 0 90 42t33 105q0 64 -33.5 102.5t-89.5 38.5t-89.5 -38.5t-33.5 -102.5z" />
<glyph unicode="&#xbb;" horiz-adv-x="556" d="M37 76l204 203l-204 203l53 48l214 -214v-74l-214 -214zM244 76l204 203l-204 203l53 48l214 -214v-74l-214 -214z" />
<glyph unicode="&#xbc;" horiz-adv-x="773" d="M30 564v68h17q79 0 79 62v6h67v-386h-67v284q-23 -34 -79 -34h-17zM84 0l509 735l63 -31l-509 -735zM437 79v66l183 241h67v-250h61v-57h-61v-79h-67v79h-183zM496 136h124v163z" />
<glyph unicode="&#xbd;" horiz-adv-x="831" d="M30 564v68h17q79 0 79 62v6h67v-386h-67v284q-23 -34 -79 -34h-17zM84 0l509 735l63 -31l-509 -735zM504 267q7 60 47 94t102 34q56 0 90 -31.5t34 -81.5q0 -41 -29.5 -74.5t-64.5 -52.5t-64.5 -44.5t-29.5 -51.5h196v-59h-268v36q0 41 20 72t48 49.5t56 35t48 38 t20 48.5q0 24 -16 40.5t-44 16.5q-33 0 -52.5 -19t-23.5 -50h-69z" />
<glyph unicode="&#xbe;" horiz-adv-x="882" d="M30 438h68q3 -36 28.5 -55.5t65.5 -19.5q34 0 54.5 16.5t20.5 46.5q0 27 -21 43t-58 16h-60v54h60q30 0 47 16.5t17 40.5q0 23 -15.5 39.5t-49.5 16.5q-29 0 -51 -18.5t-27 -50.5h-69q8 60 49 93t102 33q57 0 93 -29.5t36 -75.5q0 -64 -70 -88q40 -10 62.5 -36t22.5 -61 q0 -51 -40 -82.5t-105 -31.5q-70 0 -113.5 35.5t-46.5 97.5zM193 0l509 735l63 -31l-509 -735zM546 79v66l183 241h67v-250h61v-57h-61v-79h-67v79h-183zM605 136h124v163z" />
<glyph unicode="&#xbf;" horiz-adv-x="563" d="M49 12q0 46 20 82.5t48 61t56 47t48 52.5t20 66v38h82v-38q0 -45 -19.5 -81.5t-47.5 -61t-55.5 -47.5t-47 -52.5t-19.5 -65.5q0 -50 38 -82.5t100 -32.5q69 0 114 43.5t46 124.5h88q-6 -117 -75 -181t-174 -64q-99 0 -160.5 54t-61.5 137zM219 479q0 27 18 45t45 18 t45 -18t18 -45q0 -26 -18 -44t-45 -18t-45 18t-18 44z" />
<glyph unicode="&#xc0;" horiz-adv-x="718" d="M28 0l288 700h85l289 -700h-87l-82 200h-324l-82 -200h-87zM112 960l47 52l267 -220l-47 -52zM229 276h260l-130 317z" />
<glyph unicode="&#xc1;" horiz-adv-x="718" d="M28 0l288 700h85l289 -700h-87l-82 200h-324l-82 -200h-87zM229 276h260l-130 317zM292 792l267 220l47 -52l-267 -220z" />
<glyph unicode="&#xc2;" horiz-adv-x="718" d="M28 0l288 700h85l289 -700h-87l-82 200h-324l-82 -200h-87zM154 799l175 160h59l175 -160l-51 -48l-154 143l-153 -143zM229 276h260l-130 317z" />
<glyph unicode="&#xc3;" horiz-adv-x="718" d="M28 0l288 700h85l289 -700h-87l-82 200h-324l-82 -200h-87zM174 785q0 61 27 99t71 38q30 0 61.5 -19.5t58 -39t45.5 -19.5q39 0 39 69h68q0 -63 -25 -98.5t-69 -35.5q-31 0 -64 19.5t-59 39t-42 19.5q-19 0 -31 -20t-12 -52h-68zM229 276h260l-130 317z" />
<glyph unicode="&#xc4;" horiz-adv-x="718" d="M28 0l288 700h85l289 -700h-87l-82 200h-324l-82 -200h-87zM193 828q0 26 18.5 44t44.5 18t44 -18t18 -44t-18 -44.5t-44 -18.5t-44.5 18.5t-18.5 44.5zM229 276h260l-130 317zM399 828q0 26 18.5 44t44.5 18t44 -18t18 -44t-18 -44.5t-44 -18.5t-44.5 18.5t-18.5 44.5z " />
<glyph unicode="&#xc5;" horiz-adv-x="718" d="M28 0l288 700h85l289 -700h-87l-82 200h-324l-82 -200h-87zM229 276h260l-130 317zM259 842q0 41 28.5 68t71.5 27t71.5 -27t28.5 -68t-28.5 -68t-71.5 -27t-71.5 27t-28.5 68zM309 842q0 -22 14 -36t36 -14t36 14t14 36t-14 36t-36 14t-36 -14t-14 -36z" />
<glyph unicode="&#xc6;" horiz-adv-x="981" d="M28 0l264 700h631v-77h-395v-221h355v-75h-355v-250h404v-77h-487v206h-255l-78 -206h-84zM218 282h227v338h-99z" />
<glyph unicode="&#xc7;" horiz-adv-x="778" d="M53 352q0 159 92 259t250 100q133 0 220 -74t110 -206h-87q-19 96 -83.5 149.5t-159.5 53.5q-118 0 -186 -76t-68 -206q0 -134 68 -210t186 -76q98 0 160.5 52t82.5 151h87q-22 -128 -98 -199.5t-199 -79.5l-67 -202l-68 13l63 190q-141 13 -222 111.5t-81 249.5z" />
<glyph unicode="&#xc8;" horiz-adv-x="621" d="M84 960l47 52l267 -220l-47 -52zM85 0v700h478v-77h-395v-221h355v-75h-355v-250h404v-77h-487z" />
<glyph unicode="&#xc9;" horiz-adv-x="621" d="M85 0v700h478v-77h-395v-221h355v-75h-355v-250h404v-77h-487zM264 792l267 220l47 -52l-267 -220z" />
<glyph unicode="&#xca;" horiz-adv-x="621" d="M85 0v700h478v-77h-395v-221h355v-75h-355v-250h404v-77h-487zM126 799l175 160h59l175 -160l-51 -48l-154 143l-153 -143z" />
<glyph unicode="&#xcb;" horiz-adv-x="621" d="M85 0v700h478v-77h-395v-221h355v-75h-355v-250h404v-77h-487zM165 828q0 26 18.5 44t44.5 18t44 -18t18 -44t-18 -44.5t-44 -18.5t-44.5 18.5t-18.5 44.5zM371 828q0 26 18.5 44t44.5 18t44 -18t18 -44t-18 -44.5t-44 -18.5t-44.5 18.5t-18.5 44.5z" />
<glyph unicode="&#xcc;" horiz-adv-x="254" d="M-120 960l47 52l267 -220l-47 -52zM85 0v700h84v-700h-84z" />
<glyph unicode="&#xcd;" horiz-adv-x="254" d="M60 792l267 220l47 -52l-267 -220zM85 0v700h84v-700h-84z" />
<glyph unicode="&#xce;" horiz-adv-x="254" d="M-78 799l175 160h59l175 -160l-51 -48l-154 143l-153 -143zM85 0v700h84v-700h-84z" />
<glyph unicode="&#xcf;" horiz-adv-x="254" d="M-39 828q0 26 18.5 44t44.5 18t44 -18t18 -44t-18 -44.5t-44 -18.5t-44.5 18.5t-18.5 44.5zM85 0v700h84v-700h-84zM167 828q0 26 18.5 44t44.5 18t44 -18t18 -44t-18 -44.5t-44 -18.5t-44.5 18.5t-18.5 44.5z" />
<glyph unicode="&#xd0;" horiz-adv-x="746" d="M1 322v67h104v311h247q151 0 246 -96.5t95 -249.5q0 -157 -95 -255.5t-246 -98.5h-247v322h-104zM189 77h168q109 0 178 77.5t69 199.5q0 114 -69.5 191.5t-177.5 77.5h-168v-234h236v-67h-236v-245z" />
<glyph unicode="&#xd1;" horiz-adv-x="746" d="M85 0v700h96l396 -580v580h84v-700h-96l-396 580v-580h-84zM188 785q0 61 27 99t71 38q30 0 61.5 -19.5t58 -39t45.5 -19.5q39 0 39 69h68q0 -63 -25 -98.5t-69 -35.5q-31 0 -64 19.5t-59 39t-42 19.5q-19 0 -31 -20t-12 -52h-68z" />
<glyph unicode="&#xd2;" horiz-adv-x="782" d="M53 352q0 159 91 259t246 100q152 0 245.5 -98.5t93.5 -260.5q0 -161 -91.5 -262t-247.5 -101q-151 0 -244 99t-93 264zM139 352q0 -131 68 -208.5t183 -77.5q117 0 185 77.5t68 208.5q0 130 -68.5 206t-184.5 76q-115 0 -183 -76t-68 -206zM143 960l47 52l267 -220 l-47 -52z" />
<glyph unicode="&#xd3;" horiz-adv-x="782" d="M53 352q0 159 91 259t246 100q152 0 245.5 -98.5t93.5 -260.5q0 -161 -91.5 -262t-247.5 -101q-151 0 -244 99t-93 264zM139 352q0 -131 68 -208.5t183 -77.5q117 0 185 77.5t68 208.5q0 130 -68.5 206t-184.5 76q-115 0 -183 -76t-68 -206zM323 792l267 220l47 -52 l-267 -220z" />
<glyph unicode="&#xd4;" horiz-adv-x="782" d="M53 352q0 159 91 259t246 100q152 0 245.5 -98.5t93.5 -260.5q0 -161 -91.5 -262t-247.5 -101q-151 0 -244 99t-93 264zM139 352q0 -131 68 -208.5t183 -77.5q117 0 185 77.5t68 208.5q0 130 -68.5 206t-184.5 76q-115 0 -183 -76t-68 -206zM185 799l175 160h59l175 -160 l-51 -48l-154 143l-153 -143z" />
<glyph unicode="&#xd5;" horiz-adv-x="782" d="M53 352q0 159 91 259t246 100q152 0 245.5 -98.5t93.5 -260.5q0 -161 -91.5 -262t-247.5 -101q-151 0 -244 99t-93 264zM139 352q0 -131 68 -208.5t183 -77.5q117 0 185 77.5t68 208.5q0 130 -68.5 206t-184.5 76q-115 0 -183 -76t-68 -206zM205 785q0 61 27 99t71 38 q30 0 61.5 -19.5t58 -39t45.5 -19.5q39 0 39 69h68q0 -63 -25 -98.5t-69 -35.5q-31 0 -64 19.5t-59 39t-42 19.5q-19 0 -31 -20t-12 -52h-68z" />
<glyph unicode="&#xd6;" horiz-adv-x="782" d="M53 352q0 159 91 259t246 100q152 0 245.5 -98.5t93.5 -260.5q0 -161 -91.5 -262t-247.5 -101q-151 0 -244 99t-93 264zM139 352q0 -131 68 -208.5t183 -77.5q117 0 185 77.5t68 208.5q0 130 -68.5 206t-184.5 76q-115 0 -183 -76t-68 -206zM224 828q0 26 18.5 44 t44.5 18t44 -18t18 -44t-18 -44.5t-44 -18.5t-44.5 18.5t-18.5 44.5zM430 828q0 26 18.5 44t44.5 18t44 -18t18 -44t-18 -44.5t-44 -18.5t-44.5 18.5t-18.5 44.5z" />
<glyph unicode="&#xd7;" horiz-adv-x="513" d="M40 125l167 167l-167 166l50 50l167 -166l166 166l50 -50l-166 -166l166 -167l-50 -50l-166 167l-167 -167z" />
<glyph unicode="&#xd8;" horiz-adv-x="782" d="M53 352q0 159 91 259t246 100q117 0 203 -61l88 112l43 -33l-90 -114q95 -100 95 -263q0 -161 -91.5 -262t-247.5 -101q-117 0 -202 62l-86 -110l-43 33l89 112q-95 101 -95 266zM139 352q0 -123 61 -200l343 435q-64 47 -153 47q-115 0 -183 -76t-68 -206zM238 114 q63 -48 152 -48q117 0 185 77.5t68 208.5q0 122 -61 197z" />
<glyph unicode="&#xd9;" horiz-adv-x="716" d="M79 235v465h84v-463q0 -80 55.5 -125t139.5 -45t139.5 45t55.5 125v463h84v-465q0 -105 -74.5 -176t-204.5 -70q-131 0 -205 70.5t-74 175.5zM111 960l47 52l267 -220l-47 -52z" />
<glyph unicode="&#xda;" horiz-adv-x="716" d="M79 235v465h84v-463q0 -80 55.5 -125t139.5 -45t139.5 45t55.5 125v463h84v-465q0 -105 -74.5 -176t-204.5 -70q-131 0 -205 70.5t-74 175.5zM291 792l267 220l47 -52l-267 -220z" />
<glyph unicode="&#xdb;" horiz-adv-x="716" d="M79 235v465h84v-463q0 -80 55.5 -125t139.5 -45t139.5 45t55.5 125v463h84v-465q0 -105 -74.5 -176t-204.5 -70q-131 0 -205 70.5t-74 175.5zM153 799l175 160h59l175 -160l-51 -48l-154 143l-153 -143z" />
<glyph unicode="&#xdc;" horiz-adv-x="716" d="M79 235v465h84v-463q0 -80 55.5 -125t139.5 -45t139.5 45t55.5 125v463h84v-465q0 -105 -74.5 -176t-204.5 -70q-131 0 -205 70.5t-74 175.5zM192 828q0 26 18.5 44t44.5 18t44 -18t18 -44t-18 -44.5t-44 -18.5t-44.5 18.5t-18.5 44.5zM398 828q0 26 18.5 44t44.5 18 t44 -18t18 -44t-18 -44.5t-44 -18.5t-44.5 18.5t-18.5 44.5z" />
<glyph unicode="&#xdd;" horiz-adv-x="651" d="M17 700h99l210 -311l209 311h99l-267 -391v-309h-84v309zM258 792l267 220l47 -52l-267 -220z" />
<glyph unicode="&#xde;" horiz-adv-x="679" d="M85 0v700h84v-135h246q105 0 164.5 -58.5t59.5 -146.5q0 -103 -63.5 -160.5t-160.5 -57.5h-246v-142h-84zM169 219h250q63 0 98.5 40t35.5 101q0 60 -38 94t-96 34h-250v-269z" />
<glyph unicode="&#xdf;" horiz-adv-x="589" d="M71 0v479q0 109 60 170.5t167 61.5q97 0 158 -51t61 -132q0 -62 -39 -106t-103 -57q76 -16 122 -67.5t46 -123.5q0 -82 -59 -133.5t-156 -51.5q-54 0 -107 16v74q52 -19 99 -19q64 0 102 34.5t38 92.5q0 61 -42 98.5t-110 37.5h-51v72h51q55 0 89.5 33.5t34.5 86.5 q0 55 -37.5 89.5t-96.5 34.5q-68 0 -106 -42t-38 -118v-479h-83z" />
<glyph unicode="&#xe0;" horiz-adv-x="581" d="M17 817l47 52l281 -227l-47 -52zM42 151q0 44 19 74t55 46t69 23.5t81 12.5l33 3t32.5 3t27.5 3.5t25 5.5t17 7.5t13 11.5t4 16q-1 50 -38.5 82t-97.5 32q-58 0 -98.5 -29.5t-47.5 -76.5h-82q8 78 72 127.5t158 49.5q97 0 156 -52.5t59 -137.5v-258q0 -26 27 -26h30v-68 h-47q-87 0 -87 75v16q-50 -99 -183 -99q-90 0 -143.5 43t-53.5 116zM125 153q0 -41 34.5 -65.5t91.5 -24.5q74 0 120.5 42.5t46.5 108.5v69q-11 -15 -36.5 -24t-46.5 -12t-64 -8q-35 -4 -55 -7.5t-44 -12.5t-35.5 -25.5t-11.5 -40.5z" />
<glyph unicode="&#xe1;" horiz-adv-x="581" d="M42 151q0 44 19 74t55 46t69 23.5t81 12.5l33 3t32.5 3t27.5 3.5t25 5.5t17 7.5t13 11.5t4 16q-1 50 -38.5 82t-97.5 32q-58 0 -98.5 -29.5t-47.5 -76.5h-82q8 78 72 127.5t158 49.5q97 0 156 -52.5t59 -137.5v-258q0 -26 27 -26h30v-68h-47q-87 0 -87 75v16 q-50 -99 -183 -99q-90 0 -143.5 43t-53.5 116zM125 153q0 -41 34.5 -65.5t91.5 -24.5q74 0 120.5 42.5t46.5 108.5v69q-11 -15 -36.5 -24t-46.5 -12t-64 -8q-35 -4 -55 -7.5t-44 -12.5t-35.5 -25.5t-11.5 -40.5zM211 642l281 227l47 -52l-281 -227z" />
<glyph unicode="&#xe2;" horiz-adv-x="581" d="M42 151q0 44 19 74t55 46t69 23.5t81 12.5l33 3t32.5 3t27.5 3.5t25 5.5t17 7.5t13 11.5t4 16q-1 50 -38.5 82t-97.5 32q-58 0 -98.5 -29.5t-47.5 -76.5h-82q8 78 72 127.5t158 49.5q97 0 156 -52.5t59 -137.5v-258q0 -26 27 -26h30v-68h-47q-87 0 -87 75v16 q-50 -99 -183 -99q-90 0 -143.5 43t-53.5 116zM60 636l189 173h59l188 -172l-51 -48l-167 155l-167 -155zM125 153q0 -41 34.5 -65.5t91.5 -24.5q74 0 120.5 42.5t46.5 108.5v69q-11 -15 -36.5 -24t-46.5 -12t-64 -8q-35 -4 -55 -7.5t-44 -12.5t-35.5 -25.5t-11.5 -40.5z " />
<glyph unicode="&#xe3;" horiz-adv-x="581" d="M42 151q0 44 19 74t55 46t69 23.5t81 12.5l33 3t32.5 3t27.5 3.5t25 5.5t17 7.5t13 11.5t4 16q-1 50 -38.5 82t-97.5 32q-58 0 -98.5 -29.5t-47.5 -76.5h-82q8 78 72 127.5t158 49.5q97 0 156 -52.5t59 -137.5v-258q0 -26 27 -26h30v-68h-47q-87 0 -87 75v16 q-50 -99 -183 -99q-90 0 -143.5 43t-53.5 116zM93 645q0 61 27 99t71 38q30 0 61.5 -19.5t58 -39t45.5 -19.5q39 0 39 69h68q0 -63 -25 -98.5t-69 -35.5q-31 0 -64 19.5t-59.5 39t-42.5 19.5q-19 0 -30.5 -20t-11.5 -52h-68zM125 153q0 -41 34.5 -65.5t91.5 -24.5 q74 0 120.5 42.5t46.5 108.5v69q-11 -15 -36.5 -24t-46.5 -12t-64 -8q-35 -4 -55 -7.5t-44 -12.5t-35.5 -25.5t-11.5 -40.5z" />
<glyph unicode="&#xe4;" horiz-adv-x="581" d="M42 151q0 44 19 74t55 46t69 23.5t81 12.5l33 3t32.5 3t27.5 3.5t25 5.5t17 7.5t13 11.5t4 16q-1 50 -38.5 82t-97.5 32q-58 0 -98.5 -29.5t-47.5 -76.5h-82q8 78 72 127.5t158 49.5q97 0 156 -52.5t59 -137.5v-258q0 -26 27 -26h30v-68h-47q-87 0 -87 75v16 q-50 -99 -183 -99q-90 0 -143.5 43t-53.5 116zM112 668q0 26 18.5 44t44.5 18t44 -18t18 -44t-18 -44.5t-44 -18.5t-44.5 18.5t-18.5 44.5zM125 153q0 -41 34.5 -65.5t91.5 -24.5q74 0 120.5 42.5t46.5 108.5v69q-11 -15 -36.5 -24t-46.5 -12t-64 -8q-35 -4 -55 -7.5 t-44 -12.5t-35.5 -25.5t-11.5 -40.5zM318 668q0 26 18.5 44t44.5 18t44 -18t18 -44t-18 -44.5t-44 -18.5t-44.5 18.5t-18.5 44.5z" />
<glyph unicode="&#xe5;" horiz-adv-x="581" d="M42 151q0 44 19 74t55 46t69 23.5t81 12.5l33 3t32.5 3t27.5 3.5t25 5.5t17 7.5t13 11.5t4 16q-1 50 -38.5 82t-97.5 32q-58 0 -98.5 -29.5t-47.5 -76.5h-82q8 78 72 127.5t158 49.5q97 0 156 -52.5t59 -137.5v-258q0 -26 27 -26h30v-68h-47q-87 0 -87 75v16 q-50 -99 -183 -99q-90 0 -143.5 43t-53.5 116zM125 153q0 -41 34.5 -65.5t91.5 -24.5q74 0 120.5 42.5t46.5 108.5v69q-11 -15 -36.5 -24t-46.5 -12t-64 -8q-35 -4 -55 -7.5t-44 -12.5t-35.5 -25.5t-11.5 -40.5zM178 682q0 41 28.5 68t71.5 27t71.5 -27t28.5 -68t-28.5 -68 t-71.5 -27t-71.5 27t-28.5 68zM233 682q0 -20 12.5 -32.5t32.5 -12.5t32.5 12.5t12.5 32.5t-12.5 32.5t-32.5 12.5t-32.5 -12.5t-12.5 -32.5z" />
<glyph unicode="&#xe6;" horiz-adv-x="953" d="M42 151q0 44 19 74t55 46t69 23.5t81 12.5l33 3t32.5 3t27.5 3.5t25 5.5t17 7.5t13 11.5t4 16q-1 50 -38.5 82t-97.5 32q-58 0 -98.5 -29.5t-47.5 -76.5h-82q8 78 72 127.5t158 49.5q135 0 190 -94q71 94 195 94q110 0 175.5 -71t67.5 -197v-23h-411q4 -86 51.5 -138 t126.5 -52q116 0 150 106h81q-18 -82 -79.5 -130t-151.5 -48q-83 0 -144 39.5t-92 109.5q-18 -69 -69.5 -107.5t-134.5 -38.5q-90 0 -143.5 43t-53.5 116zM125 153q0 -41 34.5 -65.5t91.5 -24.5q74 0 120.5 42.5t46.5 108.5v69q-11 -15 -36.5 -24t-46.5 -12t-64 -8 q-35 -4 -55 -7.5t-44 -12.5t-35.5 -25.5t-11.5 -40.5zM506 320h319q-11 70 -52 110t-104 40t-106.5 -39.5t-56.5 -110.5z" />
<glyph unicode="&#xe7;" horiz-adv-x="586" d="M41 268q0 129 74 201.5t187 72.5q101 0 166.5 -57.5t76.5 -158.5h-81q-11 67 -54.5 105.5t-109.5 38.5q-79 0 -127 -54.5t-48 -147.5q0 -98 51.5 -152.5t129.5 -54.5q64 0 105.5 38.5t52.5 107.5h81q-10 -94 -64 -150.5t-143 -65.5l-67 -203l-68 13l63 190 q-107 13 -166 90t-59 187z" />
<glyph unicode="&#xe8;" horiz-adv-x="576" d="M29 817l47 52l281 -227l-47 -52zM41 263q0 130 72.5 204.5t178.5 74.5q110 0 175.5 -71t67.5 -197v-23h-411q4 -86 51.5 -138t126.5 -52q116 0 150 106h81q-18 -82 -79.5 -130t-151.5 -48q-117 0 -189 77t-72 197zM129 320h319q-11 70 -52 110t-104 40t-106.5 -39.5 t-56.5 -110.5z" />
<glyph unicode="&#xe9;" horiz-adv-x="576" d="M41 263q0 130 72.5 204.5t178.5 74.5q110 0 175.5 -71t67.5 -197v-23h-411q4 -86 51.5 -138t126.5 -52q116 0 150 106h81q-18 -82 -79.5 -130t-151.5 -48q-117 0 -189 77t-72 197zM129 320h319q-11 70 -52 110t-104 40t-106.5 -39.5t-56.5 -110.5zM223 642l281 227 l47 -52l-281 -227z" />
<glyph unicode="&#xea;" horiz-adv-x="576" d="M41 263q0 130 72.5 204.5t178.5 74.5q110 0 175.5 -71t67.5 -197v-23h-411q4 -86 51.5 -138t126.5 -52q116 0 150 106h81q-18 -82 -79.5 -130t-151.5 -48q-117 0 -189 77t-72 197zM72 636l189 173h59l188 -172l-51 -48l-167 155l-167 -155zM129 320h319q-11 70 -52 110 t-104 40t-106.5 -39.5t-56.5 -110.5z" />
<glyph unicode="&#xeb;" horiz-adv-x="576" d="M41 263q0 130 72.5 204.5t178.5 74.5q110 0 175.5 -71t67.5 -197v-23h-411q4 -86 51.5 -138t126.5 -52q116 0 150 106h81q-18 -82 -79.5 -130t-151.5 -48q-117 0 -189 77t-72 197zM124 668q0 26 18.5 44t44.5 18t44 -18t18 -44t-18 -44.5t-44 -18.5t-44.5 18.5 t-18.5 44.5zM129 320h319q-11 70 -52 110t-104 40t-106.5 -39.5t-56.5 -110.5zM330 668q0 26 18.5 44t44.5 18t44 -18t18 -44t-18 -44.5t-44 -18.5t-44.5 18.5t-18.5 44.5z" />
<glyph unicode="&#xec;" horiz-adv-x="220" d="M-150 817l47 52l281 -227l-47 -52zM68 0l1 530h83l-1 -530h-83z" />
<glyph unicode="&#xed;" horiz-adv-x="220" d="M44 642l281 227l47 -52l-281 -227zM68 0l1 530h83l-1 -530h-83z" />
<glyph unicode="&#xee;" horiz-adv-x="220" d="M-107 636l189 173h59l188 -172l-51 -48l-167 155l-167 -155zM68 0l1 530h83l-1 -530h-83z" />
<glyph unicode="&#xef;" horiz-adv-x="220" d="M-55 668q0 26 18.5 44t44.5 18t44 -18t18 -44t-18 -44.5t-44 -18.5t-44.5 18.5t-18.5 44.5zM68 0l1 530h83l-1 -530h-83zM151 668q0 26 18.5 44t44.5 18t44 -18t18 -44t-18 -44.5t-44 -18.5t-44.5 18.5t-18.5 44.5z" />
<glyph unicode="&#xf0;" horiz-adv-x="587" d="M41 245q0 110 65.5 179t167.5 69q109 0 172 -79q-27 106 -129 177l-181 -70l-27 62l132 51q-56 25 -123 41l18 71q112 -23 200 -75l178 69l27 -61l-141 -55q137 -119 137 -321q0 -145 -69.5 -229.5t-184.5 -84.5q-106 0 -174 71.5t-68 184.5zM126 244q0 -80 45.5 -131.5 t116.5 -51.5q70 0 114 51.5t44 134.5q0 76 -44.5 124.5t-115.5 48.5t-115.5 -49t-44.5 -127z" />
<glyph unicode="&#xf1;" horiz-adv-x="578" d="M68 0v530h66l8 -81q27 43 76.5 68t107.5 25q86 0 138 -52t52 -139v-351h-83v348q0 56 -34 88.5t-94 32.5q-69 0 -111 -42t-43 -105v-322h-83zM114 645q0 61 27 99t71 38q30 0 61.5 -19.5t58 -39t45.5 -19.5q39 0 39 69h68q0 -63 -25 -98.5t-69 -35.5q-31 0 -64 19.5 t-59.5 39t-42.5 19.5q-19 0 -30.5 -20t-11.5 -52h-68z" />
<glyph unicode="&#xf2;" d="M40 817l47 52l281 -227l-47 -52zM41 270q0 128 73.5 200t186.5 72q122 0 191 -77.5t69 -194.5q0 -133 -72 -207t-188 -74q-124 0 -192 78.5t-68 202.5zM126 270q0 -98 50 -153.5t125 -55.5q82 0 128.5 59.5t46.5 149.5t-48 145t-127 55t-127 -55t-48 -145z" />
<glyph unicode="&#xf3;" d="M41 270q0 128 73.5 200t186.5 72q122 0 191 -77.5t69 -194.5q0 -133 -72 -207t-188 -74q-124 0 -192 78.5t-68 202.5zM126 270q0 -98 50 -153.5t125 -55.5q82 0 128.5 59.5t46.5 149.5t-48 145t-127 55t-127 -55t-48 -145zM234 642l281 227l47 -52l-281 -227z" />
<glyph unicode="&#xf4;" d="M41 270q0 128 73.5 200t186.5 72q122 0 191 -77.5t69 -194.5q0 -133 -72 -207t-188 -74q-124 0 -192 78.5t-68 202.5zM83 636l189 173h59l188 -172l-51 -48l-167 155l-167 -155zM126 270q0 -98 50 -153.5t125 -55.5q82 0 128.5 59.5t46.5 149.5t-48 145t-127 55t-127 -55 t-48 -145z" />
<glyph unicode="&#xf5;" d="M41 270q0 128 73.5 200t186.5 72q122 0 191 -77.5t69 -194.5q0 -133 -72 -207t-188 -74q-124 0 -192 78.5t-68 202.5zM116 645q0 61 27 99t71 38q30 0 61.5 -19.5t58 -39t45.5 -19.5q39 0 39 69h68q0 -63 -25 -98.5t-69 -35.5q-31 0 -64 19.5t-59.5 39t-42.5 19.5 q-19 0 -30.5 -20t-11.5 -52h-68zM126 270q0 -98 50 -153.5t125 -55.5q82 0 128.5 59.5t46.5 149.5t-48 145t-127 55t-127 -55t-48 -145z" />
<glyph unicode="&#xf6;" d="M41 270q0 128 73.5 200t186.5 72q122 0 191 -77.5t69 -194.5q0 -133 -72 -207t-188 -74q-124 0 -192 78.5t-68 202.5zM126 270q0 -98 50 -153.5t125 -55.5q82 0 128.5 59.5t46.5 149.5t-48 145t-127 55t-127 -55t-48 -145zM135 668q0 26 18.5 44t44.5 18t44 -18t18 -44 t-18 -44.5t-44 -18.5t-44.5 18.5t-18.5 44.5zM341 668q0 26 18.5 44t44.5 18t44 -18t18 -44t-18 -44.5t-44 -18.5t-44.5 18.5t-18.5 44.5z" />
<glyph unicode="&#xf7;" horiz-adv-x="574" d="M45 276v70h484v-70h-484zM224 130q0 26 18 44t45 18t45 -18t18 -44q0 -27 -18 -45t-45 -18t-45 18t-18 45zM224 493q0 26 18 44t45 18t45 -18t18 -44q0 -27 -18 -45t-45 -18t-45 18t-18 45z" />
<glyph unicode="&#xf8;" d="M41 270q0 128 73.5 200t186.5 72q88 0 152 -43l56 72l43 -29l-60 -77q69 -75 69 -195q0 -133 -72 -207t-188 -74q-88 0 -150 42l-59 -75l-42 29l62 79q-71 77 -71 206zM126 270q0 -85 38 -139l240 306q-44 33 -103 33q-79 0 -127 -55t-48 -145zM200 94q44 -33 101 -33 q82 0 128.5 59.5t46.5 149.5q0 77 -36 129z" />
<glyph unicode="&#xf9;" horiz-adv-x="574" d="M21 817l47 52l281 -227l-47 -52zM58 176v354h83v-351q0 -56 35 -86.5t93 -30.5q72 0 112.5 41.5t41.5 104.5v322h83v-530h-66l-7 80q-53 -91 -172 -91q-95 0 -149 52t-54 135z" />
<glyph unicode="&#xfa;" horiz-adv-x="574" d="M58 176v354h83v-351q0 -56 35 -86.5t93 -30.5q72 0 112.5 41.5t41.5 104.5v322h83v-530h-66l-7 80q-53 -91 -172 -91q-95 0 -149 52t-54 135zM215 642l281 227l47 -52l-281 -227z" />
<glyph unicode="&#xfb;" horiz-adv-x="574" d="M58 176v354h83v-351q0 -56 35 -86.5t93 -30.5q72 0 112.5 41.5t41.5 104.5v322h83v-530h-66l-7 80q-53 -91 -172 -91q-95 0 -149 52t-54 135zM64 636l189 173h59l188 -172l-51 -48l-167 155l-167 -155z" />
<glyph unicode="&#xfc;" horiz-adv-x="574" d="M58 176v354h83v-351q0 -56 35 -86.5t93 -30.5q72 0 112.5 41.5t41.5 104.5v322h83v-530h-66l-7 80q-53 -91 -172 -91q-95 0 -149 52t-54 135zM116 668q0 26 18.5 44t44.5 18t44 -18t18 -44t-18 -44.5t-44 -18.5t-44.5 18.5t-18.5 44.5zM322 668q0 26 18.5 44t44.5 18 t44 -18t18 -44t-18 -44.5t-44 -18.5t-44.5 18.5t-18.5 44.5z" />
<glyph unicode="&#xfd;" horiz-adv-x="552" d="M20 530h89l172 -447l166 447h85l-238 -641q-34 -89 -162 -89h-85v70h85q70 0 89 51l29 79h-20zM211 642l281 227l47 -52l-281 -227z" />
<glyph unicode="&#xfe;" horiz-adv-x="618" d="M71 -200v950h82v-303q30 44 78.5 69.5t107.5 25.5q105 0 171.5 -76.5t66.5 -197.5q0 -124 -66.5 -201.5t-171.5 -77.5q-125 0 -186 99v-288h-82zM153 272q0 -93 48.5 -152t124.5 -59q73 0 119 57.5t46 149.5q0 90 -46 146t-120 56q-75 0 -123.5 -55.5t-48.5 -142.5z" />
<glyph unicode="&#xff;" horiz-adv-x="552" d="M20 530h89l172 -447l166 447h85l-238 -641q-34 -89 -162 -89h-85v70h85q70 0 89 51l29 79h-20zM112 668q0 26 18.5 44t44.5 18t44 -18t18 -44t-18 -44.5t-44 -18.5t-44.5 18.5t-18.5 44.5zM318 668q0 26 18.5 44t44.5 18t44 -18t18 -44t-18 -44.5t-44 -18.5t-44.5 18.5 t-18.5 44.5z" />
<glyph unicode="&#x152;" horiz-adv-x="1183" d="M53 352q0 159 91 259t246 100q81 0 147.5 -34t109.5 -96v119h478v-77h-395v-221h355v-75h-355v-250h404v-77h-487v121q-91 -132 -257 -132q-151 0 -244 99t-93 264zM139 352q0 -131 68 -208.5t183 -77.5q117 0 185 77.5t68 208.5q0 130 -68.5 206t-184.5 76 q-115 0 -183 -76t-68 -206z" />
<glyph unicode="&#x153;" horiz-adv-x="1030" d="M41 270q0 128 73.5 200t186.5 72q80 0 138 -34.5t90 -95.5q32 63 89.5 96.5t127.5 33.5q110 0 175.5 -71t67.5 -197v-23h-411q4 -86 51.5 -138t126.5 -52q116 0 150 106h81q-18 -82 -79.5 -130t-151.5 -48q-77 0 -136 34.5t-91 96.5q-33 -64 -92 -97.5t-136 -33.5 q-124 0 -192 78.5t-68 202.5zM126 270q0 -98 50 -153.5t125 -55.5q82 0 128.5 59.5t46.5 149.5t-48 145t-127 55t-127 -55t-48 -145zM583 320h319q-11 70 -52 110t-104 40t-106.5 -39.5t-56.5 -110.5z" />
<glyph unicode="&#x178;" horiz-adv-x="651" d="M17 700h99l210 -311l209 311h99l-267 -391v-309h-84v309zM159 828q0 26 18.5 44t44.5 18t44 -18t18 -44t-18 -44.5t-44 -18.5t-44.5 18.5t-18.5 44.5zM365 828q0 26 18.5 44t44.5 18t44 -18t18 -44t-18 -44.5t-44 -18.5t-44.5 18.5t-18.5 44.5z" />
<glyph unicode="&#x2c6;" horiz-adv-x="472" d="M18 636l189 173h59l188 -172l-51 -48l-167 155l-167 -155z" />
<glyph unicode="&#x2dc;" horiz-adv-x="460" d="M45 645q0 61 27 99t71 38q30 0 61.5 -19.5t58 -39t45.5 -19.5q39 0 39 69h68q0 -63 -25 -98.5t-69 -35.5q-31 0 -64 19.5t-59.5 39t-42.5 19.5q-19 0 -30.5 -20t-11.5 -52h-68z" />
<glyph unicode="&#x2000;" horiz-adv-x="506" />
<glyph unicode="&#x2001;" horiz-adv-x="1012" />
<glyph unicode="&#x2002;" horiz-adv-x="506" />
<glyph unicode="&#x2003;" horiz-adv-x="1012" />
<glyph unicode="&#x2004;" horiz-adv-x="337" />
<glyph unicode="&#x2005;" horiz-adv-x="253" />
<glyph unicode="&#x2006;" horiz-adv-x="168" />
<glyph unicode="&#x2007;" horiz-adv-x="168" />
<glyph unicode="&#x2008;" horiz-adv-x="126" />
<glyph unicode="&#x2009;" horiz-adv-x="202" />
<glyph unicode="&#x200a;" horiz-adv-x="56" />
<glyph unicode="&#x2010;" horiz-adv-x="518" d="M45 276v70h428v-70h-428z" />
<glyph unicode="&#x2011;" horiz-adv-x="518" d="M45 276v70h428v-70h-428z" />
<glyph unicode="&#x2012;" horiz-adv-x="518" d="M45 276v70h428v-70h-428z" />
<glyph unicode="&#x2013;" horiz-adv-x="538" d="M45 276v70h448v-70h-448z" />
<glyph unicode="&#x2014;" horiz-adv-x="883" d="M45 276v70h793v-70h-793z" />
<glyph unicode="&#x2018;" horiz-adv-x="255" d="M52 437l109 334l67 -21l-105 -335z" />
<glyph unicode="&#x2019;" horiz-adv-x="255" d="M52 438l105 335l71 -22l-109 -334z" />
<glyph unicode="&#x201a;" horiz-adv-x="252" d="M27 -162l105 335l71 -22l-109 -334z" />
<glyph unicode="&#x201c;" horiz-adv-x="422" d="M52 437l109 334l67 -21l-105 -335zM219 437l109 334l67 -21l-105 -335z" />
<glyph unicode="&#x201d;" horiz-adv-x="422" d="M52 438l105 335l71 -22l-109 -334zM219 438l105 335l71 -22l-109 -334z" />
<glyph unicode="&#x201e;" horiz-adv-x="419" d="M27 -162l105 335l71 -22l-109 -334zM194 -162l105 335l71 -22l-109 -334z" />
<glyph unicode="&#x2022;" horiz-adv-x="318" d="M60 311q0 42 28.5 70.5t70.5 28.5t70.5 -28.5t28.5 -70.5t-28.5 -70.5t-70.5 -28.5t-70.5 28.5t-28.5 70.5z" />
<glyph unicode="&#x2026;" horiz-adv-x="640" d="M50 53q0 26 18 44t45 18t45 -18t18 -44q0 -27 -18 -45t-45 -18t-45 18t-18 45zM257 53q0 26 18 44t45 18t45 -18t18 -44q0 -27 -18 -45t-45 -18t-45 18t-18 45zM464 53q0 26 18 44t45 18t45 -18t18 -44q0 -27 -18 -45t-45 -18t-45 18t-18 45z" />
<glyph unicode="&#x202f;" horiz-adv-x="202" />
<glyph unicode="&#x2039;" horiz-adv-x="349" d="M45 242v74l214 214l53 -48l-204 -203l204 -203l-53 -48z" />
<glyph unicode="&#x203a;" horiz-adv-x="349" d="M37 76l204 203l-204 203l53 48l214 -214v-74l-214 -214z" />
<glyph unicode="&#x205f;" horiz-adv-x="253" />
<glyph unicode="&#x20ac;" horiz-adv-x="852" d="M28 245v64h101q-2 28 -2 43q0 21 1 31h-100v64h109q25 121 112 192.5t220 71.5t220 -74t110 -206h-87q-19 96 -83.5 149.5t-159.5 53.5q-94 0 -157 -49.5t-86 -137.5h315v-64h-325q-1 -10 -1 -31q0 -15 2 -43h324v-64h-312q23 -86 85.5 -132.5t154.5 -46.5q98 0 160.5 52 t82.5 151h87q-23 -136 -108 -208t-222 -72q-130 0 -216 69t-114 187h-111z" />
<glyph unicode="&#x2122;" horiz-adv-x="700" d="M26 651v49h274v-49h-111v-289h-52v289h-111zM325 362v338h53l111 -278l111 278h52v-338h-52v218l-87 -218h-49l-86 215v-215h-53z" />
<glyph unicode="&#xfb01;" horiz-adv-x="576" d="M29 460v70h98v74q0 71 38.5 108.5t112.5 37.5h78v-70h-78q-68 0 -68 -76v-74h299v-530h-83v460h-216v-460h-83v460h-98zM405 679q0 26 18 43.5t44 17.5t43.5 -17.5t17.5 -43.5t-17.5 -44t-43.5 -18t-44 18t-18 44z" />
<glyph unicode="&#xfb02;" horiz-adv-x="587" d="M29 460v70h98v74q0 71 38.5 108.5t112.5 37.5h238v-750h-83v680h-155q-68 0 -68 -76v-74h172v-70h-172v-460h-83v460h-98z" />
</font>
</defs>
</svg>
