<?xml version="1.0" standalone="no"?>
<!DOCTYPE svg PUBLIC "-//W3C//DTD SVG 1.1//EN" "http://www.w3.org/Graphics/SVG/1.1/DTD/svg11.dtd" >
<svg xmlns="http://www.w3.org/2000/svg" xmlns:xlink="http://www.w3.org/1999/xlink" version="1.1">
<metadata></metadata>
<defs>
<font id="pp_moriregular_italic" horiz-adv-x="718" >
<font-face units-per-em="1000" ascent="800" descent="-200" />
<missing-glyph horiz-adv-x="225" />
<glyph horiz-adv-x="0" />
<glyph horiz-adv-x="333" />
<glyph unicode="&#xd;" horiz-adv-x="600" />
<glyph unicode=" "  horiz-adv-x="225" />
<glyph unicode="&#x09;" horiz-adv-x="225" />
<glyph unicode="&#xa0;" horiz-adv-x="225" />
<glyph unicode="!" horiz-adv-x="255" d="M21 53q0 26 18 44t45 18t45 -18t18 -44q0 -27 -18 -45t-45 -18t-45 18t-18 45zM64 170l118 580h83l-118 -580h-83z" />
<glyph unicode="&#x22;" horiz-adv-x="376" d="M102 419l68 331h75l-68 -331h-75zM261 419l68 331h75l-68 -331h-75z" />
<glyph unicode="#" horiz-adv-x="762" d="M23 184l14 64h156l91 208h-196l14 64h211l88 200l69 -20l-79 -180h166l88 200l69 -20l-79 -180h140l-14 -64h-155l-92 -208h196l-14 -64h-210l-90 -204l-69 20l81 184h-166l-90 -204l-69 20l81 184h-141zM270 248h167l91 208h-166z" />
<glyph unicode="$" horiz-adv-x="630" d="M39 212h84q-7 -56 24 -92t92 -48l54 264l-19 7q-4 1 -11 4q-24 9 -38 14.5t-38 20t-37 30.5t-24 42.5t-11 58.5q0 92 68.5 145t176.5 53h9l24 116h66l-25 -123q82 -18 128 -74t38 -149h-82q6 117 -100 146l-47 -233l45 -17q35 -13 55.5 -23t47.5 -29.5t40 -49t13 -69.5 q0 -100 -72 -158.5t-193 -58.5h-19l-25 -124h-66l27 131q-97 17 -147 74.5t-38 141.5zM198 520q0 -22 7.5 -38t25 -28t30.5 -18t40 -16q5 -2 8 -3l45 218q-68 0 -112 -31t-44 -84zM304 65h7q83 0 129.5 35t46.5 95q0 43 -27 66.5t-77 41.5l-29 11z" />
<glyph unicode="%" horiz-adv-x="934" d="M91 487q0 90 52.5 157t139.5 67q58 0 92 -37.5t34 -106.5q0 -87 -52.5 -154.5t-135.5 -67.5q-58 0 -94 37.5t-36 104.5zM135 11l648 724l65 -30l-650 -725zM155 493q0 -42 19.5 -65.5t53.5 -23.5q54 0 85.5 50t31.5 111q0 41 -19 64t-53 23q-53 0 -85.5 -49.5 t-32.5 -109.5zM560 131q0 90 52.5 157t139.5 67q58 0 92 -37.5t34 -106.5q0 -87 -52.5 -154.5t-135.5 -67.5q-58 0 -94 37.5t-36 104.5zM624 137q0 -42 19.5 -65.5t53.5 -23.5q54 0 85.5 50t31.5 111q0 41 -19 64t-53 23q-53 0 -85.5 -49.5t-32.5 -109.5z" />
<glyph unicode="&#x26;" horiz-adv-x="689" d="M40 217q13 71 65 118t134 86q-45 72 -45 129q0 71 51 116t129 45q77 0 118.5 -45t26.5 -115q-11 -51 -53.5 -85t-115.5 -69l141 -199q48 79 68 192h84q-27 -157 -103 -261l73 -104l-71 -43l-59 86q-93 -79 -218 -79q-119 0 -181.5 65t-43.5 163zM122 212 q-12 -63 27.5 -104.5t120.5 -41.5q97 0 168 66l-160 232q-68 -33 -107 -67.5t-49 -84.5zM277 552q0 -41 35 -98q57 26 88.5 50t37.5 57q6 32 -13.5 54.5t-56.5 22.5q-40 0 -65.5 -24t-25.5 -62z" />
<glyph unicode="'" horiz-adv-x="217" d="M102 418l68 332h75l-68 -332h-75z" />
<glyph unicode="(" horiz-adv-x="307" d="M72 164q0 154 63.5 308.5t181.5 284.5l65 -31q-111 -120 -173 -265t-62 -295q0 -147 58 -272l-68 -24q-65 125 -65 294z" />
<glyph unicode=")" horiz-adv-x="286" d="M-57 -112q100 123 159 285t59 314q0 140 -45 255l69 15q51 -120 51 -270q0 -166 -61.5 -335.5t-165.5 -289.5z" />
<glyph unicode="*" horiz-adv-x="496" d="M70 428l175 91l-135 90l38 48l131 -87l33 163h62l-33 -164l165 86l21 -56l-163 -85l127 -85l-38 -47l-132 88l-35 -172h-62l32 159l-165 -86z" />
<glyph unicode="+" horiz-adv-x="564" d="M47 276l14 70h199l39 190h76l-39 -190h199l-14 -70h-199l-39 -190h-76l39 190h-199z" />
<glyph unicode="," horiz-adv-x="258" d="M-60 -162l173 335l73 -22l-176 -334z" />
<glyph unicode="-" horiz-adv-x="518" d="M47 276l14 70h428l-14 -70h-428z" />
<glyph unicode="." horiz-adv-x="229" d="M8 53q0 26 18 44t45 18t45 -18t18 -44q0 -27 -18 -45t-45 -18t-45 18t-18 45z" />
<glyph unicode="/" horiz-adv-x="367" d="M-59 -90l444 878l78 -21l-445 -880z" />
<glyph unicode="0" horiz-adv-x="624" d="M60 236q0 118 39.5 225t119.5 178.5t183 71.5q92 0 143.5 -63.5t51.5 -186.5q0 -86 -22.5 -168.5t-63 -151t-106.5 -110.5t-145 -42q-94 0 -147 63.5t-53 183.5zM144 247q0 -181 129 -181q72 0 129 63.5t84 151t27 175.5q0 178 -127 178q-72 0 -129 -61.5t-85 -149 t-28 -176.5z" />
<glyph unicode="1" horiz-adv-x="372" d="M74 479l17 82h12q161 0 187 129l2 10h83l-142 -700h-84l111 545q-64 -66 -174 -66h-12z" />
<glyph unicode="2" horiz-adv-x="567" d="M19 0l11 60q10 54 38 99.5t65 76t80 57.5t85.5 50t78.5 46.5t61 54.5t32 67q10 58 -22 90.5t-91 32.5q-70 0 -117.5 -44.5t-61.5 -123.5h-87q20 115 91 180t178 65q101 0 155 -58.5t38 -150.5q-11 -57 -55.5 -103.5t-102 -80t-115 -66.5t-102.5 -77.5t-57 -97.5h362 l-16 -77h-448z" />
<glyph unicode="3" horiz-adv-x="593" d="M31 223h82q-7 -76 35 -116.5t126 -40.5q80 0 128.5 40t48.5 106q0 54 -37 83.5t-102 29.5h-91l14 69h90q70 0 116 37t46 99q0 48 -32 76t-87 28q-63 0 -111.5 -35t-67.5 -106h-85q23 105 98 161.5t174 56.5q90 0 142.5 -45.5t52.5 -121.5q0 -68 -42.5 -117.5 t-116.5 -68.5q57 -15 89 -55.5t32 -96.5q0 -97 -73.5 -157t-193.5 -60q-122 0 -185 62t-50 172z" />
<glyph unicode="4" horiz-adv-x="620" d="M22 175l16 75l437 450h85l-91 -448h123l-16 -77h-122l-36 -175h-84l36 175h-348zM137 252h248l65 322z" />
<glyph unicode="5" horiz-adv-x="585" d="M38 211h84q-5 -66 30.5 -105.5t106.5 -39.5q83 0 138 58t55 145q0 58 -31 89t-90 31q-91 0 -159 -69h-90l118 380h384l-16 -77h-308l-72 -228q76 66 171 66q79 0 127.5 -48.5t48.5 -137.5q0 -123 -80 -204.5t-205 -81.5q-105 0 -163 60t-49 162z" />
<glyph unicode="6" horiz-adv-x="619" d="M62 246q0 89 24 172t68.5 148.5t114 105t152.5 39.5q97 0 151 -58.5t45 -158.5l-84 1q5 65 -27 102t-97 37q-100 0 -167.5 -76.5t-92.5 -208.5q-3 -13 -5 -35q32 65 97.5 107t143.5 42q83 0 132 -51.5t49 -141.5q0 -121 -76.5 -201t-200.5 -80q-110 0 -168.5 69 t-58.5 188zM162 192q0 -54 33 -90.5t100 -36.5q84 0 135 55.5t51 141.5q0 63 -33 96t-90 33q-86 0 -141 -61.5t-55 -137.5z" />
<glyph unicode="7" horiz-adv-x="528" d="M19 0l454 623h-370l15 77h470l-15 -77l-451 -623h-103z" />
<glyph unicode="8" horiz-adv-x="608" d="M28 163q0 74 49 129t130 81q-83 43 -83 135t71 147.5t178 55.5q95 0 150.5 -47t55.5 -123q0 -60 -35 -104.5t-98 -68.5q49 -21 76 -59t27 -90q0 -103 -80 -166.5t-211 -63.5q-105 0 -167.5 46t-62.5 128zM114 179q0 -53 39.5 -83t111.5 -30q87 0 142.5 42.5t55.5 108.5 q0 53 -40 84.5t-108 31.5q-83 0 -142 -43.5t-59 -110.5zM207 508q0 -49 36 -79.5t96 -30.5q72 0 115 36t43 94q0 50 -34.5 79t-96.5 29q-69 0 -114 -36t-45 -92z" />
<glyph unicode="9" horiz-adv-x="602" d="M36 199h85q-6 -133 129 -133q89 0 152.5 75.5t84.5 206.5q1 3 1 8.5t1 7.5q-26 -56 -79.5 -89t-122.5 -33q-91 0 -145 53t-54 142q0 117 77 195.5t194 78.5q103 0 157 -68.5t54 -196.5q0 -67 -11 -130t-36 -123t-62 -104.5t-94.5 -72t-127.5 -27.5q-99 0 -154 54t-49 156 zM170 444q0 -61 33 -95t89 -34q85 0 135 58.5t50 133.5q0 56 -31.5 92t-91.5 36q-78 0 -131 -56.5t-53 -134.5z" />
<glyph unicode=":" horiz-adv-x="230" d="M9 53q0 26 18 44t45 18t45 -18t18 -44q0 -27 -18 -45t-45 -18t-45 18t-18 45zM95 480q0 26 18 44t45 18t45 -18t18 -44q0 -27 -18 -45t-45 -18t-45 18t-18 45z" />
<glyph unicode=";" horiz-adv-x="281" d="M-52 -162l173 335l73 -22l-176 -334zM128 480q0 26 18 44t45 18t45 -18t18 -44q0 -27 -18 -45t-45 -18t-45 18t-18 45z" />
<glyph unicode="&#x3c;" horiz-adv-x="578" d="M40 238l16 82l494 232l34 -62l-461 -217l352 -205l-37 -62z" />
<glyph unicode="=" horiz-adv-x="573" d="M27 152l15 70h472l-15 -70h-472zM70 364l15 70h472l-15 -70h-472z" />
<glyph unicode="&#x3e;" horiz-adv-x="579" d="M0 68l462 217l-352 205l37 62l398 -232l-16 -82l-494 -232z" />
<glyph unicode="?" horiz-adv-x="546" d="M84 466q20 115 91 180t178 65q99 0 154 -59.5t37 -153.5q-8 -43 -33.5 -78t-57 -58t-62.5 -44.5t-55 -48t-30 -58.5l-7 -38h-81l7 38q8 45 33.5 80.5t56.5 58.5t61.5 44.5t54.5 50.5t31 65q11 58 -22 91t-90 33q-70 0 -117.5 -44.5t-61.5 -123.5h-87zM182 53q0 26 18 44 t45 18t45 -18t18 -44q0 -27 -18 -45t-45 -18t-45 18t-18 45z" />
<glyph unicode="@" horiz-adv-x="871" d="M58 209q0 124 57 231t165.5 174t244.5 67q147 0 228.5 -75.5t81.5 -212.5q0 -76 -23 -144t-72.5 -115.5t-116.5 -47.5q-42 0 -66.5 23.5t-17.5 63.5q-61 -87 -157 -87q-67 0 -102 42t-35 105q0 102 65.5 186t168.5 84q52 0 83.5 -25t39.5 -68l35 85h38l-84 -296 q-18 -63 36 -63q65 0 107.5 78t42.5 174q0 112 -65.5 173.5t-187.5 61.5q-120 0 -213.5 -59t-141.5 -151t-48 -198q0 -130 74 -195t214 -65q113 0 208 47l-11 -63q-88 -41 -207 -41q-165 0 -253 81t-88 230zM307 242q0 -44 23 -72.5t67 -28.5q53 0 98 42t64 111 q21 69 -1.5 111.5t-79.5 42.5q-74 0 -122.5 -65.5t-48.5 -140.5z" />
<glyph unicode="A" d="M-26 0l430 700h85l147 -700h-82l-42 200h-325l-123 -200h-90zM233 276h264l-67 321z" />
<glyph unicode="B" horiz-adv-x="677" d="M32 0l142 700h316q77 0 122 -38.5t45 -106.5q0 -71 -46.5 -123.5t-120.5 -72.5q56 -11 88.5 -48t32.5 -92q0 -93 -68 -156t-177 -63h-334zM132 77h253q61 0 100.5 43.5t39.5 101.5q0 49 -29.5 73t-79.5 24h-235zM196 394h230q62 0 105 43t43 103q0 83 -91 83h-241z" />
<glyph unicode="C" horiz-adv-x="758" d="M64 263q0 188 113 318t294 130q130 0 199 -72q65 -68 65 -193v-15h-83q0 203 -192 203q-93 0 -165 -51t-108.5 -132.5t-36.5 -177.5q0 -102 51 -154.5t149 -52.5q185 0 269 203h87q-100 -280 -368 -280q-129 0 -201.5 72.5t-72.5 201.5z" />
<glyph unicode="D" horiz-adv-x="717" d="M32 0l142 700h246q123 0 195.5 -69t72.5 -196q0 -85 -26.5 -162.5t-76.5 -138.5t-128 -97.5t-174 -36.5h-251zM132 77h171q134 0 216.5 106.5t82.5 245.5q0 91 -48.5 142.5t-143.5 51.5h-168z" />
<glyph unicode="E" horiz-adv-x="622" d="M32 0l142 700h478l-15 -77h-395l-44 -221h354l-16 -75h-354l-50 -250h402l-15 -77h-487z" />
<glyph unicode="F" horiz-adv-x="605" d="M32 0l142 700h477l-15 -77h-394l-46 -227h363l-15 -77h-363l-65 -319h-84z" />
<glyph unicode="G" horiz-adv-x="770" d="M64 263q0 188 113 318t294 130q130 0 199 -72q65 -68 65 -193v-15h-83q0 203 -192 203q-93 0 -165 -51t-108.5 -132.5t-36.5 -177.5q0 -102 51 -154.5t149 -52.5q88 0 154 59t84 157h-236l15 72h246q55 0 79 -27q16 -18 16 -48q0 -14 -4 -30l-51 -249h-75l49 239h-2 q-31 -122 -107.5 -186t-186.5 -64q-125 0 -196 73t-71 201z" />
<glyph unicode="H" horiz-adv-x="769" d="M32 0l142 700h84l-61 -301h430l61 301h84l-142 -700h-84l66 322h-431l-65 -322h-84z" />
<glyph unicode="I" horiz-adv-x="255" d="M32 0l142 700h84l-142 -700h-84z" />
<glyph unicode="J" horiz-adv-x="562" d="M28 187l21 100h83l-20 -100q-3 -16 -3 -30q0 -37 21 -59q29 -32 94 -32q61 0 105 32t58 100l101 502h84l-102 -504q-21 -103 -89.5 -155t-168.5 -52q-95 0 -149 53q-40 40 -40 100q0 21 5 45z" />
<glyph unicode="K" horiz-adv-x="680" d="M32 0l142 700h84l-76 -375l428 375h118l-338 -292l215 -408h-95l-184 353l-168 -144l-42 -209h-84z" />
<glyph unicode="L" horiz-adv-x="585" d="M32 0l142 700h84l-126 -623h374l-15 -77h-459z" />
<glyph unicode="M" horiz-adv-x="875" d="M32 0l142 700h100l126 -603l370 603h108l-142 -700h-84l111 547l-336 -547h-84l-115 552l-112 -552h-84z" />
<glyph unicode="N" horiz-adv-x="747" d="M32 0l142 700h91l282 -587l119 587h84l-142 -700h-93l-280 585l-119 -585h-84z" />
<glyph unicode="O" horiz-adv-x="768" d="M65 274q0 186 115.5 311.5t287.5 125.5q127 0 197.5 -76t70.5 -212q0 -185 -112.5 -309.5t-284.5 -124.5q-127 0 -200.5 75t-73.5 210zM149 281q0 -102 52.5 -158.5t147.5 -56.5q128 0 215.5 102t87.5 253q0 101 -51 157t-142 56q-132 0 -221 -101.5t-89 -251.5z" />
<glyph unicode="P" horiz-adv-x="671" d="M32 0l142 700h326q85 0 132.5 -45t47.5 -124q0 -104 -71 -179t-191 -75h-246l-56 -277h-84zM188 354h249q71 0 114.5 51.5t43.5 115.5q0 102 -106 102h-247z" />
<glyph unicode="Q" horiz-adv-x="767" d="M65 274q0 186 115.5 311.5t287.5 125.5q127 0 197.5 -76t70.5 -212q0 -114 -46 -210t-127 -154l90 -158l-64 -33l-89 155q-74 -34 -161 -34q-127 0 -200.5 75t-73.5 210zM149 281q0 -102 52.5 -158.5t147.5 -56.5q61 0 113 24l-98 170l65 33l94 -165q60 48 94.5 124.5 t34.5 168.5q0 101 -51 157t-142 56q-132 0 -221 -101.5t-89 -251.5z" />
<glyph unicode="R" horiz-adv-x="682" d="M32 0l142 700h316q82 0 131 -42.5t49 -119.5q0 -75 -49.5 -133t-127.5 -81q54 -15 63 -73l39 -251h-84l-36 236q-4 24 -19.5 38.5t-38.5 14.5h-242l-59 -289h-84zM190 364h238q66 0 112 47t46 115q0 97 -107 97h-237z" />
<glyph unicode="S" horiz-adv-x="630" d="M39 212h84q-1 -10 -1 -19q0 -59 44 -91q51 -38 145 -37q83 0 129.5 35t46.5 95q0 43 -27 66.5t-77 41.5l-109 40q-4 1 -11 4q-24 9 -38 14.5t-38 20t-37 30.5t-24 42.5t-11 58.5q0 92 68.5 145t176.5 53q110 -1 180 -59q61 -51 61 -143q0 -13 -1 -28h-82v12q0 69 -42 104 q-46 38 -122 38q-68 0 -112 -31t-44 -84q0 -10 2 -19t4 -15.5t8 -13.5t9.5 -11.5t13 -10t13.5 -8t16 -7.5t15.5 -6.5t17.5 -7t17 -6.5l102 -38q35 -13 55.5 -23t47.5 -29.5t40 -49t13 -69.5q0 -100 -72 -158.5t-193 -58.5q-134 1 -208 61q-62 51 -62 131q0 15 2 31z" />
<glyph unicode="T" horiz-adv-x="639" d="M109 623l15 77h568l-15 -77h-243l-126 -623h-84l126 623h-241z" />
<glyph unicode="U" horiz-adv-x="694" d="M73 235l94 465h84l-94 -464q-5 -27 -6 -49q-1 -51 29 -79q42 -40 125 -40.5t143.5 39.5t78.5 130l94 463h83l-94 -466q-23 -116 -103.5 -180.5t-215.5 -64.5q-120 -1 -180 67q-44 49 -44 123q0 26 6 56z" />
<glyph unicode="V" horiz-adv-x="666" d="M109 700h85l108 -584l339 584h94l-406 -700h-90z" />
<glyph unicode="W" horiz-adv-x="946" d="M109 700h84l45 -574l279 574h85l47 -570l276 570h90l-340 -700h-91l-47 575l-278 -575h-94z" />
<glyph unicode="X" horiz-adv-x="693" d="M-24 0l343 357l-185 343h93l151 -283l265 283h109l-331 -351l188 -349h-93l-155 288l-275 -288h-110z" />
<glyph unicode="Y" horiz-adv-x="651" d="M106 700h90l148 -313l272 313h107l-346 -391l-63 -309h-84l63 309z" />
<glyph unicode="Z" horiz-adv-x="617" d="M-1 0l15 77l509 546h-379l15 77h484l-15 -77l-508 -546h406l-15 -77h-512z" />
<glyph unicode="[" horiz-adv-x="359" d="M20 -128l182 892h234l-13 -64h-160l-156 -764h160l-13 -64h-234z" />
<glyph unicode="\" horiz-adv-x="355" d="M108 767l76 21l86 -878l-76 -23z" />
<glyph unicode="]" horiz-adv-x="360" d="M-54 -128l13 64h160l155 764h-160l13 64h234l-181 -892h-234z" />
<glyph unicode="^" horiz-adv-x="472" d="M74 432l210 268h79l103 -268h-81l-71 192l-148 -192h-92z" />
<glyph unicode="_" horiz-adv-x="538" d="M-25 -81l14 70h448l-14 -70h-448z" />
<glyph unicode="`" horiz-adv-x="366" d="M135 819l48 50l237 -229l-48 -50z" />
<glyph unicode="a" horiz-adv-x="563" d="M20 136q0 39 14 68t33 45.5t55.5 28.5t65 17.5t77.5 11.5q10 1 32.5 3.5t32 4t26.5 5t25 7.5t18 10.5t15.5 16t7.5 21.5q2 9 2 17q0 30 -24 52q-30 26 -93 27q-133 0 -162 -106h-81q22 87 89 132t161 45q101 0 151 -54q37 -40 37 -99q0 -21 -5 -45l-43 -213 q-3 -15 -3 -26q0 -13 4 -21q7 -16 35 -16h21l-14 -68h-22q-67 0 -89 42q-8 14 -10 36q-64 -86 -180 -86q-83 0 -129.5 40t-46.5 104zM103 141q0 -75 105 -77h2q150 0 182 151l15 70q-12 -16 -39.5 -26t-47.5 -13t-64 -8q-37 -4 -59 -8.5t-46.5 -14.5t-36 -28.5t-11.5 -45.5z " />
<glyph unicode="b" horiz-adv-x="607" d="M18 0l152 750h83l-63 -309q36 47 89.5 74t115.5 27q82 0 129 -54.5t47 -153.5q0 -136 -77.5 -240.5t-199.5 -104.5q-70 0 -116 34t-61 93l-36 -116h-63zM152 213q0 -70 35 -111t96 -41q89 0 146.5 82t57.5 184q0 143 -123 143q-94 0 -153 -77.5t-59 -179.5z" />
<glyph unicode="c" horiz-adv-x="572" d="M37 207q0 138 86 236.5t224 98.5q97 0 149 -56q44 -48 44 -130q0 -14 -1 -30h-79v13q0 131 -121 131q-95 0 -157.5 -76.5t-62.5 -179.5q0 -76 37.5 -114.5t101.5 -38.5q62 0 109.5 37.5t71.5 108.5h80q-31 -108 -101 -163t-172 -55q-96 0 -152.5 59t-56.5 159z" />
<glyph unicode="d" horiz-adv-x="573" d="M37 202q0 140 81.5 240t211.5 100q64 0 107.5 -30t60.5 -85l65 323h83l-152 -750h-64l10 97q-69 -108 -196 -108q-96 0 -151.5 56.5t-55.5 156.5zM121 216q0 -74 35.5 -114.5t103.5 -40.5q95 0 150.5 78.5t55.5 182.5q0 70 -34 109t-98 39q-94 0 -153.5 -76t-59.5 -178z " />
<glyph unicode="e" horiz-adv-x="561" d="M37 206q0 137 82 236.5t217 99.5q103 0 155 -70q37 -50 36 -128q0 -33 -6 -72l-4 -21h-396q-4 -23 -4 -44q-1 -55 25 -93q34 -53 114 -53q114 0 163 106h79q-33 -87 -98.5 -132.5t-153.5 -45.5q-97 0 -153 57.5t-56 159.5zM137 320h310v16q0 62 -27 96q-31 38 -94 38 q-65 0 -114.5 -42t-74.5 -108z" />
<glyph unicode="f" horiz-adv-x="405" d="M69 460l15 70h98l15 74q15 75 57.5 110.5t122.5 35.5h118l-14 -70h-116q-69 0 -85 -76l-15 -74h172l-15 -70h-171l-94 -460h-83l94 460h-99z" />
<glyph unicode="g" horiz-adv-x="607" d="M15 -31h79q-2 -11 -2 -21q0 -37 26 -60q32 -30 105 -30q75 0 122.5 36t60.5 106l22 115q-66 -106 -190 -106q-92 0 -145.5 54t-53.5 151q0 136 78.5 232t203.5 96q67 0 111 -35t56 -98l36 127h62l-101 -537q-39 -211 -272 -211q-101 0 -157 48q-45 38 -45 98q0 16 4 35z M123 228q0 -70 33.5 -108.5t98.5 -38.5q90 0 142.5 74.5t52.5 173.5q0 67 -32 104t-93 37q-90 0 -146 -72.5t-56 -169.5z" />
<glyph unicode="h" horiz-adv-x="568" d="M18 0l152 750h83l-58 -288q77 80 185 80q84 0 122 -54q25 -36 25 -88q0 -26 -6 -57l-69 -343h-83l69 340q5 24 5 44q-1 31 -13 52q-20 33 -82 33q-69 0 -117.5 -41t-63.5 -104l-66 -324h-83z" />
<glyph unicode="i" horiz-adv-x="220" d="M15 0l107 530h83l-107 -530h-83zM133 681q0 26 18 43.5t44 17.5t43.5 -17.5t17.5 -43.5t-17.5 -44t-43.5 -18t-44 18t-18 44z" />
<glyph unicode="j" horiz-adv-x="220" d="M-176 -200l14 70h74q76 0 93 81l117 579h83l-117 -579q-15 -73 -64 -112t-126 -39h-74zM133 681q0 26 18 43.5t44 17.5t43.5 -17.5t17.5 -43.5t-17.5 -44t-43.5 -18t-44 18t-18 44z" />
<glyph unicode="k" horiz-adv-x="544" d="M18 0l152 750h83l-96 -474l301 254h109l-231 -193l152 -337h-90l-125 284l-138 -115l-34 -169h-83z" />
<glyph unicode="l" horiz-adv-x="226" d="M18 0l152 750h83l-152 -750h-83z" />
<glyph unicode="m" horiz-adv-x="908" d="M14 0l108 530h66l-9 -80q35 43 86 67.5t107 24.5q58 0 95 -27.5t48 -78.5q35 49 89.5 77.5t115.5 28.5q84 0 122 -53q25 -35 25 -88q0 -27 -6 -58l-69 -343h-83l69 340q5 25 5 45q0 31 -12 51q-20 33 -83 33q-67 0 -116 -38.5t-61 -97.5l-67 -333h-82l69 340q5 23 5 43 q0 86 -96 86q-69 0 -117 -40.5t-60 -102.5l-66 -326h-83z" />
<glyph unicode="n" horiz-adv-x="564" d="M14 0l108 530h64l-8 -83q36 44 88.5 69.5t109.5 25.5q84 0 122 -54q25 -36 25 -88q0 -26 -6 -57l-69 -343h-83l69 340q5 24 5 44q-1 31 -13 52q-20 33 -82 33q-70 0 -119 -40.5t-62 -103.5l-66 -325h-83z" />
<glyph unicode="o" horiz-adv-x="592" d="M36 200q0 143 86.5 242.5t227.5 99.5q98 0 152 -56.5t54 -150.5q0 -146 -86.5 -246t-227.5 -100q-96 0 -151 57t-55 154zM120 213q0 -75 38 -113.5t102 -38.5q94 0 153.5 78.5t59.5 183.5q0 70 -36 108.5t-103 38.5q-95 0 -154.5 -77t-59.5 -180z" />
<glyph unicode="p" horiz-adv-x="606" d="M-24 -200l148 730h64l-9 -104q36 53 92.5 84.5t122.5 31.5q82 0 129 -54.5t47 -153.5q0 -136 -77.5 -240.5t-199.5 -104.5q-65 0 -109.5 30.5t-63.5 82.5l-61 -302h-83zM151 213q0 -70 35 -111t96 -41q89 0 146.5 82t57.5 184q0 143 -123 143q-94 0 -153 -77.5 t-59 -179.5z" />
<glyph unicode="q" horiz-adv-x="618" d="M37 202q0 140 81.5 240t211.5 100q67 0 111.5 -33.5t59.5 -94.5l36 116h64l-148 -730h-83l57 278q-69 -89 -183 -89q-96 0 -151.5 56.5t-55.5 156.5zM121 216q0 -74 35.5 -114.5t103.5 -40.5q95 0 150.5 78.5t55.5 182.5q0 70 -34 109t-98 39q-94 0 -153.5 -76 t-59.5 -178z" />
<glyph unicode="r" horiz-adv-x="372" d="M14 0l108 530h64l-9 -92q67 95 208 95h15l-17 -83h-14q-172 0 -213 -159l-59 -291h-83z" />
<glyph unicode="s" horiz-adv-x="485" d="M19 167h78q0 -5 -1 -10q0 -44 32 -69q35 -28 96 -28q57 0 89 24t32 64q0 30 -17.5 45t-57.5 31l-69 28q-30 12 -47 21t-37.5 25t-30.5 38.5t-10 52.5q0 69 52 111t139 42q92 0 143 -48q46 -43 46 -116q0 -9 -1 -17h-78v6q0 49 -29 76q-31 28 -87 28q-50 0 -78.5 -21.5 t-28.5 -56.5q0 -9 2.5 -17.5t5 -14.5t10 -12.5t10 -9t14 -8t13 -6.5t15.5 -6l13 -5l65 -26q63 -25 93 -54t30 -81q0 -74 -55 -119t-151 -45q-99 -1 -155 47q-47 40 -47 106q0 12 2 25z" />
<glyph unicode="t" horiz-adv-x="384" d="M69 460l15 70h97l37 181h83l-37 -181h144l-15 -70h-143l-63 -309q-4 -19 -4 -33q1 -21 9 -31q14 -17 54 -17h59l-14 -70h-54q-81 0 -115 38q-23 27 -23 71q0 19 5 42l63 309h-98z" />
<glyph unicode="u" horiz-adv-x="559" d="M42 184l70 346h82l-69 -343q-4 -19 -4 -36q-1 -35 17 -57q26 -33 86 -33q65 0 109.5 39t61.5 100l67 330h83l-108 -530h-64l8 82q-61 -93 -176 -93q-91 0 -135 55q-32 40 -33 95q0 22 5 45z" />
<glyph unicode="v" horiz-adv-x="569" d="M74 530h85l86 -432l262 432h96l-329 -530h-87z" />
<glyph unicode="w" horiz-adv-x="761" d="M74 530h83l34 -422l203 422h74l31 -422l206 422h90l-265 -530h-91l-30 404l-194 -404h-92z" />
<glyph unicode="x" horiz-adv-x="535" d="M-28 0l251 268l-134 262h86l102 -205l185 205h101l-249 -271l135 -259h-87l-102 204l-186 -204h-102z" />
<glyph unicode="y" horiz-adv-x="558" d="M-47 -200l14 70h85q41 0 62.5 12.5t36.5 38.5l45 79h-20l-102 530h84l82 -454l261 454h91l-368 -641q-28 -50 -64 -69.5t-122 -19.5h-85z" />
<glyph unicode="z" horiz-adv-x="505" d="M-7 0l15 75l384 380h-297l15 75h398l-15 -75l-384 -380h310l-15 -75h-411z" />
<glyph unicode="{" horiz-adv-x="363" d="M42 285l14 66q39 0 65.5 19.5t33.5 54.5l40 197q14 71 55.5 106.5t121.5 35.5h68l-13 -64h-68q-41 0 -61.5 -19t-28.5 -59l-40 -197q-8 -41 -34 -70t-63 -37q33 -8 47.5 -34t7.5 -64l-42 -207q-15 -77 58 -77h68l-13 -64h-68q-70 0 -101 37t-18 104l42 207 q6 30 -12.5 47.5t-58.5 17.5z" />
<glyph unicode="|" horiz-adv-x="264" d="M13 -115l176 865h84l-176 -865h-84z" />
<glyph unicode="}" horiz-adv-x="364" d="M-54 -128l13 64h68q74 0 89 77l43 207q8 38 33.5 66t60.5 35q-70 18 -53 104l40 197q9 42 -2 60t-56 18h-68l13 64h68q77 0 105 -36t14 -106l-40 -197q-7 -35 11.5 -54.5t57.5 -19.5l-13 -66q-40 0 -65.5 -17.5t-31.5 -47.5l-43 -207q-14 -71 -54 -106t-122 -35h-68z" />
<glyph unicode="~" horiz-adv-x="575" d="M35 213q11 84 52.5 128.5t95.5 44.5q33 0 66 -18t55.5 -40t51 -40t52.5 -18q56 0 68 95h73q-23 -170 -136 -170q-35 0 -69 18t-57 40t-51.5 40t-52.5 18q-62 0 -76 -98h-72z" />
<glyph unicode="&#xa1;" horiz-adv-x="255" d="M-13 -218l118 580h83l-118 -580h-83zM108 479q0 27 18 45t45 18t45 -18t18 -45q0 -26 -18 -44t-45 -18t-45 18t-18 44z" />
<glyph unicode="&#xa2;" horiz-adv-x="572" d="M54 291q0 130 76.5 226t202.5 108l24 117h66l-24 -118q82 -10 123.5 -65t33.5 -149h-79q6 126 -93 142l-83 -405q53 7 93.5 44t61.5 100h80q-60 -205 -250 -217l-25 -125h-66l26 127q-78 13 -122.5 70t-44.5 145zM136 298q0 -126 100 -149l82 401q-81 -15 -131.5 -87.5 t-50.5 -164.5z" />
<glyph unicode="&#xa3;" horiz-adv-x="631" d="M-8 0l15 77q82 0 126 36.5t44 100.5q0 33 -11 79h-115l15 74h80q-16 59 -16 106q0 108 73 173t190 65q102 0 157.5 -54.5t46.5 -169.5h-84q2 80 -31 113.5t-97 33.5q-79 0 -122.5 -42.5t-43.5 -115.5q0 -46 18 -109h214l-16 -74h-179q8 -35 8 -69q0 -54 -32 -94.5 t-83 -52.5h222q89 0 105 84l20 101h80l-20 -101q-17 -83 -63 -122t-132 -39h-369z" />
<glyph unicode="&#xa4;" horiz-adv-x="566" d="M13 109l98 81q-17 32 -17 76q0 97 65 165l-64 80l42 33l63 -79q55 37 126 37t112 -37l94 79l38 -38l-100 -82q17 -36 17 -81q0 -93 -62 -158l63 -80l-42 -34l-63 80q-56 -36 -129 -36q-67 0 -109 34l-94 -78zM170 280q0 -46 25.5 -71t70.5 -25q64 0 104.5 44.5 t40.5 105.5q0 47 -26 73t-70 26q-61 0 -103 -45.5t-42 -107.5z" />
<glyph unicode="&#xa5;" horiz-adv-x="651" d="M44 107l13 64h208l15 74h-207l13 64h207l-187 391h90l148 -313l272 313h107l-346 -391h210l-13 -64h-210l-15 -74h209l-13 -64h-209l-22 -107h-84l22 107h-208z" />
<glyph unicode="&#xa6;" horiz-adv-x="265" d="M13 -115l77 380h84l-77 -380h-84zM112 370l77 380h84l-77 -380h-84z" />
<glyph unicode="&#xa7;" horiz-adv-x="595" d="M44 67h78q-4 -44 29.5 -70.5t93.5 -26.5q58 0 92 24.5t34 66.5q0 28 -17.5 42.5t-57.5 30.5l-69 28q-31 13 -48.5 21.5t-38 24t-29.5 36t-9 47.5q0 101 133 154q-73 39 -73 111q0 70 56 112.5t144 42.5q91 0 138 -45t42 -126h-78q3 47 -25.5 73.5t-82.5 26.5 q-51 0 -83.5 -22.5t-32.5 -58.5q0 -9 2.5 -17t5 -13.5t9.5 -11.5l10.5 -9t14 -8t13 -6l15 -6t13.5 -5l65 -26q63 -25 93 -52.5t30 -73.5q0 -52 -37 -92.5t-98 -62.5q75 -38 75 -110q0 -76 -57 -121.5t-154 -45.5t-151 46t-45 122zM180 305q0 -10 2.5 -19t5 -15t9.5 -12 t10.5 -9.5t13.5 -8.5t13.5 -6t15 -5.5t13.5 -5.5l70 -28q46 24 72 56.5t26 66.5q0 29 -17.5 43.5t-57.5 30.5l-74 30q-102 -46 -102 -118z" />
<glyph unicode="&#xa8;" horiz-adv-x="403" d="M118 668q0 26 18.5 44t44.5 18t44 -18t18 -44t-18 -44.5t-44 -18.5t-44.5 18.5t-18.5 44.5zM324 668q0 26 18.5 44t44.5 18t44 -18t18 -44t-18 -44.5t-44 -18.5t-44.5 18.5t-18.5 44.5z" />
<glyph unicode="&#xa9;" horiz-adv-x="867" d="M65 262q0 127 57 236t163 175.5t237 66.5q147 0 230 -81t83 -230q0 -123 -54.5 -229t-161 -173t-243.5 -67q-141 0 -226 80.5t-85 221.5zM128 276q0 -122 67 -190t188 -68q173 0 281 120.5t108 286.5q0 120 -66 188.5t-186 68.5q-109 0 -200 -57t-141.5 -150t-50.5 -199z M272 310q0 93 61 162t156 69q69 0 104 -39t28 -110h-58q2 45 -19.5 69.5t-62.5 24.5q-63 0 -104.5 -52.5t-41.5 -117.5q0 -48 24 -74.5t67 -26.5q41 0 73 24t47 71h59q-21 -72 -72.5 -111t-117.5 -39t-104.5 40.5t-38.5 109.5z" />
<glyph unicode="&#xaa;" horiz-adv-x="452" d="M77 416q0 29 10 50t24 33t41 20.5t48 12.5t57 8q69 10 90 18.5t25 28.5q6 31 -17.5 48t-66.5 17q-95 0 -115 -71h-67q16 63 69 96.5t121 33.5q76 0 113.5 -39t24.5 -105l-29 -141q-7 -25 -1 -39.5t28 -14.5h16l-12 -58h-17q-45 0 -65 27q-9 14 -12 34q-44 -66 -132 -66 q-61 0 -97 29.5t-36 77.5zM143 422q0 -25 20.5 -39.5t54.5 -15.5q53 -1 88 26t44 76l10 52q-19 -25 -110 -37q-69 -9 -86 -20q-21 -14 -21 -42z" />
<glyph unicode="&#xab;" horiz-adv-x="566" d="M40 242l16 74l257 214l53 -48l-257 -212l155 -194l-53 -48zM247 242l16 74l257 214l53 -48l-257 -212l155 -194l-53 -48z" />
<glyph unicode="&#xac;" horiz-adv-x="573" d="M43 256l14 70h468l-62 -309h-78l48 239h-390z" />
<glyph unicode="&#xad;" horiz-adv-x="518" d="M47 276l14 70h428l-14 -70h-428z" />
<glyph unicode="&#xae;" horiz-adv-x="606" d="M81 424q0 136 89 227t224 91q99 0 157.5 -59t58.5 -155q0 -141 -85 -230t-220 -89q-103 0 -163.5 58.5t-60.5 156.5zM138 430q0 -77 46 -122t129 -45q108 0 173.5 72.5t65.5 189.5q0 77 -44 120t-123 43q-106 0 -176.5 -74t-70.5 -184zM220 355l50 242h131q31 0 49.5 -16 t18.5 -42q0 -28 -18.5 -49.5t-46.5 -29.5q26 -8 29 -32l9 -73h-49l-7 64q-2 17 -22 17h-77l-17 -81h-50zM296 479h82q18 0 29.5 14t11.5 31q0 28 -27 28h-81z" />
<glyph unicode="&#xaf;" horiz-adv-x="414" d="M100 636l14 67h364l-14 -67h-364z" />
<glyph unicode="&#xb0;" horiz-adv-x="368" d="M92 517q0 72 51 123.5t125 51.5q56 0 88.5 -32.5t32.5 -89.5q0 -72 -48 -122.5t-124 -50.5q-59 0 -92 32.5t-33 87.5zM154 526q0 -33 18.5 -52.5t51.5 -19.5q45 0 74.5 33t29.5 77q0 32 -18 51.5t-51 19.5q-45 0 -75 -32.5t-30 -76.5z" />
<glyph unicode="&#xb1;" horiz-adv-x="602" d="M3 33l14 70h502l-14 -70h-502zM59 310l14 70h213l32 156h76l-32 -156h213l-14 -70h-213l-32 -156h-76l32 156h-213z" />
<glyph unicode="&#xb2;" horiz-adv-x="384" d="M98 414l6 33q8 44 34 75.5t58 48.5t63.5 31.5t55 34t28.5 45.5q6 32 -11 50t-46 18q-65 0 -85 -69h-66q15 62 56 95t100 33q62 0 94 -39t23 -93q-7 -40 -39.5 -70t-69 -45.5t-72.5 -38.5t-48 -50h201l-11 -59h-271z" />
<glyph unicode="&#xb3;" horiz-adv-x="377" d="M96 538h65q-4 -35 15.5 -55.5t60.5 -20.5q34 0 58.5 17.5t24.5 53.5q0 52 -64 52h-51l11 54h48q32 0 52.5 18.5t20.5 45.5q0 22 -15 35.5t-40 13.5q-69 0 -84 -69h-67q13 61 55.5 93.5t100.5 32.5q53 0 83.5 -26t30.5 -68q0 -37 -22 -64t-60 -37q31 -10 48.5 -34 t17.5 -54q0 -53 -43 -87t-110 -34q-68 0 -105.5 35t-30.5 98z" />
<glyph unicode="&#xb4;" horiz-adv-x="369" d="M99 642l310 215l48 -52l-310 -215z" />
<glyph unicode="&#xb6;" horiz-adv-x="602" d="M82 445q0 109 78 182t194 73h247l-164 -803h-79l150 734h-77l-150 -734h-79l78 380h-12q-84 0 -135 43.5t-51 124.5z" />
<glyph unicode="&#xb7;" horiz-adv-x="249" d="M71 311q0 26 18 44t45 18t45 -18t18 -44q0 -27 -18 -45t-45 -18t-45 18t-18 45z" />
<glyph unicode="&#xb8;" horiz-adv-x="161" d="M-72 -199l88 211l69 -12l-89 -212z" />
<glyph unicode="&#xb9;" horiz-adv-x="279" d="M112 664l13 68h17q82 0 92 62l1 6h68l-78 -386h-68l58 284q-30 -34 -86 -34h-17z" />
<glyph unicode="&#xba;" horiz-adv-x="453" d="M86 460q0 105 63.5 178t165.5 73q72 0 112 -41.5t40 -109.5q0 -107 -63.5 -181t-167.5 -74q-69 0 -109.5 42t-40.5 113zM154 471q0 -52 25.5 -79.5t67.5 -27.5q66 0 109 56.5t43 129.5q0 48 -25 75t-71 27q-67 0 -108 -54.5t-41 -126.5z" />
<glyph unicode="&#xbb;" horiz-adv-x="555" d="M-1 76l257 212l-155 194l53 48l171 -214l-16 -74l-257 -214zM194 76l257 212l-155 194l53 48l171 -214l-16 -74l-257 -214z" />
<glyph unicode="&#xbc;" horiz-adv-x="777" d="M29 0l659 735l66 -31l-659 -735zM92 564l13 68h17q82 0 92 62l1 6h68l-78 -386h-68l58 284q-30 -34 -86 -34h-17zM403 79l13 66l232 241h68l-51 -250h60l-11 -57h-60l-16 -79h-68l16 79h-183zM477 136h120l32 156z" />
<glyph unicode="&#xbd;" horiz-adv-x="856" d="M29 0l659 735l66 -31l-659 -735zM92 564l13 68h17q82 0 92 62l1 6h68l-78 -386h-68l58 284q-30 -34 -86 -34h-17zM485 0l6 33q8 44 34 75.5t58 48.5t63.5 31.5t55 34t28.5 45.5q6 32 -11 50t-46 18q-65 0 -85 -69h-66q15 62 56 95t100 33q62 0 94 -39t23 -93 q-7 -40 -39.5 -70t-69 -45.5t-72.5 -38.5t-48 -50h201l-11 -59h-271z" />
<glyph unicode="&#xbe;" horiz-adv-x="886" d="M65 438h65q-4 -35 15.5 -55.5t60.5 -20.5q34 0 58.5 17.5t24.5 53.5q0 52 -64 52h-51l11 54h48q32 0 52.5 18.5t20.5 45.5q0 22 -15 35.5t-40 13.5q-69 0 -84 -69h-67q13 61 55.5 93.5t100.5 32.5q53 0 83.5 -26t30.5 -68q0 -37 -22 -64t-60 -37q31 -10 48.5 -34 t17.5 -54q0 -53 -43 -87t-110 -34q-68 0 -105.5 35t-30.5 98zM138 0l659 735l66 -31l-659 -735zM512 79l13 66l232 241h68l-51 -250h60l-11 -57h-60l-16 -79h-68l16 79h-183zM586 136h120l32 156z" />
<glyph unicode="&#xbf;" horiz-adv-x="546" d="M2 34q8 43 33.5 78t57 58t62.5 44.5t55 48t30 58.5l7 38h81l-7 -38q-8 -45 -33.5 -80.5t-56.5 -58.5t-61.5 -44.5t-54.5 -50.5t-31 -65q-11 -58 22 -91t90 -33q70 0 117.5 44.5t61.5 123.5h87q-20 -115 -91 -180t-178 -65q-99 0 -154 59.5t-37 153.5zM238 479q0 27 18 45 t45 18t45 -18t18 -45q0 -26 -18 -44t-45 -18t-45 18t-18 44z" />
<glyph unicode="&#xc0;" d="M-26 0l430 700h85l147 -700h-82l-42 200h-325l-123 -200h-90zM233 276h264l-67 321zM238 969l48 50l237 -229l-48 -50z" />
<glyph unicode="&#xc1;" d="M-26 0l430 700h85l147 -700h-82l-42 200h-325l-123 -200h-90zM233 276h264l-67 321zM388 792l310 215l47 -52l-310 -215z" />
<glyph unicode="&#xc2;" d="M-26 0l430 700h85l147 -700h-82l-42 200h-325l-123 -200h-90zM233 276h264l-67 321zM262 799l208 160h59l151 -170l-54 -42l-130 148l-189 -148z" />
<glyph unicode="&#xc3;" d="M-26 0l430 700h85l147 -700h-82l-42 200h-325l-123 -200h-90zM233 276h264l-67 321zM282 785q5 62 35.5 99.5t75.5 37.5q38 0 91 -39t80 -39q44 0 46 69h65q-2 -65 -30 -99.5t-73 -34.5q-33 0 -65.5 19.5t-59 39t-46.5 19.5q-47 0 -54 -72h-65z" />
<glyph unicode="&#xc4;" d="M-26 0l430 700h85l147 -700h-82l-42 200h-325l-123 -200h-90zM233 276h264l-67 321zM307 828q0 26 18.5 44t44.5 18t44 -18t18 -44t-18 -44.5t-44 -18.5t-44.5 18.5t-18.5 44.5zM513 828q0 26 18.5 44t44.5 18t44 -18t18 -44t-18 -44.5t-44 -18.5t-44.5 18.5t-18.5 44.5z " />
<glyph unicode="&#xc5;" d="M-26 0l430 700h85l147 -700h-82l-42 200h-325l-123 -200h-90zM233 276h264l-67 321zM370 842q0 41 28.5 68t71.5 27t71.5 -27t28.5 -68t-28.5 -68t-71.5 -27t-71.5 27t-28.5 68zM420 842q0 -22 14 -36t36 -14t36 14t14 36t-14 36t-36 14t-36 -14t-14 -36z" />
<glyph unicode="&#xc6;" horiz-adv-x="966" d="M-26 0l406 700h616l-15 -77h-395l-44 -221h354l-16 -75h-354l-50 -250h402l-15 -77h-487l41 200h-238l-116 -200h-89zM223 276h209l70 344h-79z" />
<glyph unicode="&#xc7;" horiz-adv-x="758" d="M64 263q0 188 113 318t294 130q130 0 199 -72t65 -208h-83q0 203 -192 203q-93 0 -165 -51t-108.5 -132.5t-36.5 -177.5q0 -102 51 -154.5t149 -52.5q185 0 269 203h87q-93 -261 -332 -279l-85 -202l-68 13l79 190q-112 10 -174 81.5t-62 190.5z" />
<glyph unicode="&#xc8;" horiz-adv-x="622" d="M32 0l142 700h478l-15 -77h-395l-44 -221h354l-16 -75h-354l-50 -250h402l-15 -77h-487zM207 969l48 50l237 -229l-48 -50z" />
<glyph unicode="&#xc9;" horiz-adv-x="622" d="M32 0l142 700h478l-15 -77h-395l-44 -221h354l-16 -75h-354l-50 -250h402l-15 -77h-487zM357 792l310 215l47 -52l-310 -215z" />
<glyph unicode="&#xca;" horiz-adv-x="622" d="M32 0l142 700h478l-15 -77h-395l-44 -221h354l-16 -75h-354l-50 -250h402l-15 -77h-487zM231 799l208 160h59l151 -170l-54 -42l-130 148l-189 -148z" />
<glyph unicode="&#xcb;" horiz-adv-x="622" d="M32 0l142 700h478l-15 -77h-395l-44 -221h354l-16 -75h-354l-50 -250h402l-15 -77h-487zM276 828q0 26 18.5 44t44.5 18t44 -18t18 -44t-18 -44.5t-44 -18.5t-44.5 18.5t-18.5 44.5zM482 828q0 26 18.5 44t44.5 18t44 -18t18 -44t-18 -44.5t-44 -18.5t-44.5 18.5 t-18.5 44.5z" />
<glyph unicode="&#xcc;" horiz-adv-x="255" d="M7 969l48 50l237 -229l-48 -50zM32 0l142 700h84l-142 -700h-84z" />
<glyph unicode="&#xcd;" horiz-adv-x="255" d="M32 0l142 700h84l-142 -700h-84zM157 792l310 215l47 -52l-310 -215z" />
<glyph unicode="&#xce;" horiz-adv-x="255" d="M31 799l208 160h59l151 -170l-54 -42l-130 148l-189 -148zM32 0l142 700h84l-142 -700h-84z" />
<glyph unicode="&#xcf;" horiz-adv-x="255" d="M32 0l142 700h84l-142 -700h-84zM76 828q0 26 18.5 44t44.5 18t44 -18t18 -44t-18 -44.5t-44 -18.5t-44.5 18.5t-18.5 44.5zM282 828q0 26 18.5 44t44.5 18t44 -18t18 -44t-18 -44.5t-44 -18.5t-44.5 18.5t-18.5 44.5z" />
<glyph unicode="&#xd0;" horiz-adv-x="755" d="M13 322l14 67h122l63 311h246q123 0 195.5 -69t72.5 -196q0 -85 -26.5 -162.5t-76.5 -138.5t-128 -97.5t-174 -36.5h-251l65 322h-122zM170 77h171q134 0 216.5 106.5t82.5 245.5q0 91 -48.5 142.5t-143.5 51.5h-168l-47 -234h218l-14 -67h-218z" />
<glyph unicode="&#xd1;" horiz-adv-x="747" d="M32 0l142 700h91l282 -587l119 587h84l-142 -700h-93l-280 585l-119 -585h-84zM297 785q5 62 35.5 99.5t75.5 37.5q38 0 91 -39t80 -39q44 0 46 69h65q-2 -65 -30 -99.5t-73 -34.5q-33 0 -65.5 19.5t-59 39t-46.5 19.5q-47 0 -54 -72h-65z" />
<glyph unicode="&#xd2;" horiz-adv-x="768" d="M65 274q0 186 115.5 311.5t287.5 125.5q127 0 197.5 -76t70.5 -212q0 -185 -112.5 -309.5t-284.5 -124.5q-127 0 -200.5 75t-73.5 210zM149 281q0 -102 52.5 -158.5t147.5 -56.5q128 0 215.5 102t87.5 253q0 101 -51 157t-142 56q-132 0 -221 -101.5t-89 -251.5zM258 969 l48 50l237 -229l-48 -50z" />
<glyph unicode="&#xd3;" horiz-adv-x="768" d="M65 274q0 186 115.5 311.5t287.5 125.5q127 0 197.5 -76t70.5 -212q0 -185 -112.5 -309.5t-284.5 -124.5q-127 0 -200.5 75t-73.5 210zM149 281q0 -102 52.5 -158.5t147.5 -56.5q128 0 215.5 102t87.5 253q0 101 -51 157t-142 56q-132 0 -221 -101.5t-89 -251.5zM408 792 l310 215l47 -52l-310 -215z" />
<glyph unicode="&#xd4;" horiz-adv-x="768" d="M65 274q0 186 115.5 311.5t287.5 125.5q127 0 197.5 -76t70.5 -212q0 -185 -112.5 -309.5t-284.5 -124.5q-127 0 -200.5 75t-73.5 210zM149 281q0 -102 52.5 -158.5t147.5 -56.5q128 0 215.5 102t87.5 253q0 101 -51 157t-142 56q-132 0 -221 -101.5t-89 -251.5zM282 799 l208 160h59l151 -170l-54 -42l-130 148l-189 -148z" />
<glyph unicode="&#xd5;" horiz-adv-x="768" d="M65 274q0 186 115.5 311.5t287.5 125.5q127 0 197.5 -76t70.5 -212q0 -185 -112.5 -309.5t-284.5 -124.5q-127 0 -200.5 75t-73.5 210zM149 281q0 -102 52.5 -158.5t147.5 -56.5q128 0 215.5 102t87.5 253q0 101 -51 157t-142 56q-132 0 -221 -101.5t-89 -251.5zM302 785 q5 62 35.5 99.5t75.5 37.5q38 0 91 -39t80 -39q44 0 46 69h65q-2 -65 -30 -99.5t-73 -34.5q-33 0 -65.5 19.5t-59 39t-46.5 19.5q-47 0 -54 -72h-65z" />
<glyph unicode="&#xd6;" horiz-adv-x="768" d="M65 274q0 186 115.5 311.5t287.5 125.5q127 0 197.5 -76t70.5 -212q0 -185 -112.5 -309.5t-284.5 -124.5q-127 0 -200.5 75t-73.5 210zM149 281q0 -102 52.5 -158.5t147.5 -56.5q128 0 215.5 102t87.5 253q0 101 -51 157t-142 56q-132 0 -221 -101.5t-89 -251.5zM327 828 q0 26 18.5 44t44.5 18t44 -18t18 -44t-18 -44.5t-44 -18.5t-44.5 18.5t-18.5 44.5zM533 828q0 26 18.5 44t44.5 18t44 -18t18 -44t-18 -44.5t-44 -18.5t-44.5 18.5t-18.5 44.5z" />
<glyph unicode="&#xd7;" horiz-adv-x="523" d="M12 125l201 167l-133 166l52 47l134 -169l207 172l49 -50l-212 -176l127 -160l-52 -47l-129 162l-195 -162z" />
<glyph unicode="&#xd8;" horiz-adv-x="768" d="M-9 -26l122 122q-48 71 -48 178q0 186 115.5 311.5t287.5 125.5q117 0 189 -67l111 112l43 -33l-120 -121q45 -73 45 -179q0 -185 -112.5 -309.5t-284.5 -124.5q-119 0 -191 66l-114 -114zM149 281q0 -72 26 -121l421 423q-51 51 -137 51q-132 0 -221 -101.5t-89 -251.5z M208 116q52 -50 141 -50q128 0 215.5 102t87.5 253q0 68 -24 118z" />
<glyph unicode="&#xd9;" horiz-adv-x="694" d="M73 235l94 465h84l-94 -464q-18 -88 23.5 -128.5t124.5 -40.5t143.5 40t78.5 130l94 463h83l-94 -466q-23 -116 -103.5 -180.5t-215.5 -64.5q-120 0 -180 67.5t-38 178.5zM227 969l48 50l237 -229l-48 -50z" />
<glyph unicode="&#xda;" horiz-adv-x="694" d="M73 235l94 465h84l-94 -464q-18 -88 23.5 -128.5t124.5 -40.5t143.5 40t78.5 130l94 463h83l-94 -466q-23 -116 -103.5 -180.5t-215.5 -64.5q-120 0 -180 67.5t-38 178.5zM377 792l310 215l47 -52l-310 -215z" />
<glyph unicode="&#xdb;" horiz-adv-x="694" d="M73 235l94 465h84l-94 -464q-18 -88 23.5 -128.5t124.5 -40.5t143.5 40t78.5 130l94 463h83l-94 -466q-23 -116 -103.5 -180.5t-215.5 -64.5q-120 0 -180 67.5t-38 178.5zM251 799l208 160h59l151 -170l-54 -42l-130 148l-189 -148z" />
<glyph unicode="&#xdc;" horiz-adv-x="694" d="M73 235l94 465h84l-94 -464q-18 -88 23.5 -128.5t124.5 -40.5t143.5 40t78.5 130l94 463h83l-94 -466q-23 -116 -103.5 -180.5t-215.5 -64.5q-120 0 -180 67.5t-38 178.5zM296 828q0 26 18.5 44t44.5 18t44 -18t18 -44t-18 -44.5t-44 -18.5t-44.5 18.5t-18.5 44.5z M502 828q0 26 18.5 44t44.5 18t44 -18t18 -44t-18 -44.5t-44 -18.5t-44.5 18.5t-18.5 44.5z" />
<glyph unicode="&#xdd;" horiz-adv-x="651" d="M106 700h90l148 -313l272 313h107l-346 -391l-63 -309h-84l63 309zM347 792l310 215l47 -52l-310 -215z" />
<glyph unicode="&#xde;" horiz-adv-x="671" d="M32 0l142 700h84l-27 -135h241q85 0 132.5 -45t47.5 -124q0 -104 -71 -179t-191 -75h-245l-29 -142h-84zM160 219h249q71 0 114.5 51.5t43.5 115.5q0 102 -106 102h-246z" />
<glyph unicode="&#xdf;" horiz-adv-x="583" d="M17 0l102 500q22 106 88 158.5t161 52.5q85 0 136.5 -45t51.5 -119t-49.5 -125.5t-126.5 -62.5q65 -12 102 -52t37 -107q0 -93 -68 -152t-177 -59q-52 0 -106 16l15 74q45 -19 93 -19q74 0 117.5 41t43.5 108q0 55 -32.5 84.5t-90.5 29.5h-49l14 72h49q63 0 104 40 t41 100q0 49 -29.5 76.5t-82.5 27.5q-60 0 -103.5 -35.5t-57.5 -104.5l-100 -499h-83z" />
<glyph unicode="&#xe0;" horiz-adv-x="563" d="M20 136q0 39 14 68t33 45.5t55.5 28.5t65 17.5t77.5 11.5q10 1 32.5 3.5t32 4t26.5 5t25 7.5t18 10.5t15.5 16t7.5 21.5q8 43 -22.5 69.5t-92.5 26.5q-133 0 -162 -106h-81q22 87 89 132t161 45q101 0 151 -54t32 -144l-43 -213q-6 -32 1 -47.5t35 -15.5h21l-14 -68h-22 q-67 0 -89 42q-8 14 -10 36q-64 -86 -180 -86q-83 0 -129.5 40t-46.5 104zM103 141q0 -75 105 -77q152 -1 184 151l15 70q-12 -16 -39.5 -26t-47.5 -13t-64 -8q-37 -4 -59 -8.5t-46.5 -14.5t-36 -28.5t-11.5 -45.5zM103 819l48 50l237 -229l-48 -50z" />
<glyph unicode="&#xe1;" horiz-adv-x="563" d="M20 136q0 39 14 68t33 45.5t55.5 28.5t65 17.5t77.5 11.5q10 1 32.5 3.5t32 4t26.5 5t25 7.5t18 10.5t15.5 16t7.5 21.5q8 43 -22.5 69.5t-92.5 26.5q-133 0 -162 -106h-81q22 87 89 132t161 45q101 0 151 -54t32 -144l-43 -213q-6 -32 1 -47.5t35 -15.5h21l-14 -68h-22 q-67 0 -89 42q-8 14 -10 36q-64 -86 -180 -86q-83 0 -129.5 40t-46.5 104zM103 141q0 -75 105 -77q152 -1 184 151l15 70q-12 -16 -39.5 -26t-47.5 -13t-64 -8q-37 -4 -59 -8.5t-46.5 -14.5t-36 -28.5t-11.5 -45.5zM252 642l310 215l48 -52l-310 -215z" />
<glyph unicode="&#xe2;" horiz-adv-x="563" d="M20 136q0 39 14 68t33 45.5t55.5 28.5t65 17.5t77.5 11.5q10 1 32.5 3.5t32 4t26.5 5t25 7.5t18 10.5t15.5 16t7.5 21.5q8 43 -22.5 69.5t-92.5 26.5q-133 0 -162 -106h-81q22 87 89 132t161 45q101 0 151 -54t32 -144l-43 -213q-6 -32 1 -47.5t35 -15.5h21l-14 -68h-22 q-67 0 -89 42q-8 14 -10 36q-64 -86 -180 -86q-83 0 -129.5 40t-46.5 104zM103 141q0 -75 105 -77q152 -1 184 151l15 70q-12 -16 -39.5 -26t-47.5 -13t-64 -8q-37 -4 -59 -8.5t-46.5 -14.5t-36 -28.5t-11.5 -45.5zM110 636l224 173h59l161 -181l-58 -39l-136 156l-199 -156 z" />
<glyph unicode="&#xe3;" horiz-adv-x="563" d="M20 136q0 39 14 68t33 45.5t55.5 28.5t65 17.5t77.5 11.5q10 1 32.5 3.5t32 4t26.5 5t25 7.5t18 10.5t15.5 16t7.5 21.5q8 43 -22.5 69.5t-92.5 26.5q-133 0 -162 -106h-81q22 87 89 132t161 45q101 0 151 -54t32 -144l-43 -213q-6 -32 1 -47.5t35 -15.5h21l-14 -68h-22 q-67 0 -89 42q-8 14 -10 36q-64 -86 -180 -86q-83 0 -129.5 40t-46.5 104zM103 141q0 -75 105 -77q152 -1 184 151l15 70q-12 -16 -39.5 -26t-47.5 -13t-64 -8q-37 -4 -59 -8.5t-46.5 -14.5t-36 -28.5t-11.5 -45.5zM149 645q5 62 35.5 99.5t75.5 37.5q38 0 91 -39t80 -39 q44 0 46 69h65q-2 -65 -30 -99.5t-73 -34.5q-33 0 -65.5 19.5t-59 39t-46.5 19.5q-47 0 -54 -72h-65z" />
<glyph unicode="&#xe4;" horiz-adv-x="563" d="M20 136q0 39 14 68t33 45.5t55.5 28.5t65 17.5t77.5 11.5q10 1 32.5 3.5t32 4t26.5 5t25 7.5t18 10.5t15.5 16t7.5 21.5q8 43 -22.5 69.5t-92.5 26.5q-133 0 -162 -106h-81q22 87 89 132t161 45q101 0 151 -54t32 -144l-43 -213q-6 -32 1 -47.5t35 -15.5h21l-14 -68h-22 q-67 0 -89 42q-8 14 -10 36q-64 -86 -180 -86q-83 0 -129.5 40t-46.5 104zM103 141q0 -75 105 -77q152 -1 184 151l15 70q-12 -16 -39.5 -26t-47.5 -13t-64 -8q-37 -4 -59 -8.5t-46.5 -14.5t-36 -28.5t-11.5 -45.5zM170 668q0 26 18.5 44t44.5 18t44 -18t18 -44t-18 -44.5 t-44 -18.5t-44.5 18.5t-18.5 44.5zM376 668q0 26 18.5 44t44.5 18t44 -18t18 -44t-18 -44.5t-44 -18.5t-44.5 18.5t-18.5 44.5z" />
<glyph unicode="&#xe5;" horiz-adv-x="563" d="M20 136q0 39 14 68t33 45.5t55.5 28.5t65 17.5t77.5 11.5q10 1 32.5 3.5t32 4t26.5 5t25 7.5t18 10.5t15.5 16t7.5 21.5q8 43 -22.5 69.5t-92.5 26.5q-133 0 -162 -106h-81q22 87 89 132t161 45q101 0 151 -54t32 -144l-43 -213q-6 -32 1 -47.5t35 -15.5h21l-14 -68h-22 q-67 0 -89 42q-8 14 -10 36q-64 -86 -180 -86q-83 0 -129.5 40t-46.5 104zM103 141q0 -75 105 -77q152 -1 184 151l15 70q-12 -16 -39.5 -26t-47.5 -13t-64 -8q-37 -4 -59 -8.5t-46.5 -14.5t-36 -28.5t-11.5 -45.5zM239 682q0 41 28.5 68t71.5 27t71.5 -27t28.5 -68 t-28.5 -68t-71.5 -27t-71.5 27t-28.5 68zM294 682q0 -20 13 -32.5t32 -12.5t32 12.5t13 32.5t-13 32.5t-32 12.5t-32 -12.5t-13 -32.5z" />
<glyph unicode="&#xe6;" horiz-adv-x="930" d="M20 136q0 39 14 68t33 45.5t55.5 28.5t65 17.5t77.5 11.5q10 1 32.5 3.5t32 4t26.5 5t25 7.5t18 10.5t15.5 16t7.5 21.5q8 43 -22.5 69.5t-92.5 26.5q-133 0 -162 -106h-81q22 87 89 132t161 45q68 0 114 -25t63 -71q84 96 214 96q103 0 155 -70.5t30 -199.5l-4 -21h-396 q-13 -84 21.5 -137t113.5 -53q114 0 163 106h79q-33 -87 -98.5 -132.5t-153.5 -45.5q-76 0 -127.5 35.5t-70.5 101.5q-69 -134 -221 -134q-83 0 -129.5 40t-46.5 104zM103 141q0 -75 105 -77q152 -1 184 151l15 70q-12 -16 -39.5 -26t-47.5 -13t-64 -8q-37 -4 -59 -8.5 t-46.5 -14.5t-36 -28.5t-11.5 -45.5zM506 320h310q4 73 -27 111.5t-94 38.5q-65 0 -114.5 -42t-74.5 -108z" />
<glyph unicode="&#xe7;" horiz-adv-x="572" d="M37 207q0 138 86 236.5t224 98.5q98 0 149.5 -56t42.5 -160h-79q6 144 -121 144q-95 0 -157.5 -76.5t-62.5 -179.5q0 -76 37.5 -114.5t101.5 -38.5q62 0 109.5 37.5t71.5 108.5h80q-28 -98 -89.5 -153t-149.5 -63l-85 -203l-68 13l80 191q-80 12 -125 69t-45 146z" />
<glyph unicode="&#xe8;" horiz-adv-x="561" d="M37 206q0 137 82 236.5t217 99.5q103 0 155 -70.5t30 -199.5l-4 -21h-396q-13 -84 21.5 -137t113.5 -53q114 0 163 106h79q-33 -87 -98.5 -132.5t-153.5 -45.5q-97 0 -153 57.5t-56 159.5zM128 819l48 50l237 -229l-48 -50zM137 320h310q4 73 -27 111.5t-94 38.5 q-65 0 -114.5 -42t-74.5 -108z" />
<glyph unicode="&#xe9;" horiz-adv-x="561" d="M37 206q0 137 82 236.5t217 99.5q103 0 155 -70.5t30 -199.5l-4 -21h-396q-13 -84 21.5 -137t113.5 -53q114 0 163 106h79q-33 -87 -98.5 -132.5t-153.5 -45.5q-97 0 -153 57.5t-56 159.5zM137 320h310q4 73 -27 111.5t-94 38.5q-65 0 -114.5 -42t-74.5 -108zM277 642 l310 215l48 -52l-310 -215z" />
<glyph unicode="&#xea;" horiz-adv-x="561" d="M37 206q0 137 82 236.5t217 99.5q103 0 155 -70.5t30 -199.5l-4 -21h-396q-13 -84 21.5 -137t113.5 -53q114 0 163 106h79q-33 -87 -98.5 -132.5t-153.5 -45.5q-97 0 -153 57.5t-56 159.5zM135 636l224 173h59l161 -181l-58 -39l-136 156l-199 -156zM137 320h310 q4 73 -27 111.5t-94 38.5q-65 0 -114.5 -42t-74.5 -108z" />
<glyph unicode="&#xeb;" horiz-adv-x="561" d="M37 206q0 137 82 236.5t217 99.5q103 0 155 -70.5t30 -199.5l-4 -21h-396q-13 -84 21.5 -137t113.5 -53q114 0 163 106h79q-33 -87 -98.5 -132.5t-153.5 -45.5q-97 0 -153 57.5t-56 159.5zM137 320h310q4 73 -27 111.5t-94 38.5q-65 0 -114.5 -42t-74.5 -108zM195 668 q0 26 18.5 44t44.5 18t44 -18t18 -44t-18 -44.5t-44 -18.5t-44.5 18.5t-18.5 44.5zM401 668q0 26 18.5 44t44.5 18t44 -18t18 -44t-18 -44.5t-44 -18.5t-44.5 18.5t-18.5 44.5z" />
<glyph unicode="&#xec;" horiz-adv-x="220" d="M-40 819l48 50l237 -229l-48 -50zM14 0l109 530h83l-109 -530h-83z" />
<glyph unicode="&#xed;" horiz-adv-x="220" d="M14 0l109 530h83l-109 -530h-83zM109 642l310 215l48 -52l-310 -215z" />
<glyph unicode="&#xee;" horiz-adv-x="220" d="M-33 636l224 173h59l161 -181l-58 -39l-136 156l-199 -156zM14 0l109 530h83l-109 -530h-83z" />
<glyph unicode="&#xef;" horiz-adv-x="220" d="M14 0l109 530h83l-109 -530h-83zM27 668q0 26 18.5 44t44.5 18t44 -18t18 -44t-18 -44.5t-44 -18.5t-44.5 18.5t-18.5 44.5zM233 668q0 26 18.5 44t44.5 18t44 -18t18 -44t-18 -44.5t-44 -18.5t-44.5 18.5t-18.5 44.5z" />
<glyph unicode="&#xf0;" horiz-adv-x="570" d="M34 196q0 123 75.5 210t196.5 87q56 0 96.5 -24t59.5 -67q3 124 -80 195l-194 -76l-27 62l149 58q-44 20 -110 34l27 71q105 -26 172 -71l167 65l27 -61l-135 -53q80 -86 80 -230q0 -77 -19 -148t-55 -129.5t-96 -93.5t-135 -35q-85 0 -142 56t-57 150zM117 202 q0 -64 35 -102.5t90 -38.5q85 0 138.5 69.5t53.5 159.5q0 61 -33.5 95.5t-91.5 34.5q-87 0 -139.5 -63.5t-52.5 -154.5z" />
<glyph unicode="&#xf1;" horiz-adv-x="564" d="M14 0l108 530h64l-8 -83q36 44 88.5 69.5t109.5 25.5q84 0 122 -53.5t19 -145.5l-69 -343h-83l69 340q13 63 -7.5 96t-82.5 33q-70 0 -119 -40.5t-62 -103.5l-66 -325h-83zM187 645q5 62 35.5 99.5t75.5 37.5q38 0 91 -39t80 -39q44 0 46 69h65q-2 -65 -30 -99.5 t-73 -34.5q-33 0 -65.5 19.5t-59 39t-46.5 19.5q-47 0 -54 -72h-65z" />
<glyph unicode="&#xf2;" horiz-adv-x="592" d="M36 200q0 143 86.5 242.5t227.5 99.5q98 0 152 -56.5t54 -150.5q0 -146 -86.5 -246t-227.5 -100q-96 0 -151 57t-55 154zM120 213q0 -75 38 -113.5t102 -38.5q94 0 153.5 78.5t59.5 183.5q0 70 -36 108.5t-103 38.5q-95 0 -154.5 -77t-59.5 -180zM143 819l48 50l237 -229 l-48 -50z" />
<glyph unicode="&#xf3;" horiz-adv-x="592" d="M36 200q0 143 86.5 242.5t227.5 99.5q98 0 152 -56.5t54 -150.5q0 -146 -86.5 -246t-227.5 -100q-96 0 -151 57t-55 154zM120 213q0 -75 38 -113.5t102 -38.5q94 0 153.5 78.5t59.5 183.5q0 70 -36 108.5t-103 38.5q-95 0 -154.5 -77t-59.5 -180zM292 642l310 215l48 -52 l-310 -215z" />
<glyph unicode="&#xf4;" horiz-adv-x="592" d="M36 200q0 143 86.5 242.5t227.5 99.5q98 0 152 -56.5t54 -150.5q0 -146 -86.5 -246t-227.5 -100q-96 0 -151 57t-55 154zM120 213q0 -75 38 -113.5t102 -38.5q94 0 153.5 78.5t59.5 183.5q0 70 -36 108.5t-103 38.5q-95 0 -154.5 -77t-59.5 -180zM150 636l224 173h59 l161 -181l-58 -39l-136 156l-199 -156z" />
<glyph unicode="&#xf5;" horiz-adv-x="592" d="M36 200q0 143 86.5 242.5t227.5 99.5q98 0 152 -56.5t54 -150.5q0 -146 -86.5 -246t-227.5 -100q-96 0 -151 57t-55 154zM120 213q0 -75 38 -113.5t102 -38.5q94 0 153.5 78.5t59.5 183.5q0 70 -36 108.5t-103 38.5q-95 0 -154.5 -77t-59.5 -180zM189 645q5 62 35.5 99.5 t75.5 37.5q38 0 91 -39t80 -39q44 0 46 69h65q-2 -65 -30 -99.5t-73 -34.5q-33 0 -65.5 19.5t-59 39t-46.5 19.5q-47 0 -54 -72h-65z" />
<glyph unicode="&#xf6;" horiz-adv-x="592" d="M36 200q0 143 86.5 242.5t227.5 99.5q98 0 152 -56.5t54 -150.5q0 -146 -86.5 -246t-227.5 -100q-96 0 -151 57t-55 154zM120 213q0 -75 38 -113.5t102 -38.5q94 0 153.5 78.5t59.5 183.5q0 70 -36 108.5t-103 38.5q-95 0 -154.5 -77t-59.5 -180zM210 668q0 26 18.5 44 t44.5 18t44 -18t18 -44t-18 -44.5t-44 -18.5t-44.5 18.5t-18.5 44.5zM416 668q0 26 18.5 44t44.5 18t44 -18t18 -44t-18 -44.5t-44 -18.5t-44.5 18.5t-18.5 44.5z" />
<glyph unicode="&#xf7;" horiz-adv-x="574" d="M47 276l14 70h484l-14 -70h-484zM197 130q0 26 18 44t45 18t45 -18t18 -44q0 -27 -18 -45t-45 -18t-45 18t-18 45zM269 493q0 26 18 44t45 18t45 -18t18 -44q0 -27 -18 -45t-45 -18t-45 18t-18 45z" />
<glyph unicode="&#xf8;" horiz-adv-x="592" d="M-13 -15l84 85q-35 53 -35 130q0 143 86.5 242.5t227.5 99.5q87 0 141 -46l71 71l44 -29l-81 -82q31 -51 31 -121q0 -146 -86.5 -246t-227.5 -100q-84 0 -136 44l-76 -77zM120 213q0 -47 15 -78l297 301q-36 34 -98 34q-95 0 -154.5 -77t-59.5 -180zM165 93 q36 -32 95 -32q94 0 153.5 78.5t59.5 183.5q0 39 -12 69z" />
<glyph unicode="&#xf9;" horiz-adv-x="559" d="M42 184l70 346h82l-69 -343q-12 -60 13.5 -93t85.5 -33q65 0 109.5 39t61.5 100l67 330h83l-108 -530h-64l8 82q-61 -93 -176 -93q-91 0 -135.5 55t-27.5 140zM119 819l48 50l237 -229l-48 -50z" />
<glyph unicode="&#xfa;" horiz-adv-x="559" d="M42 184l70 346h82l-69 -343q-12 -60 13.5 -93t85.5 -33q65 0 109.5 39t61.5 100l67 330h83l-108 -530h-64l8 82q-61 -93 -176 -93q-91 0 -135.5 55t-27.5 140zM268 642l310 215l48 -52l-310 -215z" />
<glyph unicode="&#xfb;" horiz-adv-x="559" d="M42 184l70 346h82l-69 -343q-12 -60 13.5 -93t85.5 -33q65 0 109.5 39t61.5 100l67 330h83l-108 -530h-64l8 82q-61 -93 -176 -93q-91 0 -135.5 55t-27.5 140zM126 636l224 173h59l161 -181l-58 -39l-136 156l-199 -156z" />
<glyph unicode="&#xfc;" horiz-adv-x="559" d="M42 184l70 346h82l-69 -343q-12 -60 13.5 -93t85.5 -33q65 0 109.5 39t61.5 100l67 330h83l-108 -530h-64l8 82q-61 -93 -176 -93q-91 0 -135.5 55t-27.5 140zM186 668q0 26 18.5 44t44.5 18t44 -18t18 -44t-18 -44.5t-44 -18.5t-44.5 18.5t-18.5 44.5zM392 668 q0 26 18.5 44t44.5 18t44 -18t18 -44t-18 -44.5t-44 -18.5t-44.5 18.5t-18.5 44.5z" />
<glyph unicode="&#xfd;" horiz-adv-x="558" d="M-47 -200l14 70h85q41 0 62.5 12.5t36.5 38.5l45 79h-20l-102 530h84l82 -454l261 454h91l-368 -641q-28 -50 -64 -69.5t-122 -19.5h-85zM269 642l310 215l48 -52l-310 -215z" />
<glyph unicode="&#xfe;" horiz-adv-x="606" d="M-24 -200l194 950h82l-63 -310q80 102 205 102q82 0 129 -54.5t47 -153.5q0 -136 -77.5 -240.5t-199.5 -104.5q-65 0 -110 31t-63 83l-62 -303h-82zM151 213q0 -70 35 -111t96 -41q89 0 146.5 82t57.5 184q0 143 -123 143q-94 0 -153 -77.5t-59 -179.5z" />
<glyph unicode="&#xff;" horiz-adv-x="558" d="M-47 -200l14 70h85q41 0 62.5 12.5t36.5 38.5l45 79h-20l-102 530h84l82 -454l261 454h91l-368 -641q-28 -50 -64 -69.5t-122 -19.5h-85zM187 668q0 26 18.5 44t44.5 18t44 -18t18 -44t-18 -44.5t-44 -18.5t-44.5 18.5t-18.5 44.5zM393 668q0 26 18.5 44t44.5 18t44 -18 t18 -44t-18 -44.5t-44 -18.5t-44.5 18.5t-18.5 44.5z" />
<glyph unicode="&#x152;" horiz-adv-x="1165" d="M65 274q0 186 115.5 311.5t288.5 125.5q163 0 223 -135l25 124h478l-15 -77h-395l-44 -221h354l-16 -75h-354l-50 -250h402l-15 -77h-487l19 96q-101 -107 -255 -107q-127 0 -200.5 75t-73.5 210zM149 281q0 -102 52.5 -158.5t147.5 -56.5q134 0 218 108t84 258 q0 96 -50.5 149t-141.5 53q-132 0 -221 -101.5t-89 -251.5z" />
<glyph unicode="&#x153;" horiz-adv-x="1000" d="M36 200q0 143 86.5 242.5t227.5 99.5q73 0 121.5 -31.5t70.5 -88.5q85 120 233 120q103 0 155 -70.5t30 -199.5l-4 -21h-396q-13 -84 21.5 -137t113.5 -53q114 0 163 106h79q-33 -87 -98.5 -132.5t-153.5 -45.5q-72 0 -122.5 32.5t-72.5 93.5q-90 -126 -248 -126 q-96 0 -151 57t-55 154zM120 213q0 -75 38 -113.5t102 -38.5q94 0 153.5 78.5t59.5 183.5q0 70 -36 108.5t-103 38.5q-95 0 -154.5 -77t-59.5 -180zM576 320h310q4 73 -27 111.5t-94 38.5q-65 0 -114.5 -42t-74.5 -108z" />
<glyph unicode="&#x178;" horiz-adv-x="651" d="M106 700h90l148 -313l272 313h107l-346 -391l-63 -309h-84l63 309zM266 828q0 26 18.5 44t44.5 18t44 -18t18 -44t-18 -44.5t-44 -18.5t-44.5 18.5t-18.5 44.5zM472 828q0 26 18.5 44t44.5 18t44 -18t18 -44t-18 -44.5t-44 -18.5t-44.5 18.5t-18.5 44.5z" />
<glyph unicode="&#x2c6;" horiz-adv-x="489" d="M97 636l224 173h59l161 -181l-58 -39l-136 156l-199 -156z" />
<glyph unicode="&#x2dc;" horiz-adv-x="462" d="M124 645q5 62 35.5 99.5t75.5 37.5q38 0 91 -39t80 -39q44 0 46 69h65q-2 -65 -30 -99.5t-73 -34.5q-33 0 -65.5 19.5t-59 39t-46.5 19.5q-47 0 -54 -72h-65z" />
<glyph unicode="&#x2000;" horiz-adv-x="509" />
<glyph unicode="&#x2001;" horiz-adv-x="1019" />
<glyph unicode="&#x2002;" horiz-adv-x="509" />
<glyph unicode="&#x2003;" horiz-adv-x="1019" />
<glyph unicode="&#x2004;" horiz-adv-x="339" />
<glyph unicode="&#x2005;" horiz-adv-x="254" />
<glyph unicode="&#x2006;" horiz-adv-x="169" />
<glyph unicode="&#x2007;" horiz-adv-x="169" />
<glyph unicode="&#x2008;" horiz-adv-x="127" />
<glyph unicode="&#x2009;" horiz-adv-x="203" />
<glyph unicode="&#x200a;" horiz-adv-x="56" />
<glyph unicode="&#x2010;" horiz-adv-x="518" d="M47 276l14 70h428l-14 -70h-428z" />
<glyph unicode="&#x2011;" horiz-adv-x="518" d="M47 276l14 70h428l-14 -70h-428z" />
<glyph unicode="&#x2012;" horiz-adv-x="518" d="M47 276l14 70h428l-14 -70h-428z" />
<glyph unicode="&#x2013;" horiz-adv-x="538" d="M47 276l14 70h448l-14 -70h-448z" />
<glyph unicode="&#x2014;" horiz-adv-x="883" d="M47 276l14 70h793l-14 -70h-793z" />
<glyph unicode="&#x2018;" horiz-adv-x="261" d="M87 437l176 334l70 -21l-173 -335z" />
<glyph unicode="&#x2019;" horiz-adv-x="261" d="M87 438l173 335l73 -22l-176 -334z" />
<glyph unicode="&#x201a;" horiz-adv-x="258" d="M-60 -162l173 335l73 -22l-176 -334z" />
<glyph unicode="&#x201c;" horiz-adv-x="428" d="M87 437l176 334l70 -21l-173 -335zM254 437l176 334l70 -21l-173 -335z" />
<glyph unicode="&#x201d;" horiz-adv-x="428" d="M87 438l173 335l73 -22l-176 -334zM254 438l173 335l73 -22l-176 -334z" />
<glyph unicode="&#x201e;" horiz-adv-x="425" d="M-60 -162l173 335l73 -22l-176 -334zM107 -162l173 335l73 -22l-176 -334z" />
<glyph unicode="&#x2022;" horiz-adv-x="323" d="M72 311q0 42 28.5 70.5t70.5 28.5t70.5 -28.5t28.5 -70.5t-28.5 -70.5t-70.5 -28.5t-70.5 28.5t-28.5 70.5z" />
<glyph unicode="&#x2026;" horiz-adv-x="643" d="M8 53q0 26 18 44t45 18t45 -18t18 -44q0 -27 -18 -45t-45 -18t-45 18t-18 45zM215 53q0 26 18 44t45 18t45 -18t18 -44q0 -27 -18 -45t-45 -18t-45 18t-18 45zM422 53q0 26 18 44t45 18t45 -18t18 -44q0 -27 -18 -45t-45 -18t-45 18t-18 45z" />
<glyph unicode="&#x202f;" horiz-adv-x="203" />
<glyph unicode="&#x2039;" horiz-adv-x="359" d="M40 242l16 74l257 214l53 -48l-257 -212l155 -194l-53 -48z" />
<glyph unicode="&#x203a;" horiz-adv-x="360" d="M-1 76l257 212l-155 194l53 48l171 -214l-16 -74l-257 -214z" />
<glyph unicode="&#x205f;" horiz-adv-x="254" />
<glyph unicode="&#x20ac;" horiz-adv-x="849" d="M24 245l13 64h120q3 34 11 74h-115l13 64h122q46 120 144 192t230 72q130 0 199 -72t65 -208h-83q0 203 -192 203q-94 0 -165.5 -51t-108.5 -136h302l-13 -64h-311q-10 -33 -13 -74h308l-13 -64h-295q14 -179 199 -179t269 203h87q-100 -280 -368 -280q-125 0 -197 68 t-77 188h-131z" />
<glyph unicode="&#x2122;" horiz-adv-x="701" d="M105 651l10 49h274l-10 -49h-111l-58 -289h-52l58 289h-111zM346 362l68 338h53l55 -278l167 278h52l-68 -338h-52l44 218l-131 -218h-49l-43 215l-43 -215h-53z" />
<glyph unicode="&#xfb01;" horiz-adv-x="578" d="M69 460l15 70h98l15 74q15 75 57.5 110.5t122.5 35.5h78l-14 -70h-76q-69 0 -85 -76l-15 -74h299l-108 -530h-82l93 460h-216l-94 -460h-83l94 460h-99zM491 681q0 26 18 43.5t44 17.5t43.5 -17.5t17.5 -43.5t-17.5 -44t-43.5 -18t-44 18t-18 44z" />
<glyph unicode="&#xfb02;" horiz-adv-x="588" d="M69 460l15 70h98l15 74q15 75 57.5 110.5t122.5 35.5h238l-152 -750h-83l138 680h-153q-69 0 -85 -76l-15 -74h172l-15 -70h-171l-94 -460h-83l94 460h-99z" />
</font>
</defs>
</svg>
