<?xml version="1.0" standalone="no"?>
<!DOCTYPE svg PUBLIC "-//W3C//DTD SVG 1.1//EN" "http://www.w3.org/Graphics/SVG/1.1/DTD/svg11.dtd" >
<svg xmlns="http://www.w3.org/2000/svg" xmlns:xlink="http://www.w3.org/1999/xlink" version="1.1">
<metadata></metadata>
<defs>
<font id="pp_morisemibold_italic" horiz-adv-x="575" >
<font-face units-per-em="1000" ascent="800" descent="-200" />
<missing-glyph horiz-adv-x="218" />
<glyph horiz-adv-x="0" />
<glyph horiz-adv-x="333" />
<glyph unicode="&#xd;" horiz-adv-x="600" />
<glyph unicode=" "  horiz-adv-x="218" />
<glyph unicode="&#x09;" horiz-adv-x="218" />
<glyph unicode="&#xa0;" horiz-adv-x="218" />
<glyph unicode="!" horiz-adv-x="267" d="M16 64q0 32 22 54t54 22q33 0 55 -22t22 -54q0 -33 -22 -55t-55 -22q-32 0 -54 22t-22 55zM56 185l115 565h118l-115 -565h-118z" />
<glyph unicode="&#x22;" horiz-adv-x="410" d="M95 420l67 330h106l-67 -330h-106zM273 420l67 330h106l-67 -330h-106z" />
<glyph unicode="#" horiz-adv-x="773" d="M12 168l19 91h153l77 175h-184l19 91h206l91 204l100 -23l-80 -181h138l91 204l100 -23l-80 -181h133l-19 -91h-155l-78 -175h187l-19 -91h-209l-84 -191l-100 23l74 168h-139l-84 -191l-101 23l75 168h-131zM294 259h139l77 175h-138z" />
<glyph unicode="$" horiz-adv-x="638" d="M33 216h120q-10 -92 93 -117l45 223l-15 6q-82 29 -113 54q-55 44 -55 122q0 97 74.5 154t188.5 57l23 112h80l-24 -120q86 -19 132.5 -78.5t36.5 -152.5h-118q6 93 -74 122l-39 -193l39 -15q36 -13 59.5 -25t50 -32t39.5 -50t13 -69q0 -106 -79 -167.5t-208 -61.5 l-24 -120h-80l26 126q-101 17 -153 76t-38 149zM226 515q0 -32 21.5 -49t66.5 -33l35 175q-54 -2 -88.5 -26.5t-34.5 -66.5zM324 92q67 2 105.5 30.5t38.5 77.5q0 34 -22.5 54t-66.5 36l-13 5z" />
<glyph unicode="%" horiz-adv-x="936" d="M81 487q0 91 55 159.5t145 68.5q60 0 96 -38t36 -107q0 -90 -54.5 -158.5t-142.5 -68.5q-62 0 -98.5 38.5t-36.5 105.5zM122 13l652 729l89 -41l-654 -730zM168 500q0 -76 60 -76q46 0 73 42.5t27 93.5q0 36 -15.5 55.5t-44.5 19.5q-45 0 -72.5 -41.5t-27.5 -93.5z M558 130q0 91 54.5 159t145.5 68q60 0 96 -38.5t36 -106.5q0 -90 -55 -158.5t-142 -68.5q-61 0 -98 38.5t-37 106.5zM644 142q0 -36 16 -56t45 -20q46 0 72.5 43t26.5 94q0 35 -15.5 54.5t-43.5 19.5q-45 0 -73 -42t-28 -93z" />
<glyph unicode="&#x26;" horiz-adv-x="691" d="M31 217q14 69 64.5 114t131.5 84q-45 70 -45 129q0 73 55 122t141 49q84 0 128.5 -49.5t30.5 -124.5q-11 -54 -52 -89.5t-110 -67.5l115 -161q40 70 60 169h108q-27 -156 -104 -259l73 -101l-94 -57l-56 81q-93 -71 -212 -71t-186.5 64t-47.5 168zM147 214 q-11 -56 25 -90.5t106 -34.5q79 0 141 50l-140 202q-57 -28 -90.5 -57t-41.5 -70zM292 544q0 -35 31 -85q49 23 76 45t30 52q3 26 -13.5 43.5t-46.5 17.5q-33 0 -55 -20t-22 -53z" />
<glyph unicode="'" horiz-adv-x="227" d="M94 418l68 332h101l-68 -332h-101z" />
<glyph unicode="(" horiz-adv-x="314" d="M58 159q0 160 66 319t186 288l88 -41q-111 -120 -172.5 -266.5t-61.5 -295.5q0 -152 57 -269l-96 -33q-67 131 -67 298z" />
<glyph unicode=")" horiz-adv-x="308" d="M-66 -107q107 120 168.5 275.5t61.5 307.5q0 146 -49 260l96 30q59 -129 59 -291q0 -167 -65 -332.5t-177 -285.5z" />
<glyph unicode="*" horiz-adv-x="506" d="M71 439l155 81l-121 80l53 70l120 -79l29 147h84l-29 -147l151 78l25 -74l-149 -77l117 -78l-53 -70l-120 80l-31 -152h-84l30 146l-152 -79z" />
<glyph unicode="+" horiz-adv-x="571" d="M35 258l20 97h195l39 190h108l-39 -190h194l-19 -97h-195l-38 -188h-108l38 188h-195z" />
<glyph unicode="," horiz-adv-x="255" d="M-84 -171l181 348l97 -29l-184 -347z" />
<glyph unicode="-" horiz-adv-x="521" d="M35 258l20 97h448l-20 -97h-448z" />
<glyph unicode="." horiz-adv-x="232" d="M-2 64q0 32 22 54t55 22t55 -22t22 -54q0 -33 -22 -55t-55 -22t-55 22t-22 55z" />
<glyph unicode="/" horiz-adv-x="382" d="M-68 -86l443 880l110 -30l-443 -882z" />
<glyph unicode="0" horiz-adv-x="621" d="M48 238q0 89 24.5 173.5t68.5 152.5t112 109.5t148 41.5q97 0 151.5 -65.5t54.5 -187.5q0 -88 -23 -172t-65.5 -152.5t-110 -110.5t-149.5 -42q-99 0 -155 65.5t-56 187.5zM167 254q0 -158 112 -158q65 0 114.5 58t72 136.5t22.5 157.5q0 157 -109 157q-65 0 -115 -57 t-73.5 -135.5t-23.5 -158.5z" />
<glyph unicode="1" horiz-adv-x="382" d="M61 451l23 115h8q159 0 185 124l2 10h119l-142 -700h-121l106 521q-64 -70 -172 -70h-8z" />
<glyph unicode="2" horiz-adv-x="576" d="M9 0l11 61q12 65 47.5 117t80 82.5t95 59.5t93 50.5t74.5 54t39 71.5q9 50 -18.5 80.5t-77.5 30.5q-59 0 -98 -36.5t-51 -102.5h-122q20 119 95.5 183t185.5 64q109 0 165.5 -64.5t38.5 -162.5q-11 -58 -50.5 -104t-91 -76.5t-103.5 -58.5t-97 -63.5t-63 -77.5h344 l-22 -108h-475z" />
<glyph unicode="3" horiz-adv-x="591" d="M21 223h118q-6 -64 30.5 -97t106.5 -33q68 0 109.5 33t41.5 88q0 44 -30.5 68.5t-85.5 24.5h-105l19 99h105q58 0 94.5 31.5t36.5 81.5q0 40 -26.5 64t-73.5 24q-50 0 -89.5 -28.5t-54.5 -85.5h-122q23 106 100.5 164t180.5 58q91 0 148.5 -45.5t57.5 -123.5 q0 -70 -45.5 -120.5t-119.5 -67.5q59 -15 91.5 -55t32.5 -97q0 -97 -76.5 -159t-197.5 -62q-123 0 -192 62.5t-54 175.5z" />
<glyph unicode="4" horiz-adv-x="632" d="M10 156l22 106l428 438h121l-88 -436h120l-22 -108h-120l-32 -156h-120l32 156h-341zM170 264h202l53 261z" />
<glyph unicode="5" horiz-adv-x="595" d="M32 214h123q-2 -54 30 -87t90 -33q71 0 114.5 48.5t43.5 118.5q0 48 -26 76t-77 28q-74 0 -131 -56h-129l124 391h404l-22 -109h-298l-61 -190q68 62 160 62q80 0 127.5 -48.5t47.5 -139.5q0 -124 -80 -207t-213 -83q-111 0 -173 61.5t-54 167.5z" />
<glyph unicode="6" horiz-adv-x="621" d="M51 257q0 87 24.5 168.5t70 146.5t116.5 104t158 39q106 0 164 -59.5t47 -162.5h-120q5 53 -23 83.5t-83 30.5q-81 0 -140.5 -61.5t-85.5 -168.5q-3 -12 -7 -34q35 57 95 92.5t130 35.5q85 0 134.5 -53t49.5 -146q0 -124 -80.5 -205.5t-205.5 -81.5q-113 0 -178.5 72 t-65.5 200zM187 203q0 -47 29 -78.5t85 -31.5q73 0 117 49t44 118q0 51 -28.5 81.5t-78.5 30.5q-75 0 -121.5 -52t-46.5 -117z" />
<glyph unicode="7" horiz-adv-x="540" d="M4 0l440 592h-354l21 108h497l-22 -108l-433 -592h-149z" />
<glyph unicode="8" horiz-adv-x="609" d="M18 161q0 73 49.5 127t133.5 79q-93 48 -93 143q0 93 74.5 149t187.5 56q104 0 164 -48t60 -127q0 -62 -37 -108.5t-105 -70.5q50 -21 78.5 -59.5t28.5 -89.5q0 -100 -80.5 -163.5t-218.5 -63.5q-114 0 -178 47t-64 129zM140 188q0 -44 33 -69t95 -25q74 0 120.5 35 t46.5 91q0 45 -33.5 71.5t-91.5 26.5q-71 0 -120.5 -36.5t-49.5 -93.5zM223 500q0 -43 31 -69.5t84 -26.5q63 0 100.5 31.5t37.5 81.5q0 43 -30 68.5t-84 25.5q-61 0 -100 -31t-39 -80z" />
<glyph unicode="9" horiz-adv-x="602" d="M26 203h118q-3 -54 27 -82t86 -28q75 0 128.5 60t74.5 165l6 28q-24 -51 -74 -81t-116 -30q-92 0 -146 55t-54 146q0 121 79 200t201 79q110 0 168 -71t58 -202q0 -67 -11.5 -130.5t-37.5 -123t-64.5 -104.5t-96 -72t-128.5 -27q-107 0 -166.5 57.5t-51.5 160.5zM194 446 q0 -52 28.5 -81t75.5 -29q73 0 115.5 50t42.5 114q0 48 -27 78.5t-78 30.5q-66 0 -111.5 -48t-45.5 -115z" />
<glyph unicode=":" horiz-adv-x="233" d="M-1 64q0 32 22 54t55 22t55 -22t22 -54q0 -33 -22 -55t-55 -22t-55 22t-22 55zM81 470q0 32 22 54t55 22t55 -22t22 -54q0 -33 -22 -55t-55 -22t-55 22t-22 55z" />
<glyph unicode=";" horiz-adv-x="262" d="M-84 -171l181 348l97 -29l-184 -347zM105 470q0 32 22 54t54 22q33 0 55 -22t22 -54q0 -33 -22 -55t-55 -22q-32 0 -54 22t-22 55z" />
<glyph unicode="&#x3c;" horiz-adv-x="595" d="M33 220l24 121l494 232l53 -86l-456 -215l340 -197l-57 -88z" />
<glyph unicode="=" horiz-adv-x="582" d="M16 135l21 98h496l-21 -98h-496zM61 353l20 99h496l-20 -99h-496z" />
<glyph unicode="&#x3e;" horiz-adv-x="596" d="M-2 75l457 214l-339 198l56 86l398 -232l-24 -121l-494 -233z" />
<glyph unicode="?" horiz-adv-x="553" d="M75 468q21 119 95.5 183t180.5 64q109 0 166.5 -63.5t39.5 -159.5q-8 -43 -33 -77t-55.5 -55.5t-61 -40.5t-53.5 -41.5t-28 -48.5l-8 -40h-116l8 40q9 45 34 79t55.5 55t60 40t52 43.5t28.5 54.5q9 46 -18 76t-77 30q-58 0 -97 -36.5t-50 -102.5h-123zM168 64q0 32 22 54 t55 22t55 -22t22 -54q0 -33 -22 -55t-55 -22t-55 22t-22 55z" />
<glyph unicode="@" horiz-adv-x="870" d="M44 203q0 129 59.5 239t171.5 178t253 68q149 0 234 -77.5t85 -216.5q0 -126 -62.5 -218.5t-164.5 -92.5q-45 0 -69 22.5t-19 57.5q-60 -80 -156 -80q-68 0 -102.5 42.5t-34.5 106.5t28 125t84.5 103.5t127.5 42.5q98 0 118 -82l33 74h52l-81 -290q-14 -48 30 -48 q58 0 96 71t38 159q0 103 -61.5 160.5t-178.5 57.5q-115 0 -206 -55.5t-138.5 -144t-47.5 -189.5q0 -123 72.5 -185.5t206.5 -62.5q111 0 209 46l-15 -88q-89 -39 -208 -39q-168 0 -261 81.5t-93 234.5zM325 243q0 -40 20.5 -64.5t58.5 -24.5q46 0 86 37t57 98 q19 64 0 103.5t-69 39.5q-65 0 -109 -59.5t-44 -129.5z" />
<glyph unicode="A" horiz-adv-x="729" d="M-37 -3l429 701h119l145 -701h-117l-35 173h-306l-105 -173h-130zM263 279h220l-56 269z" />
<glyph unicode="B" horiz-adv-x="673" d="M20 0l142 700h327q80 0 127.5 -39.5t47.5 -108.5q0 -75 -51 -126.5t-131 -67.5q62 -8 99.5 -45.5t37.5 -96.5q0 -94 -71 -155t-187 -61h-341zM162 108h224q50 0 81.5 35.5t31.5 82.5q0 38 -23 58t-63 20h-211zM223 408h206q50 0 84 33.5t34 82.5q0 69 -74 69h-213z" />
<glyph unicode="C" horiz-adv-x="751" d="M53 269q0 187 115.5 316.5t299.5 129.5q132 1 204 -73q68 -70 68 -198v-14h-120q0 177 -167 177q-123 0 -201 -96t-78 -229q0 -91 46.5 -139.5t133.5 -48.5q78 0 140 45t96 131h121q-97 -285 -373 -285q-131 0 -208 75t-77 209z" />
<glyph unicode="D" horiz-adv-x="710" d="M20 0l142 700h252q129 0 204 -69.5t75 -198.5q0 -114 -48.5 -211.5t-144 -159t-219.5 -61.5h-261zM162 108h144q78 0 140 46t94 116.5t32 149.5q0 82 -44 127t-128 45h-140z" />
<glyph unicode="E" horiz-adv-x="611" d="M20 0l142 700h489l-22 -108h-369l-36 -180h334l-22 -105h-334l-40 -199h377l-21 -108h-498z" />
<glyph unicode="F" horiz-adv-x="604" d="M20 0l142 700h496l-22 -108h-376l-39 -193h349l-22 -108h-349l-59 -291h-120z" />
<glyph unicode="G" horiz-adv-x="775" d="M53 269q0 122 49 222.5t144 162t217 61.5q136 0 209 -73q68 -70 68 -198v-14h-120q-5 177 -166 177q-124 0 -201.5 -96t-77.5 -229q0 -91 46.5 -139.5t132.5 -48.5q75 0 130.5 46t70.5 125h-211l21 101h238q117 0 117 -91q0 -18 -4 -39l-48 -236h-105l43 214h-1 q-29 -111 -102 -170t-177 -59q-123 0 -198 75.5t-75 208.5z" />
<glyph unicode="H" horiz-adv-x="768" d="M20 0l142 700h120l-58 -288h380l59 288h120l-142 -700h-120l62 304h-381l-62 -304h-120z" />
<glyph unicode="I" horiz-adv-x="267" d="M20 0l142 700h120l-142 -700h-120z" />
<glyph unicode="J" horiz-adv-x="578" d="M21 191l21 99h120l-20 -99q-2 -12 -2 -23q0 -30 18 -48q26 -26 81 -26q53 0 90.5 27t48.5 81l101 498h120l-101 -501q-22 -107 -93 -160.5t-183 -53.5q-106 0 -163 56q-43 42 -43 105q0 22 5 45z" />
<glyph unicode="K" horiz-adv-x="697" d="M20 0l142 700h120l-67 -331l372 331h165l-333 -287l211 -413h-135l-167 335l-145 -125l-43 -210h-120z" />
<glyph unicode="L" horiz-adv-x="584" d="M20 0l142 700h120l-120 -592h357l-22 -108h-477z" />
<glyph unicode="M" horiz-adv-x="880" d="M20 0l142 700h141l106 -560l334 560h152l-142 -700h-120l99 488l-292 -488h-106l-94 491l-100 -491h-120z" />
<glyph unicode="N" horiz-adv-x="744" d="M20 0l142 700h125l243 -534l109 534h120l-142 -700h-126l-242 534l-109 -534h-120z" />
<glyph unicode="O" horiz-adv-x="767" d="M54 278q0 184 117 310.5t297 126.5q129 0 204 -78.5t75 -215.5q0 -182 -112 -309t-292 -127q-131 0 -210 77t-79 216zM173 288q0 -93 47.5 -143.5t133.5 -50.5q117 0 195 92t78 228q0 92 -46 142.5t-128 50.5q-120 0 -200 -92t-80 -227z" />
<glyph unicode="P" horiz-adv-x="687" d="M20 0l142 700h351q83 0 134 -48.5t51 -133.5q0 -110 -74 -187.5t-198 -77.5h-235l-51 -253h-120zM213 361h229q60 0 97.5 43.5t37.5 100.5q0 87 -90 87h-227z" />
<glyph unicode="Q" horiz-adv-x="769" d="M54 280q0 182 117 308.5t295 126.5q132 0 206.5 -78t74.5 -217q0 -109 -43 -202.5t-120 -153.5l93 -157l-88 -45l-91 153q-73 -30 -154 -30q-131 0 -210.5 77.5t-79.5 217.5zM174 288q0 -93 47.5 -143.5t132.5 -50.5q48 0 87 16l-89 151l88 44l85 -143q48 43 75.5 109 t27.5 143q0 91 -46 142t-128 51q-120 0 -200 -92t-80 -227z" />
<glyph unicode="R" horiz-adv-x="685" d="M20 0l142 700h340q80 0 130.5 -43t50.5 -122q0 -80 -53.5 -138t-136.5 -78q67 -15 78 -85l37 -234h-120l-32 214q-4 23 -19.5 36.5t-38.5 13.5h-204l-54 -264h-120zM215 370h216q58 0 95 40.5t37 96.5q0 85 -89 85h-214z" />
<glyph unicode="S" horiz-adv-x="638" d="M33 216h120q-1 -8 -1 -16q0 -48 38 -76q44 -32 125 -32q71 0 112 29t41 79q0 34 -22.5 54t-66.5 36l-103 38q-82 29 -113 54q-55 44 -55 122q0 97 74.5 154t189.5 57q118 -1 188 -63q60 -53 60 -144q0 -15 -1 -32h-118v12q0 55 -34 86q-38 34 -107 34q-58 0 -96 -24.5 t-38 -68.5q0 -15 6 -27.5t13 -20t24.5 -16t27.5 -12.5t35 -13l95 -36q36 -13 59.5 -25t50 -32t39.5 -50t13 -69q0 -106 -79.5 -167.5t-208.5 -61.5q-135 0 -209 62q-61 51 -62 133q0 17 3 36z" />
<glyph unicode="T" horiz-adv-x="646" d="M97 592l21 108h587l-22 -108h-233l-120 -592h-121l120 592h-232z" />
<glyph unicode="U" horiz-adv-x="702" d="M61 233l95 467h120l-94 -465q-4 -20 -4 -38q0 -102 137 -102q73 0 126 33.5t68 107.5l94 464h120l-94 -468q-24 -119 -109 -183t-224 -64q-124 1 -191 67q-50 50 -50 125q0 27 6 56z" />
<glyph unicode="V" horiz-adv-x="688" d="M102 700h121l97 -538l310 538h134l-406 -700h-126z" />
<glyph unicode="W" horiz-adv-x="967" d="M102 700h120l39 -529l252 529h112l37 -523l252 523h129l-340 -700h-130l-36 525l-248 -525h-131z" />
<glyph unicode="X" horiz-adv-x="716" d="M-32 0l344 359l-182 341h132l133 -254l235 254h153l-331 -354l186 -346h-132l-138 260l-245 -260h-155z" />
<glyph unicode="Y" horiz-adv-x="672" d="M99 700h127l130 -289l246 289h149l-347 -401l-61 -299h-121l61 299z" />
<glyph unicode="Z" horiz-adv-x="609" d="M-14 0l23 111l468 481h-352l23 108h500l-23 -111l-467 -481h379l-22 -108h-529z" />
<glyph unicode="[" horiz-adv-x="347" d="M6 -128l182 892h244l-19 -91h-140l-145 -710h140l-18 -91h-244z" />
<glyph unicode="\" horiz-adv-x="367" d="M100 764l108 30l84 -880l-108 -32z" />
<glyph unicode="]" horiz-adv-x="348" d="M-62 -128l19 91h140l144 710h-141l19 91h244l-181 -892h-244z" />
<glyph unicode="^" horiz-adv-x="484" d="M67 432l210 268h105l103 -268h-115l-56 154l-117 -154h-130z" />
<glyph unicode="_" horiz-adv-x="541" d="M-40 -112l20 97h468l-20 -97h-468z" />
<glyph unicode="`" horiz-adv-x="353" d="M119 811l66 67l238 -232l-66 -69z" />
<glyph unicode="a" d="M11 135q0 39 14 68t34.5 46.5t56.5 30t66 18.5t78 12q87 11 107 20q32 14 38 44q1 6 1 13q0 25 -20 41q-24 21 -75 21q-114 0 -140 -93h-118q23 92 94.5 141t169.5 49q106 0 161 -52q41 -40 41 -103q0 -20 -4 -43l-42 -204q-2 -11 -2 -20q1 -13 5 -20q8 -12 31 -12h21 l-19 -92h-30q-66 0 -91 34q-15 18 -16 39q-62 -84 -180 -84q-83 0 -132 40t-49 106zM130 146q0 -62 90 -64q60 0 100.5 31t51.5 86l17 76q-12 -16 -36 -26t-42.5 -13.5t-54.5 -8.5q-33 -4 -50.5 -8t-37.5 -12t-29 -23t-9 -38z" />
<glyph unicode="b" horiz-adv-x="618" d="M9 0l152 750h119l-60 -292q78 88 191 88q81 0 130 -56.5t49 -157.5q0 -87 -32 -165t-97.5 -130t-151.5 -52q-69 0 -114.5 34t-56.5 90l-37 -109h-92zM180 219q0 -61 30 -97.5t82 -36.5q79 0 129.5 72t50.5 160q0 62 -27.5 95.5t-81.5 33.5q-82 0 -132.5 -68t-50.5 -159z " />
<glyph unicode="c" horiz-adv-x="574" d="M28 207q0 141 90.5 240t234.5 99q103 0 156 -60q44 -49 44 -127q0 -16 -2 -34h-111v10q0 110 -105 110q-84 0 -137 -67t-53 -157q0 -67 33 -101t88 -34q53 0 93 31t59 91h112q-28 -109 -101.5 -166t-178.5 -57q-104 0 -163 59.5t-59 162.5z" />
<glyph unicode="d" horiz-adv-x="605" d="M29 205q0 141 81 241t208 100q125 0 166 -101l62 305h119l-152 -750h-93l6 85q-69 -100 -189 -100q-95 0 -151.5 58.5t-56.5 161.5zM148 222q0 -65 30.5 -101t87.5 -36q84 0 133.5 69.5t49.5 161.5q0 61 -30.5 95.5t-86.5 34.5q-81 0 -132.5 -67t-51.5 -157z" />
<glyph unicode="e" horiz-adv-x="565" d="M29 211q0 136 84 235.5t223 99.5q109 0 164 -74q39 -53 39 -135q0 -33 -6 -70l-5 -26h-384q-1 -13 -1 -24q0 -53 26 -89q32 -43 96 -43q92 0 135 83h111q-34 -90 -102.5 -136.5t-157.5 -46.5q-102 0 -162 60.5t-60 165.5zM164 324h265v7q0 115 -102 115 q-55 0 -97.5 -33.5t-65.5 -88.5z" />
<glyph unicode="f" horiz-adv-x="408" d="M60 430l21 100h92l13 66q17 81 63 117.5t137 36.5h116l-20 -100h-107q-59 0 -71 -62l-12 -58h154l-21 -100h-153l-88 -430h-119l88 430h-93z" />
<glyph unicode="g" horiz-adv-x="613" d="M2 -30h114q-1 -8 -1 -16q0 -29 21 -49q27 -25 89 -25q64 0 106.5 34t54.5 95l16 82q-63 -83 -171 -83q-91 0 -145.5 55.5t-54.5 155.5q0 135 78.5 231t200.5 96q66 0 109.5 -32.5t57.5 -90.5l37 110h90l-102 -524q-21 -108 -95.5 -166.5t-196.5 -58.5q-107 0 -166 50 q-46 39 -46 98q0 18 4 38zM150 235q0 -61 29 -94.5t82 -33.5q78 0 124 65t46 151q0 59 -28 91t-81 32q-75 0 -123.5 -63t-48.5 -148z" />
<glyph unicode="h" horiz-adv-x="578" d="M9 0l152 750h119l-56 -278q72 74 174 74q86 0 123 -55q25 -37 25 -90q0 -26 -6 -55l-69 -346h-119l68 339q4 19 4 35q0 69 -78 69q-57 0 -99 -35t-54 -89l-65 -319h-119z" />
<glyph unicode="i" horiz-adv-x="239" d="M6 0l108 530h119l-108 -530h-119zM127 678q0 32 22.5 54t54.5 22t54 -22t22 -54t-22 -54.5t-54 -22.5t-54.5 22.5t-22.5 54.5z" />
<glyph unicode="j" horiz-adv-x="240" d="M-177 -200l20 100h76q67 0 82 70l113 560h119l-115 -569q-17 -82 -68 -121.5t-143 -39.5h-84zM128 678q0 32 22 54t54 22q33 0 54.5 -22t21.5 -54q0 -33 -21.5 -55t-54.5 -22q-32 0 -54 22.5t-22 54.5z" />
<glyph unicode="k" horiz-adv-x="573" d="M9 0l152 750h119l-90 -445l264 225h151l-231 -191l149 -339h-127l-113 264l-123 -102l-32 -162h-119z" />
<glyph unicode="l" horiz-adv-x="243" d="M9 0l152 750h119l-152 -750h-119z" />
<glyph unicode="m" horiz-adv-x="914" d="M6 0l108 530h94l-5 -77q33 42 84 67.5t106 25.5q58 0 95 -27t48 -76q33 47 86 75t112 28q84 0 122 -54q25 -37 26 -91q0 -26 -6 -55l-69 -346h-119l68 339q4 19 4 35q0 69 -78 69q-54 0 -96 -32t-54 -83l-66 -328h-118l68 339q4 19 4 35q0 69 -79 69q-56 0 -98 -34.5 t-53 -87.5l-65 -321h-119z" />
<glyph unicode="n" d="M6 0l108 530h92l-4 -79q34 43 85.5 69t107.5 26q85 0 123 -55q25 -37 25 -90q0 -26 -6 -55l-69 -346h-119l68 339q4 19 4 35q0 69 -78 69q-56 0 -99 -34.5t-54 -87.5l-65 -321h-119z" />
<glyph unicode="o" horiz-adv-x="596" d="M28 203q0 144 90.5 243.5t234.5 99.5q102 0 159 -58.5t57 -156.5q0 -146 -88.5 -246t-233.5 -100q-103 0 -161 58.5t-58 159.5zM145 220q0 -66 33.5 -100t88.5 -34q82 0 133.5 68.5t51.5 161.5q0 62 -31.5 95.5t-89.5 33.5q-83 0 -134.5 -67t-51.5 -158z" />
<glyph unicode="p" horiz-adv-x="617" d="M-33 -200l148 730h93l-5 -93q34 49 89 79t118 30q81 0 130 -56.5t49 -157.5q0 -87 -32 -165t-97.5 -130t-151.5 -52q-61 0 -103.5 27t-60.5 73l-58 -285h-119zM179 219q0 -61 30 -97.5t82 -36.5q79 0 129.5 72t50.5 160q0 62 -27.5 95.5t-81.5 33.5q-82 0 -132.5 -68 t-50.5 -159z" />
<glyph unicode="q" horiz-adv-x="628" d="M29 205q0 141 81 241t208 100q67 0 111.5 -31.5t61.5 -88.5l36 104h93l-148 -730h-119l53 260q-66 -75 -169 -75q-95 0 -151.5 58.5t-56.5 161.5zM148 222q0 -65 30.5 -101t87.5 -36q84 0 133.5 69.5t49.5 161.5q0 61 -30.5 95.5t-86.5 34.5q-81 0 -132.5 -67t-51.5 -157 z" />
<glyph unicode="r" horiz-adv-x="390" d="M6 0l108 530h92l-5 -93q70 99 209 99h17l-23 -116h-17q-83 0 -137 -39.5t-71 -112.5l-54 -268h-119z" />
<glyph unicode="s" horiz-adv-x="491" d="M13 169h110q-1 -5 0 -10q-1 -35 23 -55q28 -22 78 -22q45 0 72 18t27 51q0 18 -9.5 30.5t-20.5 18.5t-34 15l-63 24q-65 25 -98 54.5t-33 88.5q1 72 59 118q60 46 150 46q92 0 145 -48q48 -44 48 -122v-15h-108q1 44 -24.5 66t-68.5 22q-41 0 -64.5 -16.5t-23.5 -43.5 q0 -14 5 -24.5t19 -18.5t19.5 -10t25.5 -10l58 -23q70 -28 102.5 -58.5t32.5 -85.5q0 -79 -59.5 -126.5t-153.5 -47.5q-108 1 -166 49q-49 41 -49 110q0 12 1 25z" />
<glyph unicode="t" horiz-adv-x="400" d="M60 430l21 100h91l37 181h120l-37 -181h136l-21 -100h-135l-54 -262q-3 -15 -2 -26q0 -18 6 -28q12 -14 49 -14h59l-20 -100h-65q-89 0 -127 42q-26 29 -25 74q0 21 5 46l54 268h-92z" />
<glyph unicode="u" horiz-adv-x="572" d="M35 187l70 343h118l-68 -338q-3 -16 -3 -29q0 -29 14 -47q22 -28 72 -28q54 0 92 33t51 85l66 324h119l-108 -530h-93l5 78q-58 -93 -172 -93q-92 0 -136 56q-32 40 -32 97q0 23 5 49z" />
<glyph unicode="v" horiz-adv-x="591" d="M67 530h121l75 -392l234 392h135l-329 -530h-123z" />
<glyph unicode="w" horiz-adv-x="789" d="M67 530h118l28 -386l185 386h98l28 -373l179 373h127l-265 -530h-122l-28 362l-175 -362h-124z" />
<glyph unicode="x" horiz-adv-x="556" d="M-37 0l254 273l-130 257h120l86 -176l158 176h142l-247 -270l133 -260h-122l-87 185l-163 -185h-144z" />
<glyph unicode="y" horiz-adv-x="584" d="M-45 -200l20 100h97q62 0 87 44l32 56h-22l-102 530h120l72 -412l236 412h130l-357 -621q-33 -57 -80 -83t-136 -26h-97z" />
<glyph unicode="z" horiz-adv-x="499" d="M-15 0l23 108l341 318h-267l21 104h407l-22 -108l-342 -317h281l-21 -105h-421z" />
<glyph unicode="{" horiz-adv-x="360" d="M31 276l17 83q40 0 65.5 16.5t31.5 47.5l39 189q15 77 59.5 114.5t132.5 37.5h68l-18 -91h-65q-62 0 -74 -64l-40 -195q-16 -77 -95 -98q70 -21 55 -99l-40 -194q-11 -60 49 -60h65l-19 -91h-77q-69 0 -102.5 38t-20.5 103l40 198q6 31 -12.5 48t-58.5 17z" />
<glyph unicode="|" horiz-adv-x="278" d="M2 -115l176 865h120l-176 -865h-120z" />
<glyph unicode="}" horiz-adv-x="360" d="M-62 -128l18 91h66q61 0 72 60l40 194q17 79 95 100q-69 23 -55 97l40 195q6 33 -4 48.5t-45 15.5h-65l19 91h68q160 0 131 -152l-39 -189q-6 -31 12.5 -47.5t58.5 -16.5l-16 -83q-84 0 -97 -65l-41 -198q-29 -141 -180 -141h-78z" />
<glyph unicode="~" horiz-adv-x="583" d="M25 201q13 96 56.5 145.5t104.5 49.5q42 0 82.5 -25.5t74.5 -51t60 -25.5q49 0 58 83h107q-25 -190 -149 -190q-35 0 -69.5 16t-57 34.5t-48.5 34.5t-47 16q-55 0 -67 -87h-105z" />
<glyph unicode="&#xa1;" horiz-adv-x="267" d="M-26 -217l116 565h118l-115 -565h-119zM99 470q0 32 22 54t54 22q33 0 55 -22t22 -54q0 -33 -22 -55t-55 -22q-32 0 -54 22t-22 55z" />
<glyph unicode="&#xa2;" horiz-adv-x="574" d="M45 291q0 130 78.5 226t206.5 111l23 114h80l-24 -115q85 -11 127 -68.5t32 -149.5h-111q5 97 -69 115l-72 -350q87 18 119 118h112q-27 -101 -92 -157t-160 -64l-24 -122h-80l26 125q-82 13 -127 70.5t-45 146.5zM162 305q0 -102 76 -127l71 345q-67 -17 -107 -79 t-40 -139z" />
<glyph unicode="&#xa3;" horiz-adv-x="651" d="M-10 0l22 109q167 0 167 115q0 30 -10 67h-120l19 90h73q-12 46 -12 90q0 110 75.5 177t198.5 67q108 0 165 -57t48 -175h-121q4 123 -105 123q-65 0 -101 -36t-36 -97q0 -42 15 -92h193l-19 -90h-148q6 -27 6 -53q0 -46 -31 -81.5t-78 -47.5h195q72 0 88 74l20 98h112 l-20 -98q-19 -93 -71 -138t-143 -45h-382z" />
<glyph unicode="&#xa4;" d="M5 102l99 81q-18 33 -18 80q0 101 64 171l-64 81l55 43l63 -79q58 35 130 35q69 0 111 -32l91 76l50 -49l-97 -80q17 -36 17 -82q0 -99 -66 -168l65 -83l-54 -44l-67 84q-58 -33 -128 -33q-62 0 -105 29l-96 -80zM191 286q0 -40 22 -62t62 -22q55 0 90.5 38.5t35.5 90.5 q0 40 -23 62.5t-62 22.5q-54 0 -89.5 -38.5t-35.5 -91.5z" />
<glyph unicode="&#xa5;" horiz-adv-x="672" d="M43 98l15 72h199l12 58h-199l14 71h199l-184 401h127l130 -289l246 289h149l-347 -401h204l-15 -71h-204l-12 -58h204l-14 -72h-204l-20 -98h-121l20 98h-199z" />
<glyph unicode="&#xa6;" horiz-adv-x="279" d="M2 -115l77 380h120l-77 -380h-120zM101 370l77 380h120l-77 -380h-120z" />
<glyph unicode="&#xa7;" horiz-adv-x="588" d="M32 77h110q-3 -39 24 -60.5t76 -21.5q45 0 73 18.5t28 52.5q0 24 -15 36t-49 26l-63 24q-65 25 -98 53.5t-33 79.5q-1 101 133 152q-69 40 -69 111q-1 75 60 121t153 46t143 -47t47 -133h-108q1 41 -23.5 62t-66.5 21q-41 0 -66.5 -17t-25.5 -45q0 -24 16 -36t47 -23 q4 -1 6 -2l58 -23q69 -28 101.5 -56.5t32.5 -75.5q0 -54 -40 -94t-102 -56q79 -42 79 -116q0 -81 -62.5 -128.5t-163.5 -47.5t-156.5 47.5t-45.5 131.5zM196 312q0 -18 5 -30t20 -21t20 -11.5t26 -10.5l63 -25q79 35 79 101q0 20 -10 33.5t-21 19.5t-35 16l-66 25 q-81 -37 -81 -97z" />
<glyph unicode="&#xa8;" horiz-adv-x="412" d="M109 665q0 30 21.5 51t51.5 21t51 -21t21 -51q0 -31 -21 -52t-51 -21t-51.5 21t-21.5 52zM321 665q0 30 21 51t52 21q30 0 51 -21t21 -51q0 -31 -21 -52t-51 -21q-31 0 -52 21t-21 52z" />
<glyph unicode="&#xa9;" horiz-adv-x="858" d="M53 261q0 130 57 240t164.5 177t242.5 67q149 0 235 -84t86 -235q0 -127 -55.5 -234.5t-163.5 -175t-247 -67.5q-146 0 -232.5 83.5t-86.5 228.5zM137 277q0 -118 63.5 -184t181.5 -66q163 0 267 115.5t104 274.5q0 117 -62.5 183.5t-179.5 66.5q-160 0 -267 -116 t-107 -274zM266 307q0 95 62.5 164.5t159.5 69.5q72 0 109.5 -40t30.5 -112h-78q3 37 -17 58.5t-56 21.5q-56 0 -92.5 -47t-36.5 -105q0 -43 22 -67t61 -24q76 0 103 81h78q-21 -73 -74 -112.5t-122 -39.5q-68 0 -109 40.5t-41 111.5z" />
<glyph unicode="&#xaa;" horiz-adv-x="454" d="M70 411q0 29 10 50t25 34t41 22t48 13t57 8q59 8 80.5 16.5t25.5 27.5q4 25 -15 39t-56 14q-82 0 -100 -63h-88q17 67 71.5 103t127.5 36q77 0 117.5 -39t26.5 -108l-27 -133q-9 -44 26 -44h14l-16 -75h-22q-44 0 -67 24q-10 14 -14 30q-43 -62 -131 -62 q-61 0 -97.5 29.5t-36.5 77.5zM158 421q0 -43 65 -45q42 -1 72.5 20t37.5 59l10 52q-7 -12 -25 -20t-30 -10.5t-40 -6.5q-5 -1 -13 -2q-29 -4 -41.5 -7.5t-24 -13t-11.5 -26.5z" />
<glyph unicode="&#xab;" horiz-adv-x="584" d="M29 230l21 98l253 211l69 -65l-249 -207l148 -185l-72 -65zM257 230l20 98l254 211l68 -65l-248 -207l148 -185l-72 -65z" />
<glyph unicode="&#xac;" horiz-adv-x="578" d="M31 240l20 98h492l-65 -321h-110l45 223h-382z" />
<glyph unicode="&#xad;" horiz-adv-x="521" d="M35 258l20 97h448l-20 -97h-448z" />
<glyph unicode="&#xae;" horiz-adv-x="597" d="M71 421q0 137 90.5 231.5t230.5 94.5q100 0 159.5 -59t59.5 -157q0 -140 -87 -233t-227 -93q-102 0 -164 58.5t-62 157.5zM141 432q0 -76 44.5 -118.5t122.5 -42.5q104 0 168.5 72t64.5 180q0 74 -41.5 115.5t-119.5 41.5q-104 0 -171.5 -72t-67.5 -176zM211 353l51 247 h135q34 0 54 -16.5t20 -43.5q0 -28 -19 -50.5t-49 -31.5q26 -5 29 -32l9 -73h-61l-6 62q-2 17 -22 17h-64l-16 -79h-61zM299 482h76q16 0 26 12.5t10 27.5q0 24 -24 24h-75z" />
<glyph unicode="&#xaf;" horiz-adv-x="418" d="M86 620l19 93h390l-19 -93h-390z" />
<glyph unicode="&#xb0;" horiz-adv-x="365" d="M87 530q6 69 57 119t124 49q64 0 96.5 -40.5t26.5 -101.5q-6 -69 -55.5 -118.5t-123.5 -49.5q-66 1 -98.5 41t-26.5 101zM169 534q-2 -29 13 -47.5t43 -18.5q35 0 58.5 25.5t25.5 59.5q2 28 -12 46.5t-43 18.5q-35 0 -59 -25t-26 -59z" />
<glyph unicode="&#xb1;" horiz-adv-x="612" d="M-8 19l21 98h526l-20 -98h-527zM51 304l20 98h209l30 146h108l-30 -146h209l-20 -98h-209l-30 -146h-108l30 146h-209z" />
<glyph unicode="&#xb2;" horiz-adv-x="376" d="M88 412l7 34q10 54 46.5 91.5t74.5 53.5t71 38t38 48q4 24 -9.5 39.5t-37.5 15.5q-56 0 -70 -63h-85q13 69 56.5 104.5t106.5 35.5q64 0 99 -39.5t25 -96.5q-7 -36 -34.5 -64t-58.5 -43t-64.5 -36t-48.5 -42h178l-15 -76h-279z" />
<glyph unicode="&#xb3;" horiz-adv-x="373" d="M86 541h84q-2 -30 15 -47t51 -17q30 0 49.5 14.5t19.5 43.5q0 20 -13.5 31t-37.5 11h-60l14 67h57q27 0 43.5 14.5t16.5 35.5q0 19 -13.5 30t-34.5 11q-59 0 -72 -57h-86q13 64 58 97.5t108 33.5q56 0 88.5 -26.5t32.5 -70.5q0 -36 -24 -63.5t-63 -37.5q33 -9 51.5 -32 t18.5 -55q0 -54 -43.5 -88t-114.5 -34t-111.5 36.5t-33.5 102.5z" />
<glyph unicode="&#xb4;" horiz-adv-x="366" d="M86 648l314 220l66 -71l-314 -220z" />
<glyph unicode="&#xb6;" horiz-adv-x="641" d="M74 430q0 114 81.5 192t201.5 78h294l-164 -803h-107l144 707h-72l-145 -707h-107l73 356h-8q-89 0 -140 48.5t-51 128.5z" />
<glyph unicode="&#xb7;" horiz-adv-x="248" d="M58 317q0 33 22 55t55 22t55 -22t22 -55q0 -32 -22 -54t-55 -22t-55 22t-22 54z" />
<glyph unicode="&#xb8;" horiz-adv-x="173" d="M-85 -208l98 224l95 -16l-99 -226z" />
<glyph unicode="&#xb9;" horiz-adv-x="281" d="M101 647l18 90h14q79 0 94 57l1 6h89l-79 -388h-89l56 274q-27 -39 -90 -39h-14z" />
<glyph unicode="&#xba;" horiz-adv-x="450" d="M78 460q0 106 65.5 178.5t169.5 72.5q75 0 116.5 -42.5t41.5 -114.5q0 -105 -64.5 -178t-170.5 -73q-73 0 -115.5 42.5t-42.5 114.5zM167 474q0 -45 22 -70t59 -25q60 0 97 50t37 113q0 44 -21.5 68.5t-61.5 24.5q-61 0 -96.5 -48.5t-35.5 -112.5z" />
<glyph unicode="&#xbb;" horiz-adv-x="586" d="M-10 82l253 209l-145 183l71 65l168 -211l-20 -98l-256 -213zM215 82l253 209l-146 183l71 65l169 -211l-21 -98l-256 -213z" />
<glyph unicode="&#xbc;" horiz-adv-x="802" d="M29 7l658 735l90 -43l-658 -736zM81 548l18 90h14q79 0 94 56l1 6h89l-79 -388h-89l56 275q-26 -39 -90 -39h-14zM412 74l16 81l232 233h88l-50 -241h61l-15 -73h-60l-15 -74h-89l15 74h-183zM506 147h104l27 132z" />
<glyph unicode="&#xbd;" horiz-adv-x="868" d="M29 7l658 735l90 -43l-658 -736zM81 548l18 90h14q79 0 94 56l1 6h89l-79 -388h-89l56 275q-26 -39 -90 -39h-14zM497 0l6 34q9 44 34.5 77t56 51t60.5 32.5t52.5 32t26.5 39.5q4 24 -9 39.5t-37 15.5q-27 0 -45.5 -17t-25.5 -47h-85q13 70 57 105.5t106 35.5 q64 0 99.5 -40t24.5 -96q-6 -37 -33.5 -65t-58.5 -42.5t-64.5 -35.5t-48.5 -42h178l-15 -77h-279z" />
<glyph unicode="&#xbe;" horiz-adv-x="905" d="M61 441h84q-3 -30 14 -46.5t51 -16.5q30 0 49.5 14.5t19.5 42.5q0 43 -51 43h-59l13 66h57q27 0 43.5 14.5t16.5 36.5q0 18 -13.5 29t-34.5 11q-28 0 -47 -15t-24 -41h-86q13 64 58 97.5t107 33.5q57 0 89 -26.5t32 -70.5q0 -36 -24 -63.5t-62 -37.5q32 -10 51 -33.5 t19 -54.5q0 -53 -44 -87t-115 -34t-111.5 36t-32.5 102zM131 7l659 735l90 -43l-659 -736zM514 74l17 81l232 233h87l-49 -241h60l-14 -73h-61l-15 -74h-88l15 74h-184zM608 147h104l28 132z" />
<glyph unicode="&#xbf;" horiz-adv-x="548" d="M-4 42q8 43 33.5 76.5t56 55t60.5 40.5t53 42t28 49l8 39h116l-8 -39q-9 -45 -34 -79.5t-55 -55.5t-60 -40t-52.5 -43.5t-28.5 -54.5q-9 -46 18 -76t78 -30q57 0 96 36.5t51 102.5h122q-20 -119 -94.5 -183t-180.5 -64q-109 0 -167 64t-40 160zM232 470q0 32 22 54t55 22 q32 0 54 -22t22 -54q0 -33 -22 -55t-54 -22q-33 0 -55 22t-22 55z" />
<glyph unicode="&#xc0;" horiz-adv-x="729" d="M-37 -3l429 701h119l145 -701h-117l-35 173h-306l-105 -173h-130zM238 967l65 68l238 -233l-66 -68zM263 279h220l-56 269z" />
<glyph unicode="&#xc1;" horiz-adv-x="729" d="M-37 -3l429 701h119l145 -701h-117l-35 173h-306l-105 -173h-130zM263 279h220l-56 269zM377 805l314 220l65 -71l-314 -220z" />
<glyph unicode="&#xc2;" horiz-adv-x="729" d="M-37 -3l429 701h119l145 -701h-117l-35 173h-306l-105 -173h-130zM253 805l215 164h77l159 -176l-79 -56l-124 143l-183 -143zM263 279h220l-56 269z" />
<glyph unicode="&#xc3;" horiz-adv-x="729" d="M-37 -3l429 701h119l145 -701h-117l-35 173h-306l-105 -173h-130zM263 279h220l-56 269zM278 778q5 71 39.5 112.5t82.5 41.5q29 0 58 -18t53.5 -36t43.5 -18q38 0 40 64h90q-1 -74 -31.5 -112.5t-78.5 -38.5q-40 0 -89.5 35t-67.5 35q-43 0 -48 -65h-92z" />
<glyph unicode="&#xc4;" horiz-adv-x="729" d="M-37 -3l429 701h119l145 -701h-117l-35 173h-306l-105 -173h-130zM263 279h220l-56 269zM299 826q0 30 21 51t52 21q30 0 51 -21t21 -51t-21 -51.5t-51 -21.5q-31 0 -52 21.5t-21 51.5zM510 826q0 30 21.5 51t51.5 21t51 -21t21 -51t-21 -51.5t-51 -21.5t-51.5 21.5 t-21.5 51.5z" />
<glyph unicode="&#xc5;" horiz-adv-x="729" d="M-37 -3l429 701h119l145 -701h-117l-35 173h-306l-105 -173h-130zM263 279h220l-56 269zM364 847q0 47 33 78.5t82 31.5q50 0 83.5 -31.5t33.5 -78.5t-33.5 -78.5t-83.5 -31.5q-49 0 -82 31.5t-33 78.5zM430 847q0 -20 13.5 -34.5t35.5 -14.5t36 14.5t14 34.5 q0 21 -13.5 35t-36.5 14t-36 -14t-13 -35z" />
<glyph unicode="&#xc6;" horiz-adv-x="975" d="M-36 0l406 700h645l-22 -108h-369l-36 -180h334l-22 -105h-334l-40 -199h377l-21 -108h-498l35 173h-228l-100 -173h-127zM253 279h187l64 312h-70z" />
<glyph unicode="&#xc7;" horiz-adv-x="751" d="M53 269q0 187 115.5 316.5t299.5 129.5q132 0 204 -73.5t68 -211.5h-120q0 177 -167 177q-123 0 -201 -96t-78 -229q0 -91 46.5 -139.5t133.5 -48.5q78 0 140 45t96 131h121q-88 -260 -328 -283l-93 -213l-93 18l85 197q-107 15 -168 88t-61 192z" />
<glyph unicode="&#xc8;" horiz-adv-x="611" d="M20 0l142 700h489l-22 -108h-369l-36 -180h334l-22 -105h-334l-40 -199h377l-21 -108h-498zM197 967l65 68l238 -233l-66 -68z" />
<glyph unicode="&#xc9;" horiz-adv-x="611" d="M20 0l142 700h489l-22 -108h-369l-36 -180h334l-22 -105h-334l-40 -199h377l-21 -108h-498zM337 805l314 220l65 -71l-314 -220z" />
<glyph unicode="&#xca;" horiz-adv-x="611" d="M20 0l142 700h489l-22 -108h-369l-36 -180h334l-22 -105h-334l-40 -199h377l-21 -108h-498zM213 805l215 164h77l159 -176l-79 -56l-124 143l-183 -143z" />
<glyph unicode="&#xcb;" horiz-adv-x="611" d="M20 0l142 700h489l-22 -108h-369l-36 -180h334l-22 -105h-334l-40 -199h377l-21 -108h-498zM259 826q0 30 21 51t52 21q30 0 51 -21t21 -51t-21 -51.5t-51 -21.5q-31 0 -52 21.5t-21 51.5zM470 826q0 30 21.5 51t51.5 21t51 -21t21 -51t-21 -51.5t-51 -21.5t-51.5 21.5 t-21.5 51.5z" />
<glyph unicode="&#xcc;" horiz-adv-x="267" d="M7 967l65 68l238 -233l-66 -68zM20 0l142 700h120l-142 -700h-120z" />
<glyph unicode="&#xcd;" horiz-adv-x="267" d="M20 0l142 700h120l-142 -700h-120zM147 805l314 220l65 -71l-314 -220z" />
<glyph unicode="&#xce;" horiz-adv-x="267" d="M20 0l142 700h120l-142 -700h-120zM23 805l215 164h77l159 -176l-79 -56l-124 143l-183 -143z" />
<glyph unicode="&#xcf;" horiz-adv-x="267" d="M20 0l142 700h120l-142 -700h-120zM69 826q0 30 21 51t52 21q30 0 51 -21t21 -51t-21 -51.5t-51 -21.5q-31 0 -52 21.5t-21 51.5zM280 826q0 30 21.5 51t51.5 21t51 -21t21 -51t-21 -51.5t-51 -21.5t-51.5 21.5t-21.5 51.5z" />
<glyph unicode="&#xd0;" horiz-adv-x="744" d="M4 314l18 86h113l61 300h252q129 0 204 -69.5t75 -198.5q0 -114 -48 -211.5t-144 -159t-220 -61.5h-261l64 314h-114zM197 108h143q117 0 191.5 94.5t74.5 217.5q0 82 -43.5 127t-127.5 45h-140l-39 -192h204l-18 -86h-204z" />
<glyph unicode="&#xd1;" horiz-adv-x="744" d="M20 0l142 700h125l243 -534l109 534h120l-142 -700h-126l-242 534l-109 -534h-120zM287 778q5 71 39.5 112.5t82.5 41.5q29 0 58 -18t53.5 -36t43.5 -18q38 0 40 64h90q-1 -74 -31.5 -112.5t-78.5 -38.5q-40 0 -89.5 35t-67.5 35q-43 0 -48 -65h-92z" />
<glyph unicode="&#xd2;" horiz-adv-x="767" d="M54 278q0 184 117 310.5t297 126.5q129 0 204 -78.5t75 -215.5q0 -182 -112 -309t-292 -127q-131 0 -210 77t-79 216zM173 288q0 -93 47.5 -143.5t133.5 -50.5q117 0 195 92t78 228q0 92 -46 142.5t-128 50.5q-120 0 -200 -92t-80 -227zM250 967l65 68l238 -233l-66 -68z " />
<glyph unicode="&#xd3;" horiz-adv-x="767" d="M54 278q0 184 117 310.5t297 126.5q129 0 204 -78.5t75 -215.5q0 -182 -112 -309t-292 -127q-131 0 -210 77t-79 216zM173 288q0 -93 47.5 -143.5t133.5 -50.5q117 0 195 92t78 228q0 92 -46 142.5t-128 50.5q-120 0 -200 -92t-80 -227zM390 805l314 220l65 -71 l-314 -220z" />
<glyph unicode="&#xd4;" horiz-adv-x="767" d="M54 278q0 184 117 310.5t297 126.5q129 0 204 -78.5t75 -215.5q0 -182 -112 -309t-292 -127q-131 0 -210 77t-79 216zM173 288q0 -93 47.5 -143.5t133.5 -50.5q117 0 195 92t78 228q0 92 -46 142.5t-128 50.5q-120 0 -200 -92t-80 -227zM266 805l215 164h77l159 -176 l-79 -56l-124 143l-183 -143z" />
<glyph unicode="&#xd5;" horiz-adv-x="767" d="M54 278q0 184 117 310.5t297 126.5q129 0 204 -78.5t75 -215.5q0 -182 -112 -309t-292 -127q-131 0 -210 77t-79 216zM173 288q0 -93 47.5 -143.5t133.5 -50.5q117 0 195 92t78 228q0 92 -46 142.5t-128 50.5q-120 0 -200 -92t-80 -227zM290 778q5 71 39.5 112.5 t82.5 41.5q29 0 58 -18t53.5 -36t43.5 -18q38 0 40 64h90q-1 -74 -31.5 -112.5t-78.5 -38.5q-40 0 -89.5 35t-67.5 35q-43 0 -48 -65h-92z" />
<glyph unicode="&#xd6;" horiz-adv-x="767" d="M54 278q0 184 117 310.5t297 126.5q129 0 204 -78.5t75 -215.5q0 -182 -112 -309t-292 -127q-131 0 -210 77t-79 216zM173 288q0 -93 47.5 -143.5t133.5 -50.5q117 0 195 92t78 228q0 92 -46 142.5t-128 50.5q-120 0 -200 -92t-80 -227zM312 826q0 30 21 51t52 21 q30 0 51 -21t21 -51t-21 -51.5t-51 -21.5q-31 0 -52 21.5t-21 51.5zM523 826q0 30 21.5 51t51.5 21t51 -21t21 -51t-21 -51.5t-51 -21.5t-51.5 21.5t-21.5 51.5z" />
<glyph unicode="&#xd7;" horiz-adv-x="530" d="M6 140l189 157l-125 156l74 67l127 -160l196 163l69 -70l-204 -169l117 -147l-74 -67l-119 150l-181 -150z" />
<glyph unicode="&#xd8;" horiz-adv-x="769" d="M-10 -24l117 117q-53 75 -53 185q0 184 117 310.5t297 126.5q117 0 191 -66l109 110l54 -41l-120 -121q45 -71 45 -176q0 -182 -112 -309t-292 -127q-116 0 -190 60l-109 -110zM173 288q0 -60 22 -106l379 382q-46 43 -121 43q-120 0 -200 -92t-80 -227zM237 129 q46 -35 117 -35q117 0 195 92t78 228q0 53 -15 92z" />
<glyph unicode="&#xd9;" horiz-adv-x="702" d="M61 233l95 467h120l-94 -465q-27 -140 133 -140q73 0 126 33.5t68 107.5l94 464h120l-94 -468q-24 -119 -109 -183t-224 -64q-124 0 -191 66.5t-44 181.5zM226 967l65 68l238 -233l-66 -68z" />
<glyph unicode="&#xda;" horiz-adv-x="702" d="M61 233l95 467h120l-94 -465q-27 -140 133 -140q73 0 126 33.5t68 107.5l94 464h120l-94 -468q-24 -119 -109 -183t-224 -64q-124 0 -191 66.5t-44 181.5zM365 805l314 220l65 -71l-314 -220z" />
<glyph unicode="&#xdb;" horiz-adv-x="702" d="M61 233l95 467h120l-94 -465q-27 -140 133 -140q73 0 126 33.5t68 107.5l94 464h120l-94 -468q-24 -119 -109 -183t-224 -64q-124 0 -191 66.5t-44 181.5zM241 805l215 164h77l159 -176l-79 -56l-124 143l-183 -143z" />
<glyph unicode="&#xdc;" horiz-adv-x="702" d="M61 233l95 467h120l-94 -465q-27 -140 133 -140q73 0 126 33.5t68 107.5l94 464h120l-94 -468q-24 -119 -109 -183t-224 -64q-124 0 -191 66.5t-44 181.5zM287 826q0 30 21 51t52 21q30 0 51 -21t21 -51t-21 -51.5t-51 -21.5q-31 0 -52 21.5t-21 51.5zM498 826 q0 30 21.5 51t51.5 21t51 -21t21 -51t-21 -51.5t-51 -21.5t-51.5 21.5t-21.5 51.5z" />
<glyph unicode="&#xdd;" horiz-adv-x="672" d="M99 700h127l130 -289l246 289h149l-347 -401l-61 -299h-121l61 299zM339 805l314 220l65 -71l-314 -220z" />
<glyph unicode="&#xde;" horiz-adv-x="687" d="M20 0l142 700h120l-25 -122h231q83 0 133.5 -48.5t50.5 -133.5q0 -110 -74 -188t-197 -78h-235l-26 -130h-120zM188 238h228q60 0 97.5 44t37.5 100q0 88 -90 88h-226z" />
<glyph unicode="&#xdf;" horiz-adv-x="589" d="M8 0l101 495q22 108 93 164t175 56q91 0 144.5 -45.5t53.5 -119.5t-52 -126t-134 -63q69 -11 107.5 -51.5t38.5 -108.5q0 -96 -70 -156t-183 -60q-53 0 -104 17l20 103q40 -19 86 -19q62 0 99.5 34.5t37.5 88.5q0 46 -28 70t-77 24h-50l19 103h50q54 0 89.5 33.5 t35.5 84.5q0 42 -26 66t-71 24q-53 0 -89.5 -30.5t-48.5 -91.5l-99 -492h-118z" />
<glyph unicode="&#xe0;" d="M11 135q0 39 14 68t34.5 46.5t56.5 30t66 18.5t78 12q87 11 107 20q32 14 38 44q6 33 -18.5 54t-75.5 21q-114 0 -140 -93h-118q23 92 94.5 141t169.5 49q106 0 161 -52.5t37 -145.5l-42 -204q-5 -28 2.5 -40t31.5 -12h21l-19 -92h-30q-66 0 -91 34q-15 18 -16 39 q-62 -84 -180 -84q-83 0 -132 40t-49 106zM103 811l66 67l238 -232l-66 -69zM130 146q0 -62 90 -64q60 0 100.5 31t51.5 86l17 76q-12 -16 -36 -26t-42.5 -13.5t-54.5 -8.5q-33 -4 -50.5 -8t-37.5 -12t-29 -23t-9 -38z" />
<glyph unicode="&#xe1;" d="M11 135q0 39 14 68t34.5 46.5t56.5 30t66 18.5t78 12q87 11 107 20q32 14 38 44q6 33 -18.5 54t-75.5 21q-114 0 -140 -93h-118q23 92 94.5 141t169.5 49q106 0 161 -52.5t37 -145.5l-42 -204q-5 -28 2.5 -40t31.5 -12h21l-19 -92h-30q-66 0 -91 34q-15 18 -16 39 q-62 -84 -180 -84q-83 0 -132 40t-49 106zM130 146q0 -62 90 -64q60 0 100.5 31t51.5 86l17 76q-12 -16 -36 -26t-42.5 -13.5t-54.5 -8.5q-33 -4 -50.5 -8t-37.5 -12t-29 -23t-9 -38zM242 648l314 220l66 -71l-314 -220z" />
<glyph unicode="&#xe2;" d="M11 135q0 39 14 68t34.5 46.5t56.5 30t66 18.5t78 12q87 11 107 20q32 14 38 44q6 33 -18.5 54t-75.5 21q-114 0 -140 -93h-118q23 92 94.5 141t169.5 49q106 0 161 -52.5t37 -145.5l-42 -204q-5 -28 2.5 -40t31.5 -12h21l-19 -92h-30q-66 0 -91 34q-15 18 -16 39 q-62 -84 -180 -84q-83 0 -132 40t-49 106zM111 643l222 170h78l163 -182l-81 -54l-127 147l-187 -147zM130 146q0 -62 90 -64q60 0 100.5 31t51.5 86l17 76q-12 -16 -36 -26t-42.5 -13.5t-54.5 -8.5q-33 -4 -50.5 -8t-37.5 -12t-29 -23t-9 -38z" />
<glyph unicode="&#xe3;" d="M11 135q0 39 14 68t34.5 46.5t56.5 30t66 18.5t78 12q87 11 107 20q32 14 38 44q6 33 -18.5 54t-75.5 21q-114 0 -140 -93h-118q23 92 94.5 141t169.5 49q106 0 161 -52.5t37 -145.5l-42 -204q-5 -28 2.5 -40t31.5 -12h21l-19 -92h-30q-66 0 -91 34q-15 18 -16 39 q-62 -84 -180 -84q-83 0 -132 40t-49 106zM130 146q0 -62 90 -64q60 0 100.5 31t51.5 86l17 76q-12 -16 -36 -26t-42.5 -13.5t-54.5 -8.5q-33 -4 -50.5 -8t-37.5 -12t-29 -23t-9 -38zM145 628q5 71 39.5 112.5t82.5 41.5q29 0 58 -18t53.5 -35.5t43.5 -17.5q38 0 40 63h90 q-1 -73 -31.5 -112t-78.5 -39q-40 0 -89.5 35.5t-67.5 35.5q-21 0 -33.5 -18.5t-14.5 -47.5h-92z" />
<glyph unicode="&#xe4;" d="M11 135q0 39 14 68t34.5 46.5t56.5 30t66 18.5t78 12q87 11 107 20q32 14 38 44q6 33 -18.5 54t-75.5 21q-114 0 -140 -93h-118q23 92 94.5 141t169.5 49q106 0 161 -52.5t37 -145.5l-42 -204q-5 -28 2.5 -40t31.5 -12h21l-19 -92h-30q-66 0 -91 34q-15 18 -16 39 q-62 -84 -180 -84q-83 0 -132 40t-49 106zM130 146q0 -62 90 -64q60 0 100.5 31t51.5 86l17 76q-12 -16 -36 -26t-42.5 -13.5t-54.5 -8.5q-33 -4 -50.5 -8t-37.5 -12t-29 -23t-9 -38zM164 665q0 30 21.5 51t51.5 21t51 -21t21 -51q0 -31 -21 -52t-51 -21t-51.5 21t-21.5 52z M376 665q0 30 21 51t52 21q30 0 51 -21t21 -51q0 -31 -21 -52t-51 -21q-31 0 -52 21t-21 52z" />
<glyph unicode="&#xe5;" d="M11 135q0 39 14 68t34.5 46.5t56.5 30t66 18.5t78 12q87 11 107 20q32 14 38 44q6 33 -18.5 54t-75.5 21q-114 0 -140 -93h-118q23 92 94.5 141t169.5 49q106 0 161 -52.5t37 -145.5l-42 -204q-5 -28 2.5 -40t31.5 -12h21l-19 -92h-30q-66 0 -91 34q-15 18 -16 39 q-62 -84 -180 -84q-83 0 -132 40t-49 106zM130 146q0 -62 90 -64q60 0 100.5 31t51.5 86l17 76q-12 -16 -36 -26t-42.5 -13.5t-54.5 -8.5q-33 -4 -50.5 -8t-37.5 -12t-29 -23t-9 -38zM230 685q0 47 33 78.5t83 31.5t83 -31.5t33 -78.5t-33.5 -78.5t-82.5 -31.5t-82.5 31.5 t-33.5 78.5zM299 685q0 -20 12.5 -33t34.5 -13q21 0 34 13.5t13 32.5t-13 33t-34 14q-22 0 -34.5 -13.5t-12.5 -33.5z" />
<glyph unicode="&#xe6;" horiz-adv-x="939" d="M11 135q0 39 14 68t34.5 46.5t56 30.5t67 18.5t77.5 11.5q89 10 111 21q28 14 34 43q6 33 -18.5 54t-75.5 21q-114 0 -140 -93h-118q23 92 96.5 141t171.5 49q136 0 181 -86q84 86 210 86q108 0 162.5 -74t32.5 -205l-5 -26h-384q-7 -70 25 -113t96 -43q92 0 135 83h111 q-34 -90 -102.5 -136.5t-157.5 -46.5q-81 0 -135.5 38t-75.5 107q-60 -141 -220 -141q-85 0 -134 40t-49 106zM130 146q0 -62 90 -64q62 0 100.5 33.5t51.5 88.5l17 71q-12 -16 -36 -26t-42.5 -13.5t-54.5 -8.5q-33 -4 -50.5 -8t-37.5 -12t-29 -23t-9 -38zM538 324h265 q3 122 -102 122q-55 0 -97.5 -33.5t-65.5 -88.5z" />
<glyph unicode="&#xe7;" horiz-adv-x="574" d="M28 207q0 141 90.5 240t234.5 99q103 0 156 -59.5t42 -161.5h-111q5 120 -105 120q-84 0 -137 -67t-53 -157q0 -67 33 -101t88 -34q53 0 93 31t59 91h112q-25 -96 -85.5 -152t-147.5 -68l-94 -214l-93 18l86 198q-80 15 -124 72t-44 145z" />
<glyph unicode="&#xe8;" horiz-adv-x="565" d="M29 211q0 136 84 235.5t223 99.5q109 0 164 -74t33 -205l-5 -26h-384q-7 -70 25 -113t96 -43q92 0 135 83h111q-34 -90 -102.5 -136.5t-157.5 -46.5q-102 0 -162 60.5t-60 165.5zM123 811l66 67l238 -232l-66 -69zM164 324h265q3 122 -102 122q-55 0 -97.5 -33.5 t-65.5 -88.5z" />
<glyph unicode="&#xe9;" horiz-adv-x="565" d="M29 211q0 136 84 235.5t223 99.5q109 0 164 -74t33 -205l-5 -26h-384q-7 -70 25 -113t96 -43q92 0 135 83h111q-34 -90 -102.5 -136.5t-157.5 -46.5q-102 0 -162 60.5t-60 165.5zM164 324h265q3 122 -102 122q-55 0 -97.5 -33.5t-65.5 -88.5zM261 648l314 220l66 -71 l-314 -220z" />
<glyph unicode="&#xea;" horiz-adv-x="565" d="M29 211q0 136 84 235.5t223 99.5q109 0 164 -74t33 -205l-5 -26h-384q-7 -70 25 -113t96 -43q92 0 135 83h111q-34 -90 -102.5 -136.5t-157.5 -46.5q-102 0 -162 60.5t-60 165.5zM130 643l222 170h78l163 -182l-81 -54l-127 147l-187 -147zM164 324h265q3 122 -102 122 q-55 0 -97.5 -33.5t-65.5 -88.5z" />
<glyph unicode="&#xeb;" horiz-adv-x="565" d="M29 211q0 136 84 235.5t223 99.5q109 0 164 -74t33 -205l-5 -26h-384q-7 -70 25 -113t96 -43q92 0 135 83h111q-34 -90 -102.5 -136.5t-157.5 -46.5q-102 0 -162 60.5t-60 165.5zM164 324h265q3 122 -102 122q-55 0 -97.5 -33.5t-65.5 -88.5zM183 665q0 30 21.5 51 t51.5 21t51 -21t21 -51q0 -31 -21 -52t-51 -21t-51.5 21t-21.5 52zM395 665q0 30 21 51t52 21q30 0 51 -21t21 -51q0 -31 -21 -52t-51 -21q-31 0 -52 21t-21 52z" />
<glyph unicode="&#xec;" horiz-adv-x="249" d="M-33 811l66 67l238 -232l-66 -69zM11 0l109 530h118l-109 -530h-118z" />
<glyph unicode="&#xed;" horiz-adv-x="249" d="M11 0l109 530h118l-109 -530h-118zM106 648l314 220l66 -71l-314 -220z" />
<glyph unicode="&#xee;" horiz-adv-x="249" d="M-26 643l223 170h78l163 -182l-81 -54l-127 147l-187 -147zM11 0l109 530h118l-109 -530h-118z" />
<glyph unicode="&#xef;" horiz-adv-x="249" d="M11 0l109 530h118l-109 -530h-118zM28 665q0 30 21.5 51t51.5 21t51 -21t21 -51q0 -31 -21 -52t-51 -21t-51.5 21t-21.5 52zM240 665q0 30 21 51t52 21q30 0 51 -21t21 -51q0 -31 -21 -52t-51 -21q-31 0 -52 21t-21 52z" />
<glyph unicode="&#xf0;" horiz-adv-x="578" d="M26 199q0 123 75 209t196 86q56 0 96 -23.5t57 -66.5q5 110 -66 174l-196 -76l-34 79l134 52q-43 16 -101 27l38 98q116 -25 192 -76l152 58l34 -77l-116 -45q68 -83 68 -217q0 -78 -19.5 -150.5t-57.5 -132.5t-100.5 -96t-141.5 -36q-91 0 -150.5 57.5t-59.5 155.5z M144 206q0 -55 29 -87.5t78 -32.5q72 0 117.5 60t45.5 137q0 53 -28 83t-78 30q-73 0 -118.5 -55.5t-45.5 -134.5z" />
<glyph unicode="&#xf1;" d="M6 0l108 530h92l-4 -79q34 43 85.5 69t107.5 26q85 0 122.5 -55t19.5 -145l-69 -346h-119l68 339q22 104 -74 104q-56 0 -99 -34.5t-54 -87.5l-65 -321h-119zM184 628q5 71 39.5 112.5t82.5 41.5q29 0 58 -18t53.5 -35.5t43.5 -17.5q38 0 40 63h90q-1 -73 -31.5 -112 t-78.5 -39q-40 0 -89.5 35.5t-67.5 35.5q-42 0 -48 -66h-92z" />
<glyph unicode="&#xf2;" horiz-adv-x="596" d="M28 203q0 144 90.5 243.5t234.5 99.5q102 0 159 -58.5t57 -156.5q0 -146 -88.5 -246t-233.5 -100q-103 0 -161 58.5t-58 159.5zM139 811l66 67l238 -232l-66 -69zM145 220q0 -66 33.5 -100t88.5 -34q82 0 133.5 68.5t51.5 161.5q0 62 -31.5 95.5t-89.5 33.5 q-83 0 -134.5 -67t-51.5 -158z" />
<glyph unicode="&#xf3;" horiz-adv-x="596" d="M28 203q0 144 90.5 243.5t234.5 99.5q102 0 159 -58.5t57 -156.5q0 -146 -88.5 -246t-233.5 -100q-103 0 -161 58.5t-58 159.5zM145 220q0 -66 33.5 -100t88.5 -34q82 0 133.5 68.5t51.5 161.5q0 62 -31.5 95.5t-89.5 33.5q-83 0 -134.5 -67t-51.5 -158zM278 648l314 220 l66 -71l-314 -220z" />
<glyph unicode="&#xf4;" horiz-adv-x="596" d="M28 203q0 144 90.5 243.5t234.5 99.5q102 0 159 -58.5t57 -156.5q0 -146 -88.5 -246t-233.5 -100q-103 0 -161 58.5t-58 159.5zM145 220q0 -66 33.5 -100t88.5 -34q82 0 133.5 68.5t51.5 161.5q0 62 -31.5 95.5t-89.5 33.5q-83 0 -134.5 -67t-51.5 -158zM147 643l222 170 h78l163 -182l-81 -54l-127 147l-187 -147z" />
<glyph unicode="&#xf5;" horiz-adv-x="596" d="M28 203q0 144 90.5 243.5t234.5 99.5q102 0 159 -58.5t57 -156.5q0 -146 -88.5 -246t-233.5 -100q-103 0 -161 58.5t-58 159.5zM145 220q0 -66 33.5 -100t88.5 -34q82 0 133.5 68.5t51.5 161.5q0 62 -31.5 95.5t-89.5 33.5q-83 0 -134.5 -67t-51.5 -158zM181 628 q5 71 39.5 112.5t82.5 41.5q29 0 58 -18t53.5 -35.5t43.5 -17.5q38 0 40 63h90q-1 -73 -31.5 -112t-78.5 -39q-40 0 -89.5 35.5t-67.5 35.5q-21 0 -33.5 -18.5t-14.5 -47.5h-92z" />
<glyph unicode="&#xf6;" horiz-adv-x="596" d="M28 203q0 144 90.5 243.5t234.5 99.5q102 0 159 -58.5t57 -156.5q0 -146 -88.5 -246t-233.5 -100q-103 0 -161 58.5t-58 159.5zM145 220q0 -66 33.5 -100t88.5 -34q82 0 133.5 68.5t51.5 161.5q0 62 -31.5 95.5t-89.5 33.5q-83 0 -134.5 -67t-51.5 -158zM200 665 q0 30 21.5 51t51.5 21t51 -21t21 -51q0 -31 -21 -52t-51 -21t-51.5 21t-21.5 52zM412 665q0 30 21 51t52 21q30 0 51 -21t21 -51q0 -31 -21 -52t-51 -21q-31 0 -52 21t-21 52z" />
<glyph unicode="&#xf7;" horiz-adv-x="582" d="M35 258l20 97h508l-20 -97h-508zM183 114q0 32 22 53.5t55 21.5t55 -21.5t22 -53.5q0 -33 -22 -55.5t-55 -22.5t-55 22.5t-22 55.5zM261 503q0 32 22 53.5t55 21.5t55.5 -21.5t22.5 -53.5q0 -33 -22.5 -55t-55.5 -22t-55 22t-22 55z" />
<glyph unicode="&#xf8;" horiz-adv-x="596" d="M-10 -12l77 78q-39 54 -39 137q0 144 90.5 243.5t234.5 99.5q88 0 143 -44l65 65l55 -35l-78 -78q31 -53 31 -123q0 -146 -88.5 -246t-233.5 -100q-81 0 -136 37l-68 -69zM145 220q0 -36 11 -64l258 262q-31 27 -83 27q-83 0 -134.5 -67t-51.5 -158zM195 106 q31 -20 72 -20q82 0 133.5 68.5t51.5 161.5q0 22 -5 45z" />
<glyph unicode="&#xf9;" horiz-adv-x="572" d="M35 187l70 343h118l-68 -338q-10 -49 11.5 -76.5t71.5 -27.5q54 0 92 33t51 85l66 324h119l-108 -530h-93l5 78q-58 -93 -172 -93q-92 0 -136.5 56t-26.5 146zM120 811l66 67l238 -232l-66 -69z" />
<glyph unicode="&#xfa;" horiz-adv-x="572" d="M35 187l70 343h118l-68 -338q-10 -49 11.5 -76.5t71.5 -27.5q54 0 92 33t51 85l66 324h119l-108 -530h-93l5 78q-58 -93 -172 -93q-92 0 -136.5 56t-26.5 146zM258 648l314 220l66 -71l-314 -220z" />
<glyph unicode="&#xfb;" horiz-adv-x="572" d="M35 187l70 343h118l-68 -338q-10 -49 11.5 -76.5t71.5 -27.5q54 0 92 33t51 85l66 324h119l-108 -530h-93l5 78q-58 -93 -172 -93q-92 0 -136.5 56t-26.5 146zM127 643l222 170h78l163 -182l-81 -54l-127 147l-187 -147z" />
<glyph unicode="&#xfc;" horiz-adv-x="572" d="M35 187l70 343h118l-68 -338q-10 -49 11.5 -76.5t71.5 -27.5q54 0 92 33t51 85l66 324h119l-108 -530h-93l5 78q-58 -93 -172 -93q-92 0 -136.5 56t-26.5 146zM180 665q0 30 21.5 51t51.5 21t51 -21t21 -51q0 -31 -21 -52t-51 -21t-51.5 21t-21.5 52zM392 665q0 30 21 51 t52 21q30 0 51 -21t21 -51q0 -31 -21 -52t-51 -21q-31 0 -52 21t-21 52z" />
<glyph unicode="&#xfd;" horiz-adv-x="584" d="M-45 -200l20 100h97q62 0 87 44l32 56h-22l-102 530h120l72 -412l236 412h130l-357 -621q-33 -57 -80 -83t-136 -26h-97zM265 648l314 220l66 -71l-314 -220z" />
<glyph unicode="&#xfe;" horiz-adv-x="617" d="M-34 -200l195 950h118l-59 -292q35 40 85 64t105 24q81 0 130 -56.5t49 -157.5q0 -87 -32 -165t-97.5 -130t-151.5 -52q-61 0 -104 27t-60 74l-59 -286h-119zM179 219q0 -61 30 -97.5t82 -36.5q79 0 129.5 72t50.5 160q0 62 -27.5 95.5t-81.5 33.5q-82 0 -132.5 -68 t-50.5 -159z" />
<glyph unicode="&#xff;" horiz-adv-x="584" d="M-45 -200l20 100h97q62 0 87 44l32 56h-22l-102 530h120l72 -412l236 412h130l-357 -621q-33 -57 -80 -83t-136 -26h-97zM187 665q0 30 21.5 51t51.5 21t51 -21t21 -51q0 -31 -21 -52t-51 -21t-51.5 21t-21.5 52zM399 665q0 30 21 51t52 21q30 0 51 -21t21 -51 q0 -31 -21 -52t-51 -21q-31 0 -52 21t-21 52z" />
<glyph unicode="&#x152;" horiz-adv-x="1146" d="M54 280q0 182 116.5 308.5t292.5 126.5q151 0 214 -113l20 98h489l-22 -108h-369l-36 -180h334l-22 -105h-334l-40 -199h377l-21 -108h-498l15 75q-98 -90 -235 -90q-125 0 -203 78t-78 217zM175 289q0 -93 48 -144t132 -51q120 0 196.5 95t76.5 231q0 90 -46 138.5 t-128 48.5q-120 0 -199.5 -93.5t-79.5 -224.5z" />
<glyph unicode="&#x153;" horiz-adv-x="1007" d="M28 203q0 144 90.5 243.5t234.5 99.5q71 0 121 -29t74 -82q86 111 232 111q108 0 163 -74t32 -205l-5 -26h-384q-6 -71 25.5 -113.5t96.5 -42.5q92 0 134 83h112q-34 -90 -103 -136.5t-158 -46.5q-71 0 -122.5 30.5t-76.5 86.5q-92 -117 -247 -117q-103 0 -161 58.5 t-58 159.5zM145 220q0 -66 33.5 -100t87.5 -34q82 0 134 69t52 161q0 62 -31.5 95.5t-89.5 33.5q-83 0 -134.5 -67t-51.5 -158zM606 324h266q3 122 -103 122q-55 0 -97.5 -33.5t-65.5 -88.5z" />
<glyph unicode="&#x178;" horiz-adv-x="672" d="M99 700h127l130 -289l246 289h149l-347 -401l-61 -299h-121l61 299zM261 826q0 30 21 51t52 21q30 0 51 -21t21 -51t-21 -51.5t-51 -21.5q-31 0 -52 21.5t-21 51.5zM472 826q0 30 21.5 51t51.5 21t51 -21t21 -51t-21 -51.5t-51 -21.5t-51.5 21.5t-21.5 51.5z" />
<glyph unicode="&#x2c6;" horiz-adv-x="486" d="M87 643l222 170h78l163 -182l-81 -54l-127 147l-187 -147z" />
<glyph unicode="&#x2dc;" horiz-adv-x="446" d="M107 628q5 71 39.5 112.5t82.5 41.5q29 0 58 -18t53.5 -35.5t43.5 -17.5q38 0 40 63h90q-1 -73 -31.5 -112t-78.5 -39q-40 0 -89.5 35.5t-67.5 35.5q-21 0 -33.5 -18.5t-14.5 -47.5h-92z" />
<glyph unicode="&#x2000;" horiz-adv-x="517" />
<glyph unicode="&#x2001;" horiz-adv-x="1035" />
<glyph unicode="&#x2002;" horiz-adv-x="517" />
<glyph unicode="&#x2003;" horiz-adv-x="1035" />
<glyph unicode="&#x2004;" horiz-adv-x="345" />
<glyph unicode="&#x2005;" horiz-adv-x="258" />
<glyph unicode="&#x2006;" horiz-adv-x="172" />
<glyph unicode="&#x2007;" horiz-adv-x="172" />
<glyph unicode="&#x2008;" horiz-adv-x="129" />
<glyph unicode="&#x2009;" horiz-adv-x="207" />
<glyph unicode="&#x200a;" horiz-adv-x="57" />
<glyph unicode="&#x2010;" horiz-adv-x="521" d="M35 258l20 97h448l-20 -97h-448z" />
<glyph unicode="&#x2011;" horiz-adv-x="521" d="M35 258l20 97h448l-20 -97h-448z" />
<glyph unicode="&#x2012;" horiz-adv-x="521" d="M35 258l20 97h448l-20 -97h-448z" />
<glyph unicode="&#x2013;" horiz-adv-x="541" d="M35 258l20 97h467l-20 -97h-467z" />
<glyph unicode="&#x2014;" horiz-adv-x="886" d="M35 258l20 97h813l-20 -97h-813z" />
<glyph unicode="&#x2018;" horiz-adv-x="256" d="M73 432l184 346l93 -28l-180 -347z" />
<glyph unicode="&#x2019;" horiz-adv-x="256" d="M73 432l180 348l97 -29l-184 -347z" />
<glyph unicode="&#x201a;" horiz-adv-x="255" d="M-84 -171l181 348l97 -29l-184 -347z" />
<glyph unicode="&#x201c;" horiz-adv-x="445" d="M73 432l184 347l93 -28l-180 -348zM262 432l184 347l93 -28l-180 -348z" />
<glyph unicode="&#x201d;" horiz-adv-x="445" d="M73 432l180 348l97 -29l-184 -347zM262 432l180 348l97 -29l-184 -347z" />
<glyph unicode="&#x201e;" horiz-adv-x="444" d="M-84 -171l181 348l97 -29l-184 -347zM105 -171l181 348l97 -29l-184 -347z" />
<glyph unicode="&#x2022;" horiz-adv-x="332" d="M59 317q0 50 34 84t84 34t84 -34t34 -84t-34 -83.5t-84 -33.5t-84 33.5t-34 83.5z" />
<glyph unicode="&#x2026;" horiz-adv-x="673" d="M-2 64q0 32 22 54t55 22t55 -22t22 -54q0 -33 -22 -55t-55 -22t-55 22t-22 55zM219 64q0 32 22 54t54 22q33 0 55 -22t22 -54q0 -33 -22 -55t-55 -22q-32 0 -54 22t-22 55zM439 64q0 32 22 54t55 22t55 -22t22 -54q0 -33 -22 -55t-55 -22t-55 22t-22 55z" />
<glyph unicode="&#x202f;" horiz-adv-x="207" />
<glyph unicode="&#x2039;" horiz-adv-x="357" d="M29 230l21 98l253 211l69 -65l-249 -207l148 -185l-72 -65z" />
<glyph unicode="&#x203a;" horiz-adv-x="361" d="M-10 82l253 209l-145 183l71 65l168 -211l-20 -98l-256 -213z" />
<glyph unicode="&#x205f;" horiz-adv-x="258" />
<glyph unicode="&#x20ac;" horiz-adv-x="832" d="M11 246l15 71h110q3 29 9 58h-107l14 72h114q46 121 147 194.5t237 73.5q132 0 203.5 -73.5t67.5 -211.5h-120q0 177 -166 177q-81 0 -144 -43.5t-98 -116.5h291l-14 -72h-303q-8 -29 -9 -58h300l-15 -71h-285q9 -74 54.5 -113t122.5 -39q79 0 140.5 45t95.5 131h122 q-98 -285 -374 -285q-125 0 -201 69t-83 192h-124z" />
<glyph unicode="&#x2122;" horiz-adv-x="705" d="M96 638l12 62h274l-12 -62h-104l-55 -276h-67l55 276h-103zM335 362l68 338h73l49 -263l154 263h72l-68 -338h-67l40 198l-116 -198h-62l-36 195l-39 -195h-68z" />
<glyph unicode="&#xfb01;" horiz-adv-x="602" d="M60 430l21 100h92l14 66q30 154 200 154h70l-21 -100h-61q-59 0 -72 -62l-11 -58h304l-108 -530h-118l87 430h-186l-87 -430h-119l88 430h-93zM490 678q0 32 22 54t54 22q33 0 54.5 -22t21.5 -54q0 -33 -21.5 -55t-54.5 -22q-32 0 -54 22.5t-22 54.5z" />
<glyph unicode="&#xfb02;" horiz-adv-x="615" d="M60 430l21 100h92l13 66q17 81 63 117.5t137 36.5h266l-152 -750h-119l132 650h-138q-59 0 -71 -62l-12 -58h154l-21 -100h-153l-88 -430h-119l88 430h-93z" />
</font>
</defs>
</svg>
