<?xml version="1.0" standalone="no"?>
<!DOCTYPE svg PUBLIC "-//W3C//DTD SVG 1.1//EN" "http://www.w3.org/Graphics/SVG/1.1/DTD/svg11.dtd" >
<svg xmlns="http://www.w3.org/2000/svg" xmlns:xlink="http://www.w3.org/1999/xlink" version="1.1">
<metadata></metadata>
<defs>
<font id="pp_moriextralight_italic" horiz-adv-x="1136" >
<font-face units-per-em="2048" ascent="1638" descent="-410" />
<missing-glyph horiz-adv-x="454" />
<glyph horiz-adv-x="0" />
<glyph horiz-adv-x="682" />
<glyph unicode="&#xd;" horiz-adv-x="1228" />
<glyph unicode=" "  horiz-adv-x="454" />
<glyph unicode="&#x09;" horiz-adv-x="454" />
<glyph unicode="&#xa0;" horiz-adv-x="454" />
<glyph unicode="!" horiz-adv-x="473" d="M45 82q0 41 28.5 69.5t69.5 28.5t69 -28.5t28 -69.5t-28 -68.5t-69 -27.5t-69.5 27.5t-28.5 68.5zM139 311l250 1225h90l-250 -1225h-90z" />
<glyph unicode="&#x22;" horiz-adv-x="677" d="M219 856l139 680h84l-139 -680h-84zM502 856l139 680h84l-139 -680h-84z" />
<glyph unicode="#" horiz-adv-x="1531" d="M66 420l12 69h340l203 467h-428l12 70h446l189 430l75 -22l-178 -408h400l188 430l76 -22l-178 -408h317l-12 -70h-336l-205 -467h428l-12 -69h-447l-192 -443l-76 23l184 420h-401l-192 -443l-76 23l184 420h-321zM502 489h401l203 467h-399z" />
<glyph unicode="$" horiz-adv-x="1288" d="M115 424h90q-24 -140 57.5 -229.5t243.5 -114.5l131 641l-70 24q-102 38 -143 63q-152 89 -152 259q0 174 129 277.5t326 103.5q39 0 57 -2l52 248h73l-51 -256q180 -28 268 -138.5t68 -293.5h-90q26 301 -264 350l-115 -572l123 -45q51 -19 86 -35t76.5 -44t66.5 -60 t42.5 -80.5t17.5 -107.5q0 -199 -134.5 -311.5t-359.5 -114.5q-55 0 -82 2l-53 -264h-74l55 272q-201 32 -303 143t-71 285zM367 1073q0 -32 8 -60t17.5 -48t30.5 -39.5t34.5 -30.5t41.5 -24.5t40 -18.5t42.5 -16t36.5 -13l37 -14l113 555h-47q-158 -2 -256 -80t-98 -211z M580 72q20 -2 67 -2q179 2 286 92.5t107 243.5q0 46 -13 82.5t-31.5 61t-52 45.5t-61.5 33.5t-73 28.5l-102 37z" />
<glyph unicode="%" horiz-adv-x="1892" d="M201 995q0 80 25.5 159t71.5 145.5t120 107.5t162 41q118 0 179.5 -82t61.5 -209q0 -78 -25.5 -156t-71.5 -143t-119.5 -106t-160.5 -41q-120 0 -181.5 81t-61.5 203zM285 1006q0 -95 42.5 -156.5t127.5 -61.5t151 57t98.5 140t32.5 172q0 90 -44 151.5t-128 61.5 q-63 0 -117 -33.5t-89 -86.5t-54.5 -117t-19.5 -127zM309 23l1317 1468l82 -37l-1317 -1468zM1141 270q0 80 25.5 159t71.5 145.5t120 107.5t162 41q118 0 179.5 -82t61.5 -209q0 -78 -25.5 -156t-71.5 -143t-119.5 -106t-160.5 -41q-120 0 -181.5 81t-61.5 203zM1225 281 q0 -95 42.5 -156.5t127.5 -61.5t151 57t98.5 140t32.5 172q0 90 -44 151.5t-128 61.5q-63 0 -117 -33.5t-89 -86.5t-54.5 -117t-19.5 -127z" />
<glyph unicode="&#x26;" horiz-adv-x="1415" d="M94 420q14 74 53.5 139t101 118t128.5 94.5t155 84.5q-53 81 -80.5 148.5t-27.5 138.5q0 138 98 221.5t246 83.5q137 0 212.5 -76.5t51.5 -208.5q-9 -47 -35 -89.5t-57.5 -73.5t-83.5 -64.5t-93.5 -55.5t-105.5 -53l351 -493q128 183 184 479l88 -2q-67 -347 -223 -549 l168 -237l-76 -50l-152 218q-198 -207 -483 -207q-223 0 -339 120.5t-81 313.5zM186 422q-32 -164 61 -258t275 -94q254 0 428 192l-368 531q-66 -32 -109.5 -56t-98 -60t-88.5 -71t-62 -83t-38 -101zM510 1145q0 -111 100 -254q151 68 211 111q105 74 123 167 q18 91 -35 145t-147 54q-109 0 -180.5 -61t-71.5 -162z" />
<glyph unicode="'" horiz-adv-x="395" d="M219 856l139 680h84l-139 -680h-84z" />
<glyph unicode="(" horiz-adv-x="606" d="M166 319q0 329 132.5 652t346.5 559l76 -35q-210 -225 -339.5 -539t-129.5 -630q0 -311 113 -545l-76 -29q-56 117 -89.5 265.5t-33.5 301.5z" />
<glyph unicode=")" horiz-adv-x="589" d="M-66 -201q207 217 322 518.5t115 630.5q0 302 -95 563l84 19q97 -264 97 -580q0 -341 -119.5 -655.5t-335.5 -542.5z" />
<glyph unicode="*" horiz-adv-x="993" d="M150 854l387 201l-301 200l40 52l302 -199l77 385h70l-78 -381l381 199l23 -62l-385 -200l301 -199l-41 -51l-301 198l-80 -387h-70l78 381l-381 -198z" />
<glyph unicode="+" horiz-adv-x="1134" d="M121 606l16 82h414l80 391h86l-80 -391h418l-17 -82h-417l-80 -393h-86l80 393h-414z" />
<glyph unicode="," horiz-adv-x="522" d="M-88 -328l346 674l94 -29l-354 -671z" />
<glyph unicode="-" horiz-adv-x="1050" d="M121 606l16 82h834l-17 -82h-833z" />
<glyph unicode="." horiz-adv-x="460" d="M39 82q0 41 28.5 69.5t69.5 28.5t68.5 -28.5t27.5 -69.5t-27.5 -68.5t-68.5 -27.5t-69.5 27.5t-28.5 68.5z" />
<glyph unicode="/" horiz-adv-x="714" d="M-100 -195l913 1797l84 -23l-913 -1800z" />
<glyph unicode="0" horiz-adv-x="1267" d="M139 483q0 138 28.5 275.5t86 261.5t136.5 219.5t188 152t233 56.5q186 0 285.5 -128.5t99.5 -377.5q0 -137 -27.5 -272.5t-84 -259t-135 -218t-187.5 -150.5t-234 -56q-188 0 -288.5 127.5t-100.5 369.5zM236 492q0 -205 76 -312.5t227 -107.5q88 0 167 37.5t139.5 102 t109.5 150t80.5 183t48 198.5t16.5 199q0 205 -76 312.5t-227 107.5q-104 0 -195.5 -53t-157 -141.5t-113.5 -201.5t-71.5 -234.5t-23.5 -239.5z" />
<glyph unicode="1" horiz-adv-x="727" d="M172 1040l21 99h40q163 0 262.5 70t127.5 204l4 21h90l-291 -1434h-92l246 1204q-124 -164 -367 -164h-41z" />
<glyph unicode="2" horiz-adv-x="1150" d="M35 0l26 125q18 83 59 155.5t96.5 126.5t122 102t137 88.5t141 79t135 79t116.5 84t88 99.5t48 120q25 132 -51 217.5t-232 85.5q-164 0 -274.5 -99t-145.5 -278h-96q40 219 176.5 341t345.5 122q85 0 153.5 -21t113 -58.5t73.5 -88t34 -109t-5 -122.5q-14 -72 -52 -135 t-91.5 -111.5t-118.5 -93t-135.5 -83.5t-141 -78.5t-136 -83t-119 -91.5t-92 -110t-52.5 -132l-8 -45h802l-16 -86h-901z" />
<glyph unicode="3" horiz-adv-x="1161" d="M76 457h90q-23 -180 71 -279.5t289 -99.5q186 0 301 97.5t115 254.5q0 128 -80.5 200t-222.5 72h-182l14 82h184q161 0 264 92.5t103 231.5q0 116 -77.5 184t-211.5 68q-148 0 -265 -91.5t-167 -279.5h-94q58 226 203.5 341.5t334.5 115.5q170 0 269.5 -90t99.5 -238 q0 -140 -90.5 -240.5t-241.5 -134.5q115 -28 182.5 -110t67.5 -199q0 -197 -143 -321.5t-371 -124.5q-230 0 -350.5 125t-91.5 344z" />
<glyph unicode="4" horiz-adv-x="1243" d="M68 403l16 82l928 949h94l-193 -945h258l-16 -86h-258l-82 -403h-92l82 403h-737zM203 489h618l164 801z" />
<glyph unicode="5" horiz-adv-x="1181" d="M90 428h88q-16 -156 70.5 -256t261.5 -100q207 0 334 132t127 339q0 152 -82.5 230.5t-210.5 78.5q-221 0 -383 -152l-98 2l213 732h743l-16 -86h-662l-164 -560q84 75 187.5 112.5t197.5 37.5q165 0 267 -98.5t102 -292.5q0 -245 -154 -403t-401 -158 q-211 0 -326.5 121.5t-93.5 320.5z" />
<glyph unicode="6" horiz-adv-x="1243" d="M145 500q0 146 29 284t87.5 258.5t140.5 211t195.5 142.5t244.5 52q192 0 296 -114.5t87 -321.5h-86q10 169 -68 259.5t-233 90.5q-228 0 -378.5 -168t-207.5 -463q-15 -76 -23 -178q66 172 209 273.5t320 101.5q169 0 265.5 -102.5t96.5 -278.5q0 -153 -69 -281.5 t-193.5 -204t-277.5 -75.5q-214 0 -324.5 136.5t-110.5 377.5zM268 385q0 -139 79 -227t237 -88q195 0 319.5 135t124.5 336q0 149 -85 229t-216 80q-102 0 -191 -43.5t-146 -111.5t-89.5 -149.5t-32.5 -160.5z" />
<glyph unicode="7" horiz-adv-x="1091" d="M115 0l964 1348h-841l16 86h950l-16 -86l-961 -1348h-112z" />
<glyph unicode="8" horiz-adv-x="1239" d="M80 328q0 154 104.5 268.5t272.5 161.5q-85 41 -134 114t-49 170q0 121 67 215t177 142.5t242 48.5q187 0 292 -93.5t105 -246.5q0 -129 -72.5 -222t-205.5 -136q102 -39 158.5 -119t56.5 -191q0 -201 -159.5 -327.5t-412.5 -126.5q-200 0 -321 90.5t-121 251.5zM178 340 q0 -127 95 -195.5t257 -68.5q204 0 334.5 102.5t130.5 263.5q0 126 -91.5 199.5t-252.5 73.5q-122 0 -229.5 -46.5t-175.5 -133.5t-68 -195zM367 1053q0 -120 85.5 -193.5t231.5 -73.5q175 0 278 87t103 227q0 120 -82 191t-231 71q-167 0 -276 -87t-109 -222z" />
<glyph unicode="9" horiz-adv-x="1224" d="M92 422h90q-18 -350 318 -350q200 0 340 159.5t194 448.5q15 84 21 166q-62 -161 -190 -250.5t-285 -89.5q-181 0 -283 103t-102 280q0 115 40 217.5t110.5 178t172.5 119.5t219 44q199 0 304.5 -129t105.5 -383q0 -141 -23.5 -274.5t-76 -257t-128.5 -216t-188.5 -147.5 t-247.5 -55q-196 0 -302 112t-89 324zM287 901q0 -151 79.5 -232t217.5 -81q105 0 192 42t141.5 110t84.5 150t30 165q0 133 -76.5 221t-222.5 88q-189 0 -317.5 -136.5t-128.5 -326.5z" />
<glyph unicode=":" horiz-adv-x="464" d="M43 82q0 41 28.5 69.5t69.5 28.5t69 -28.5t28 -69.5t-28 -68.5t-69 -27.5t-69.5 27.5t-28.5 68.5zM227 1004q0 41 29 69.5t70 28.5t68.5 -28.5t27.5 -69.5t-27.5 -69t-68.5 -28t-70 28t-29 69z" />
<glyph unicode=";" horiz-adv-x="591" d="M-55 -328l346 674l94 -29l-354 -671zM311 1004q0 41 29 69.5t70 28.5t68.5 -28.5t27.5 -69.5t-27.5 -69t-68.5 -28t-70 28t-29 69z" />
<glyph unicode="&#x3c;" horiz-adv-x="1163" d="M106 528l17 80l1010 475l28 -77l-944 -443l758 -442l-51 -68z" />
<glyph unicode="=" horiz-adv-x="1142" d="M76 350l16 80h914l-17 -80h-913zM162 770l16 80h914l-17 -80h-913z" />
<glyph unicode="&#x3e;" horiz-adv-x="1159" d="M12 131l942 444l-759 441l53 67l817 -475l-16 -80l-1010 -475z" />
<glyph unicode="?" horiz-adv-x="1083" d="M186 985q22 120 71 210.5t118.5 144.5t152 81t177.5 27q106 0 187 -32.5t125 -86.5t60.5 -123t1.5 -145q-12 -63 -43 -117t-71.5 -93.5t-87.5 -77t-94.5 -76.5t-89 -82.5t-74 -105t-46.5 -134.5l-12 -64h-88l12 64q16 81 49.5 149.5t75.5 115.5t89.5 88t94.5 77.5 t86.5 73t69 84.5t39.5 104q24 127 -54 211t-237 84q-160 0 -268.5 -91.5t-146.5 -285.5h-97zM391 82q0 41 28.5 69.5t69.5 28.5t69 -28.5t28 -69.5t-28 -68.5t-69 -27.5t-69.5 27.5t-28.5 68.5z" />
<glyph unicode="@" horiz-adv-x="1773" d="M135 430q0 187 70 360t192 304t301 209.5t385 78.5q284 0 442 -151t158 -422q0 -156 -49 -297.5t-144.5 -234.5t-215.5 -93q-89 0 -136 54.5t-22 150.5q-66 -97 -159.5 -151t-194.5 -54q-124 0 -191 77.5t-67 203.5q0 106 37 208t100.5 181t156.5 127.5t197 48.5 t167 -50.5t77 -143.5l78 178h51l-172 -594q-50 -166 78 -166q96 0 173.5 84t117 208t39.5 255q0 237 -139.5 370.5t-389.5 133.5q-145 0 -278.5 -47t-237 -129.5t-180.5 -190.5t-117.5 -236t-40.5 -260q0 -270 161 -409t452 -139q231 0 428 96l-17 -88q-79 -39 -189 -62.5 t-229 -23.5q-155 0 -281 38.5t-218.5 113.5t-142.5 192.5t-50 269.5zM590 477q0 -99 47.5 -158t144.5 -59q127 0 234.5 96t152.5 256q45 153 -6 247.5t-176 94.5q-110 0 -203 -70t-143.5 -179.5t-50.5 -227.5z" />
<glyph unicode="A" horiz-adv-x="1433" d="M-33 0l881 1434h96l301 -1434h-96l-98 473h-691l-290 -473h-103zM410 553h624l-157 762z" />
<glyph unicode="B" horiz-adv-x="1363" d="M82 0l291 1434h631q137 0 224 -72.5t87 -216.5q0 -136 -93.5 -248t-236.5 -149q106 -25 165.5 -103.5t59.5 -200.5q0 -88 -31 -167t-88 -141.5t-147 -99t-199 -36.5h-663zM188 82h570q107 0 189.5 52t124.5 137t42 186q0 110 -63.5 179t-188.5 69h-547zM330 782h538 q148 0 250.5 108t102.5 249q0 99 -61.5 156t-166.5 57h-547z" />
<glyph unicode="C" horiz-adv-x="1527" d="M145 537q0 146 37 282.5t109 250t170 198.5t227 132.5t273 47.5q251 0 383 -144q124 -134 125 -384q0 -17 -1 -35h-92q0 237 -104 357t-328 120q-155 0 -288.5 -67t-223 -179.5t-140 -259t-50.5 -305.5q0 -236 123 -357.5t331 -121.5q213 0 371 117.5t242 359.5h96 q-95 -289 -280 -426t-439 -137q-247 0 -394 147.5t-147 403.5z" />
<glyph unicode="D" horiz-adv-x="1445" d="M82 0l291 1434h489q240 0 376 -135t136 -379q0 -141 -33 -275t-99.5 -251t-159 -205t-220 -138.5t-274.5 -50.5h-506zM188 82h398q154 0 286 69.5t219.5 185.5t137 265.5t49.5 310.5q0 207 -112.5 323t-313.5 116h-406z" />
<glyph unicode="E" horiz-adv-x="1245" d="M82 0l291 1434h925l-16 -82h-836l-112 -553h753l-16 -80h-754l-129 -637h854l-16 -82h-944z" />
<glyph unicode="F" horiz-adv-x="1218" d="M82 0l291 1434h923l-16 -82h-831l-115 -566h776l-16 -81h-777l-143 -705h-92z" />
<glyph unicode="G" horiz-adv-x="1558" d="M145 537q0 146 37 282.5t109 250t170 198.5t227 132.5t273 47.5q251 0 383 -144q125 -134 125 -384q0 -17 -1 -35h-92q0 477 -432 477q-125 0 -236.5 -43.5t-195.5 -120.5t-145.5 -178.5t-93 -222.5t-31.5 -248q0 -235 123 -356t331 -121q224 0 378.5 144.5t205.5 399.5 h-541l17 82h520q142 0 142 -113q0 -21 -5 -46l-110 -539h-84l110 539h-2q-64 -261 -233.5 -407t-407.5 -146q-248 0 -394.5 147.5t-146.5 403.5z" />
<glyph unicode="H" horiz-adv-x="1554" d="M82 0l291 1434h92l-129 -641h987l129 641h92l-291 -1434h-92l144 711h-988l-143 -711h-92z" />
<glyph unicode="I" horiz-adv-x="475" d="M82 0l291 1434h92l-291 -1434h-92z" />
<glyph unicode="J" horiz-adv-x="1140" d="M80 377l41 203h90l-41 -201q-9 -47 -9 -86q0 -93 51 -147q72 -78 230 -78q154 0 260 82.5t140 252.5l209 1031h92l-209 -1033q-42 -208 -172 -311.5t-334 -103.5q-191 0 -288 102q-70 73 -70 192q0 45 10 97z" />
<glyph unicode="K" horiz-adv-x="1368" d="M82 0l291 1434h90l-178 -881l1009 881h131l-673 -582l448 -852h-104l-414 793l-424 -365l-86 -428h-90z" />
<glyph unicode="L" horiz-adv-x="1175" d="M82 0l291 1434h92l-272 -1348h790l-16 -86h-885z" />
<glyph unicode="M" horiz-adv-x="1769" d="M82 0l291 1434h129l291 -1330l829 1330h137l-291 -1434h-92l266 1313l-821 -1313h-92l-289 1313l-266 -1313h-92z" />
<glyph unicode="N" horiz-adv-x="1497" d="M82 0l291 1434h106l651 -1315l267 1315h90l-291 -1434h-106l-652 1317l-266 -1317h-90z" />
<glyph unicode="O" horiz-adv-x="1546" d="M147 539q0 255 104.5 463.5t288.5 327t410 118.5q245 0 381.5 -149.5t136.5 -417.5q0 -133 -31.5 -260.5t-97 -242.5t-158 -202.5t-223.5 -138.5t-284 -51q-246 0 -386.5 146.5t-140.5 406.5zM242 551q0 -227 115 -353t327 -126q130 0 242.5 46t193.5 124.5t139 181.5 t86.5 219t28.5 236q0 230 -114 356.5t-328 126.5q-141 0 -268 -62t-220 -169t-147.5 -258.5t-54.5 -321.5z" />
<glyph unicode="P" horiz-adv-x="1363" d="M82 0l291 1434h653q151 0 244.5 -89t93.5 -258q0 -95 -31 -182t-91 -157t-159 -112t-223 -42h-565l-121 -594h-92zM311 676h568q97 0 174 36t122.5 96t69 130.5t23.5 146.5q0 127 -70 197t-186 70h-563z" />
<glyph unicode="Q" horiz-adv-x="1574" d="M147 539q0 255 104.5 463.5t288.5 327t410 118.5q245 0 381.5 -149.5t136.5 -417.5q0 -149 -39 -290t-121 -266t-198 -206l184 -338l-80 -39l-180 330q-159 -86 -360 -86q-246 0 -386.5 146.5t-140.5 406.5zM242 551q0 -227 115 -353t327 -126q167 0 307 75l-211 385 l80 41l207 -376q147 111 227 295t80 387q0 230 -114 356.5t-328 126.5q-141 0 -268 -62t-220 -169t-147.5 -258.5t-54.5 -321.5z" />
<glyph unicode="R" horiz-adv-x="1378" d="M82 0l291 1434h620q161 0 254.5 -83t93.5 -233q0 -156 -102.5 -276.5t-263.5 -157.5q103 -37 125 -174l80 -510h-95l-75 485q-11 71 -49 113.5t-103 42.5h-555l-129 -641h-92zM322 723h540q164 0 274.5 114t110.5 273q0 112 -71 177t-191 65h-536z" />
<glyph unicode="S" horiz-adv-x="1288" d="M115 424h90q-6 -32 -5 -62q0 -124 98 -200q119 -92 340 -92h9q179 2 286 92.5t107 243.5q0 46 -13 82.5t-31.5 61t-52 45.5t-61.5 33.5t-73 28.5l-242 88q-102 38 -143 63q-152 89 -152 259q0 174 129 277.5t326 103.5q245 0 367 -114q103 -96 103 -263q0 -31 -3 -65h-90 q2 27 2 51q0 145 -85 221q-98 86 -291 86h-9q-158 -2 -256 -80t-98 -211q0 -32 8 -60t17.5 -48t30.5 -39.5t34.5 -30.5t41.5 -24.5t40 -18.5t42.5 -16t36.5 -13l230 -84q51 -19 86 -35t76.5 -44t66.5 -60t42.5 -80.5t17.5 -107.5q0 -199 -134.5 -311.5t-359.5 -114.5h-7 q-172 0 -296 49q-128 50 -188 151q-44 72 -44 162q0 36 7 76z" />
<glyph unicode="T" horiz-adv-x="1288" d="M248 1350l16 84h1122l-16 -84h-512l-274 -1350h-95l275 1350h-516z" />
<glyph unicode="U" horiz-adv-x="1406" d="M162 453l198 981h93l-199 -977q-11 -52 -10 -97q0 -114 68 -186q96 -100 296 -100q198 0 335.5 98t176.5 287l197 975h92l-199 -981q-46 -232 -209 -349.5t-409 -117.5q-108 0 -196 30t-149 87t-85 147q-12 45 -11 97q0 50 11 106z" />
<glyph unicode="V" horiz-adv-x="1292" d="M227 1434h99l237 -1319l760 1319h107l-832 -1434h-104z" />
<glyph unicode="W" horiz-adv-x="1869" d="M227 1434h97l98 -1303l645 1303h96l117 -1301l625 1301h102l-696 -1434h-101l-118 1300l-643 -1300h-107z" />
<glyph unicode="X" horiz-adv-x="1357" d="M-37 0l699 739l-375 695h106l338 -631l592 631h127l-672 -713l396 -721h-107l-358 659l-619 -659h-127z" />
<glyph unicode="Y" horiz-adv-x="1265" d="M223 1434h101l338 -711l624 711h121l-711 -801l-129 -633h-92l129 633z" />
<glyph unicode="Z" horiz-adv-x="1261" d="M12 0l17 82l1134 1266h-839l16 86h958l-16 -82l-1135 -1266h897l-16 -86h-1016z" />
<glyph unicode="[" horiz-adv-x="753" d="M51 -262l373 1827h471l-14 -70h-385l-344 -1688h385l-15 -69h-471z" />
<glyph unicode="\" horiz-adv-x="698" d="M240 1579l79 23l181 -1797l-80 -26z" />
<glyph unicode="]" horiz-adv-x="755" d="M-94 -262l14 69h385l342 1688h-385l14 70h472l-371 -1827h-471z" />
<glyph unicode="^" horiz-adv-x="956" d="M176 885l430 549h103l211 -549h-89l-180 483l-377 -483h-98z" />
<glyph unicode="_" horiz-adv-x="1091" d="M-20 -96l16 82h874l-16 -82h-874z" />
<glyph unicode="`" horiz-adv-x="753" d="M301 1696l59 61l482 -459l-60 -61z" />
<glyph unicode="a" d="M61 274q0 60 15.5 108.5t47 82t69.5 58t92 41t105 26.5t118 18q31 4 78.5 9t74 8t64 8.5t58.5 11.5t46 15.5t39 21t25.5 28.5t15.5 38q6 28 6 54q-1 82 -59 140q-76 78 -231 78q-131 0 -235 -63.5t-140 -196.5h-90q41 170 172 256t305 86q189 0 289 -105q74 -77 75 -195 q0 -42 -10 -89l-102 -504q-6 -29 -6 -52q0 -28 9 -45q16 -32 79 -32h43l-17 -80h-41q-78 0 -117.5 38t-39.5 107q0 36 8 72q-136 -227 -406 -227q-153 0 -246.5 76.5t-93.5 207.5zM150 279q0 -94 72.5 -150.5t193.5 -56.5q355 0 442 420l29 137q-11 -15 -28 -27.5t-41 -21 t-44.5 -14.5t-54.5 -11t-55.5 -7.5t-62.5 -6.5t-60 -6q-74 -8 -123 -16.5t-104.5 -27t-88 -44t-54 -68.5t-21.5 -100z" />
<glyph unicode="b" horiz-adv-x="1226" d="M55 0l312 1536h90l-140 -692q78 121 200 189.5t261 68.5q169 0 265 -109.5t96 -310.5q0 -128 -41 -252t-113 -223t-183 -160t-241 -61q-149 0 -244 79t-120 218l-72 -283h-70zM248 420q0 -162 84 -256t231 -94q85 0 161.5 34.5t133.5 94t99 137t63.5 165.5t21.5 177 q0 161 -74.5 250.5t-219.5 89.5q-112 0 -207 -50t-158.5 -133.5t-99 -191.5t-35.5 -223z" />
<glyph unicode="c" horiz-adv-x="1148" d="M90 410q0 136 42.5 261t119 221t191.5 153t251 57q182 0 282 -112q93 -104 93 -293v-27h-88q0 348 -303 348q-111 0 -205.5 -50.5t-157.5 -134t-98 -190.5t-35 -221q0 -173 89 -262.5t235 -89.5q148 0 259 89.5t169 262.5h90q-62 -212 -203.5 -324t-335.5 -112 q-186 0 -290.5 116t-104.5 308z" />
<glyph unicode="d" horiz-adv-x="1191" d="M90 412q0 136 42 260.5t117.5 220t188 152.5t244.5 57q144 0 234 -77t112 -216l148 727h90l-312 -1536h-69l37 250q-69 -127 -181 -195.5t-254 -68.5q-182 0 -289.5 113t-107.5 313zM186 424q0 -169 82 -261.5t236 -92.5q112 0 205 52.5t151.5 139t90.5 193.5t32 221 q0 159 -81.5 250.5t-225.5 91.5q-105 0 -198 -50t-156 -132.5t-99.5 -190t-36.5 -221.5z" />
<glyph unicode="e" horiz-adv-x="1126" d="M88 399q0 135 41 261t115 224.5t187.5 158t248.5 59.5q198 0 296 -137q68 -95 67 -245q0 -66 -13 -142l-2 -13h-831q-17 -75 -17 -143q0 -26 2 -52q10 -90 44.5 -157t104.5 -105t167 -38q146 0 244.5 72t150.5 198h92q-65 -179 -195 -266.5t-305 -87.5q-185 0 -291 110.5 t-106 302.5zM217 643h727q3 33 3 63q-1 44 -7 83q-12 66 -43 118t-90.5 81.5t-142.5 29.5q-158 0 -275.5 -105t-171.5 -270z" />
<glyph unicode="f" horiz-adv-x="786" d="M141 1006l17 79h221l31 152q31 154 107 226.5t235 72.5h227l-16 -80h-228q-100 0 -156 -52t-79 -167l-31 -152h391l-16 -79h-391l-205 -1006h-90l204 1006h-221z" />
<glyph unicode="g" horiz-adv-x="1210" d="M49 -66h88q-6 -33 -6 -61q0 -93 61 -145q80 -70 230 -70q174 0 291 87t151 267l47 252q-68 -115 -180 -176t-248 -61q-182 0 -285.5 106t-103.5 301q0 130 40 249.5t112.5 213t183.5 149.5t244 56q139 0 231 -73t119 -198l61 254h72l-203 -1075q-81 -436 -548 -436 q-179 0 -284 94q-81 72 -81 188q0 37 8 78zM186 451q0 -166 81.5 -254t236.5 -88q140 0 249.5 81.5t165.5 209t56 274.5q0 159 -82.5 251.5t-224.5 92.5q-110 0 -202.5 -48.5t-152.5 -129t-93.5 -181.5t-33.5 -208z" />
<glyph unicode="h" horiz-adv-x="1132" d="M55 0l312 1536h90l-133 -657q72 103 183.5 163t235.5 60q171 0 247 -110q51 -73 51 -181q0 -54 -13 -117l-141 -694h-90l139 688q12 59 12 108q0 82 -34 136q-54 86 -197 86q-158 0 -282 -103.5t-159 -271.5l-131 -643h-90z" />
<glyph unicode="i" horiz-adv-x="380" d="M35 0l221 1085h90l-221 -1085h-90zM303.5 1478.5q27.5 26.5 67.5 26.5q41 -1 67 -27t25 -62v-3q-2 -40 -28.5 -67t-65.5 -27q-40 0 -67 27q-26 26 -26 64q0 42 27.5 68.5z" />
<glyph unicode="j" horiz-adv-x="385" d="M-367 -410l17 80h102q94 0 167.5 57.5t94.5 159.5l244 1198h90l-244 -1198q-29 -145 -123 -221t-245 -76h-103zM306 1479q27 26 67 26t67 -27q25 -25 25 -62v-3q-2 -40 -28.5 -67t-65.5 -27q-40 0 -67 27q-25 26 -25 64q0 43 27 69z" />
<glyph unicode="k" horiz-adv-x="1091" d="M55 0l312 1536h90l-224 -1102l766 651h127l-477 -399l309 -686h-100l-278 629l-371 -312l-64 -317h-90z" />
<glyph unicode="l" horiz-adv-x="419" d="M55 0l312 1536h90l-312 -1536h-90z" />
<glyph unicode="m" horiz-adv-x="1798" d="M37 0l221 1085h70l-35 -227q71 110 184.5 177t233.5 67q125 0 197.5 -70.5t78.5 -195.5q70 120 187 193t243 73q155 0 229 -105q50 -72 51 -178q0 -49 -11 -106l-134 -713h-90l133 707q9 49 9 91q0 81 -34 136q-52 84 -181 84q-150 0 -271 -105t-153 -270l-121 -643h-88 l133 707q9 49 9 90q0 81 -34 137q-52 84 -182 84q-148 0 -267 -104t-157 -269l-131 -645h-90z" />
<glyph unicode="n" horiz-adv-x="1114" d="M37 0l221 1085h70l-33 -223q71 111 186 175.5t244 64.5q171 0 247 -110q51 -73 51 -181q0 -54 -13 -117l-142 -694h-90l140 688q12 58 12 107q0 83 -34 137q-54 86 -198 86q-158 0 -281.5 -102.5t-158.5 -270.5l-131 -645h-90z" />
<glyph unicode="o" horiz-adv-x="1181" d="M90 410q0 136 42.5 261t119 221t191.5 153t251 57q181 0 289.5 -107t108.5 -313q0 -135 -42 -260t-118 -222t-192.5 -155.5t-254.5 -58.5q-186 0 -290.5 116t-104.5 308zM182 422q0 -173 89 -262.5t235 -89.5q110 0 204 51.5t156.5 136.5t97.5 194.5t35 225.5 q0 162 -84 251t-237 89q-111 0 -205.5 -50.5t-157.5 -134t-98 -190.5t-35 -221z" />
<glyph unicode="p" horiz-adv-x="1214" d="M-41 -410l303 1495h70l-37 -256q80 128 204.5 200.5t266.5 72.5q169 0 264.5 -109.5t95.5 -310.5q0 -128 -40.5 -252t-113 -223t-183 -160t-240.5 -61q-146 0 -240.5 75t-120.5 209l-139 -680h-90zM236 420q0 -162 84 -256t231 -94q85 0 161.5 34.5t133.5 94t99 137 t63.5 165.5t21.5 177q0 160 -76 250t-219 90q-148 0 -264 -86t-175.5 -221.5t-59.5 -290.5z" />
<glyph unicode="q" horiz-adv-x="1218" d="M90 412q0 136 42 260.5t117.5 220t188 152.5t244.5 57q147 0 238 -81t110 -228l76 292h70l-304 -1495h-90l131 646q-69 -121 -179 -185.5t-247 -64.5q-182 0 -289.5 113t-107.5 313zM186 424q0 -169 82 -261.5t236 -92.5q112 0 205 52.5t151.5 139t90.5 193.5t32 221 q0 159 -81.5 250.5t-225.5 91.5q-105 0 -198 -50t-156 -132.5t-99.5 -190t-36.5 -221.5z" />
<glyph unicode="r" horiz-adv-x="700" d="M37 0l221 1085h70l-37 -243q147 248 436 248h18l-20 -101h-18q-167 0 -289 -98t-166 -270l-125 -621h-90z" />
<glyph unicode="s" horiz-adv-x="978" d="M68 332h86q-3 -23 -3 -44q1 -100 67 -154q80 -66 233 -66q141 0 223 56t82 165q0 75 -42.5 116t-133.5 80l-162 70q-5 2 -16 7q-33 14 -50.5 22.5t-48 26t-47.5 35.5t-36 44t-27.5 59.5t-8.5 73.5q0 124 96.5 201.5t251.5 77.5q176 0 278 -86q96 -82 95 -239v-19h-86 q0 136 -77 199t-214 63q-117 0 -187.5 -51.5t-70.5 -139.5q0 -43 13.5 -75.5t44 -56.5t56.5 -37.5t73 -32.5l157 -66q56 -23 90.5 -42.5t69.5 -50t51.5 -73t16.5 -98.5q0 -148 -107 -229.5t-289 -81.5q-190 0 -296 90q-86 74 -86 197q0 28 4 59z" />
<glyph unicode="t" horiz-adv-x="753" d="M141 1006l17 79h219l76 371h90l-76 -371h321l-16 -79h-321l-144 -707q-9 -45 -9 -81q0 -54 21 -86q35 -52 136 -52h110l-16 -80h-111q-137 0 -194 76q-37 49 -37 130q0 42 10 93l143 707h-219z" />
<glyph unicode="u" horiz-adv-x="1116" d="M100 375l146 710h90l-146 -712q-9 -43 -9 -80q1 -85 45 -141q64 -82 206 -82q155 0 271 99t155 269l131 647h90l-221 -1085h-70l33 219q-66 -111 -171.5 -172t-241.5 -61q-172 0 -258 104q-61 74 -61 186q0 46 11 99z" />
<glyph unicode="v" horiz-adv-x="1091" d="M156 1085h94l203 -970l596 970h108l-674 -1085h-96z" />
<glyph unicode="w" horiz-adv-x="1472" d="M156 1085h90l86 -972l469 972h92l70 -964l477 964h98l-543 -1085h-100l-70 969l-467 -969h-102z" />
<glyph unicode="x" horiz-adv-x="1050" d="M-47 0l526 557l-274 528h100l240 -469l428 469h114l-499 -540l289 -545h-101l-254 485l-452 -485h-117z" />
<glyph unicode="y" horiz-adv-x="1067" d="M-113 -410l17 80h178q73 0 124 36.5t97 115.5l103 178h-41l-209 1085h92l194 -1019l586 1019h105l-760 -1321q-49 -88 -119 -131t-182 -43h-185z" />
<glyph unicode="z" horiz-adv-x="1013" d="M-4 0l16 80l867 924h-660l17 81h774l-17 -79l-866 -924h686l-16 -82h-801z" />
<glyph unicode="{" horiz-adv-x="739" d="M102 608l19 90q78 0 135 53.5t76 143.5l78 379q31 148 103.5 219.5t213.5 71.5h154l-15 -70h-149q-176 0 -221 -221l-78 -379q-22 -103 -87.5 -170t-152.5 -74q85 -8 125 -67.5t21 -153.5l-82 -403q-23 -110 7 -165t124 -55h149l-14 -69h-148q-131 0 -181.5 75.5 t-22.5 213.5l82 403q17 81 -20.5 129.5t-115.5 48.5z" />
<glyph unicode="|" horiz-adv-x="516" d="M53 -236l361 1772h94l-361 -1772h-94z" />
<glyph unicode="}" horiz-adv-x="741" d="M-94 -262l14 69h150q174 0 219 220l82 403q20 95 84 157.5t151 69.5q-84 7 -121.5 73.5t-17.5 164.5l76 379q16 75 13.5 124t-37 73t-107.5 24h-150l14 70h154q136 0 182.5 -73t16.5 -218l-76 -379q-19 -89 17 -143t114 -54l-18 -90q-78 0 -135 -48t-74 -130l-82 -403 q-30 -146 -99.5 -217.5t-216.5 -71.5h-153z" />
<glyph unicode="~" horiz-adv-x="1169" d="M98 463q27 145 99.5 223t169.5 78q41 0 78.5 -14t67.5 -37t59 -50.5t57.5 -55t57 -50.5t63 -37t71.5 -14q74 0 122 56t69 159h78q-22 -144 -96 -219.5t-175 -75.5q-50 0 -96 19t-80 48t-69.5 62t-65 62t-67.5 48t-76 19q-68 0 -116.5 -57t-70.5 -164h-80z" />
<glyph unicode="&#xa1;" horiz-adv-x="473" d="M-12 -449l248 1225h90l-248 -1225h-90zM233 1004q0 41 29 69.5t70 28.5t68.5 -28.5t27.5 -69.5t-27.5 -69t-68.5 -28t-70 28t-29 69z" />
<glyph unicode="&#xa2;" horiz-adv-x="1148" d="M125 582q0 106 25.5 206.5t75.5 186.5t119 151.5t161 104.5t196 43l52 246h75l-51 -248q161 -15 247 -125.5t79 -304.5h-88q0 320 -254 346l-193 -946q138 9 241.5 98.5t158.5 253.5h90q-59 -203 -192 -315t-316 -121l-53 -262h-76l53 264q-165 13 -257.5 127t-92.5 295z M217 594q0 -159 75 -247.5t202 -102.5l192 946q-139 -8 -248 -95.5t-165 -219.5t-56 -281z" />
<glyph unicode="&#xa3;" horiz-adv-x="1243" d="M2 0l18 86q145 0 245 109t100 262q0 83 -31 188h-201l17 82h161q-41 156 -41 240q0 215 140.5 348t369.5 133q197 0 295.5 -107.5t77.5 -328.5h-88q13 185 -61 267.5t-226 82.5q-186 0 -299.5 -107.5t-113.5 -277.5q0 -90 45 -250h456l-16 -82h-418q27 -114 27 -180 q0 -126 -69 -233.5t-175 -145.5h524q82 0 146 40.5t80 125.5l43 221h94l-45 -221q-27 -129 -114 -190.5t-220 -61.5h-721z" />
<glyph unicode="&#xa4;" horiz-adv-x="1148" d="M37 221l223 189q-29 66 -29 143q0 188 123 317l-143 179l59 47l140 -176q111 81 254 81q144 0 221 -86l213 179l51 -52l-225 -186q30 -64 30 -156q0 -184 -112 -305l135 -170l-59 -47l-132 166q-109 -82 -260 -82q-148 0 -227 88l-213 -178zM315 561q0 -103 59.5 -163 t164.5 -60q149 0 240 105.5t91 250.5q0 110 -57.5 171t-163.5 61q-148 0 -241 -107t-93 -258z" />
<glyph unicode="&#xa5;" horiz-adv-x="1265" d="M119 297l14 70h416l41 196h-418l14 70h418l-381 801h101l338 -711l624 711h121l-711 -801h422l-14 -70h-422l-41 -196h424l-14 -70h-422l-62 -297h-92l62 297h-418z" />
<glyph unicode="&#xa6;" horiz-adv-x="518" d="M53 -236l158 779h94l-158 -779h-94zM256 758l158 778h94l-158 -778h-94z" />
<glyph unicode="&#xa7;" horiz-adv-x="1183" d="M111 158h86q-13 -127 57.5 -190.5t218.5 -63.5q145 0 236.5 59t91.5 168q0 74 -41.5 112.5t-134.5 78.5l-162 69q-9 4 -37.5 16t-41 17.5t-38 19t-38 24.5t-30.5 29.5t-27 37.5t-15.5 45.5t-6.5 56.5q0 99 77.5 172t209.5 119q-37 16 -63 32t-52.5 41.5t-40.5 62 t-14 83.5q0 135 108 218t277 83q105 0 180.5 -34t118.5 -110.5t37 -189.5h-86q0 252 -254 252q-130 0 -212.5 -57.5t-82.5 -155.5q0 -30 10 -55t21.5 -40t39 -31.5t44 -23.5t54.5 -23q5 -2 9 -3.5t8 -3.5l158 -66q46 -19 73.5 -32.5t60.5 -35.5t51 -46t30.5 -59t12.5 -79 q0 -99 -67.5 -178t-180.5 -125q64 -35 97.5 -84t33.5 -127q0 -149 -116.5 -234t-305.5 -85q-182 0 -279.5 87t-74.5 249zM315 643q0 -37 12.5 -65t38.5 -47t51.5 -31.5t66.5 -29.5q4 -1 6 -2t5.5 -2.5t6.5 -2.5l205 -86q96 44 153.5 112t57.5 152q0 32 -9 57.5t-22.5 43 t-39 35t-47 28t-59.5 26.5l-170 74q-256 -98 -256 -262z" />
<glyph unicode="&#xa8;" horiz-adv-x="786" d="M266 1391q0 40 26.5 67t67.5 27q40 0 67.5 -27t27.5 -67q0 -41 -27.5 -69t-67.5 -28q-41 0 -67.5 27.5t-26.5 69.5zM676 1391q0 40 26.5 67t67.5 27q40 0 67 -27t27 -67q0 -41 -27 -69t-67 -28q-41 0 -67.5 27.5t-26.5 69.5z" />
<glyph unicode="&#xa9;" horiz-adv-x="1771" d="M152 563q0 188 68 360.5t186.5 300.5t291 204.5t369.5 76.5q292 0 458.5 -165.5t166.5 -460.5q0 -125 -29 -244t-83 -222.5t-135 -190.5t-180.5 -149.5t-223.5 -97t-261 -34.5q-287 0 -457.5 166t-170.5 456zM240 575q0 -255 143.5 -402.5t400.5 -147.5q142 0 271 44 t228 123.5t172 184.5t111 232.5t38 262.5q0 254 -142.5 401.5t-402.5 147.5q-173 0 -327 -70t-261 -186.5t-169 -270.5t-62 -319zM588 643q0 121 52.5 227t151 172t220.5 66q134 0 204 -79t60 -220h-80q5 106 -45.5 164.5t-149.5 58.5q-92 0 -168 -56t-117.5 -143 t-41.5 -182q0 -110 57 -172.5t156 -62.5q91 0 164.5 58t109.5 167h82q-39 -145 -139 -224t-227 -79q-130 0 -209.5 81.5t-79.5 223.5z" />
<glyph unicode="&#xaa;" horiz-adv-x="909" d="M170 852q0 52 17.5 91.5t45.5 64t72 42.5t86.5 26.5t100.5 15.5q22 3 64.5 7.5t61 7t49 8t45 12t32 16.5t26 24t12.5 33q16 78 -35 127t-163 49q-101 0 -171.5 -46.5t-95.5 -129.5h-77q31 117 124.5 182.5t229.5 65.5q145 0 214.5 -77t43.5 -210l-66 -327 q-11 -56 2 -83.5t64 -27.5h27l-15 -70h-26q-83 0 -115 52q-19 28 -16 86q-100 -146 -287 -146q-114 0 -182 55.5t-68 151.5zM248 854q0 -60 48.5 -98.5t133.5 -38.5q129 0 205.5 69t107.5 213l19 88q-13 -14 -31 -24t-48.5 -16.5t-47.5 -9t-61.5 -7t-57.5 -6.5 q-52 -5 -88 -11.5t-72.5 -18.5t-58.5 -29.5t-35.5 -45.5t-13.5 -65z" />
<glyph unicode="&#xab;" horiz-adv-x="1114" d="M104 522l21 99l534 444l64 -64l-537 -442l336 -418l-67 -59zM502 522l20 99l535 444l63 -64l-536 -442l336 -418l-68 -59z" />
<glyph unicode="&#xac;" horiz-adv-x="1157" d="M113 561l16 80h905l-123 -606h-84l107 526h-821z" />
<glyph unicode="&#xad;" horiz-adv-x="1050" d="M121 606l16 82h834l-17 -82h-833z" />
<glyph unicode="&#xae;" horiz-adv-x="1241" d="M180 860q0 180 80.5 328t226 234.5t326.5 86.5q193 0 307.5 -114t114.5 -314q0 -176 -76.5 -322t-220 -233.5t-326.5 -87.5q-195 0 -313.5 113.5t-118.5 308.5zM264 870q0 -165 95.5 -261.5t263.5 -96.5q156 0 278.5 79.5t186 208t63.5 279.5q0 162 -93.5 259.5 t-258.5 97.5q-151 0 -275 -78.5t-192 -208t-68 -279.5zM467 713l102 504h250q60 0 93.5 -30.5t33.5 -84.5q0 -52 -33.5 -93.5t-87.5 -58.5q51 -12 54 -55l18 -182h-74l-16 168q-1 15 -13 23.5t-30 8.5h-178l-41 -200h-78zM600 983h176q38 0 65 30t27 70q0 28 -15 45t-46 17 h-174z" />
<glyph unicode="&#xaf;" horiz-adv-x="831" d="M236 1350l16 80h688l-16 -80h-688z" />
<glyph unicode="&#xb0;" horiz-adv-x="751" d="M203 1081q0 139 97 234.5t241 95.5q116 0 179.5 -66.5t63.5 -179.5q0 -139 -92.5 -234t-236.5 -95q-114 0 -183 66t-69 179zM283 1090q0 -84 48.5 -134.5t135.5 -50.5q105 0 171.5 72.5t66.5 177.5q0 86 -47.5 136t-129.5 50q-101 0 -173 -73t-72 -178z" />
<glyph unicode="&#xb1;" horiz-adv-x="1206" d="M25 100l16 80h975l-17 -80h-974zM139 657l17 80h446l70 342h84l-70 -342h444l-16 -80h-444l-70 -342h-84l70 342h-447z" />
<glyph unicode="&#xb2;" horiz-adv-x="763" d="M203 860l14 70q16 79 71 140t122.5 99.5t134.5 73.5t117.5 79.5t60.5 98.5q14 75 -24 119.5t-121 44.5q-89 0 -145 -48t-71 -136h-73q20 121 97 188.5t196 67.5q116 0 177 -67t38 -179q-10 -48 -39.5 -88.5t-70.5 -70.5t-89 -57t-96.5 -54.5t-90.5 -57.5t-74 -70.5 t-44 -88.5h444l-12 -64h-522z" />
<glyph unicode="&#xb3;" horiz-adv-x="741" d="M209 1108h76q-18 -195 184 -195q86 0 144.5 48.5t58.5 130.5q0 60 -38 95.5t-104 35.5h-110l16 77h103q76 0 128 44.5t52 115.5q0 58 -38 92.5t-106 34.5q-71 0 -127 -41.5t-83 -132.5h-80q33 119 113 181.5t184 62.5q96 0 154.5 -50t58.5 -132q0 -77 -49 -134t-132 -77 q62 -15 99 -61t37 -111q0 -109 -80 -178.5t-207 -69.5q-132 0 -201.5 70t-52.5 194z" />
<glyph unicode="&#xb4;" horiz-adv-x="729" d="M219 1300l612 420l60 -63l-612 -420z" />
<glyph unicode="&#xb6;" horiz-adv-x="1222" d="M190 950q0 92 34.5 178.5t97 155t159.5 109.5t213 41h500l-336 -1645h-80l324 1583h-236l-323 -1583h-80l170 832h-90q-173 0 -263 92.5t-90 236.5z" />
<glyph unicode="&#xb7;" horiz-adv-x="509" d="M174 621q0 41 28.5 69.5t69.5 28.5t69 -28.5t28 -69.5t-28 -69t-69 -28t-69.5 28t-28.5 69z" />
<glyph unicode="&#xb8;" horiz-adv-x="296" d="M-123 -387l158 403l86 -16l-158 -403z" />
<glyph unicode="&#xb9;" horiz-adv-x="544" d="M248 1407l16 82h43q77 0 126.5 36.5t62.5 104.5l2 10h80l-160 -780h-80l127 625q-54 -78 -174 -78h-43z" />
<glyph unicode="&#xba;" horiz-adv-x="897" d="M182 946q0 132 53 245.5t157 185t237 71.5t212 -77.5t79 -227.5q0 -132 -52 -246t-156 -187t-239 -73q-137 0 -214 84.5t-77 224.5zM262 956q0 -124 62 -185.5t168 -61.5q77 0 143.5 36.5t110.5 96.5t69 137.5t25 159.5q0 114 -60.5 175.5t-169.5 61.5q-103 0 -184.5 -61 t-122.5 -156t-41 -203z" />
<glyph unicode="&#xbb;" horiz-adv-x="1114" d="M12 145l531 437l-344 424l69 59l355 -444l-21 -99l-530 -440zM412 145l530 437l-344 424l70 59l354 -444l-21 -99l-530 -440z" />
<glyph unicode="&#xbc;" horiz-adv-x="1550" d="M59 -14l1350 1505l82 -37l-1350 -1505zM205 1200l16 82h43q77 0 126.5 36.5t62.5 104.5l2 11h80l-160 -781h-80l127 625q-54 -78 -174 -78h-43zM807 197l16 79l490 504h82l-105 -514h146l-15 -69h-145l-41 -197h-80l41 197h-389zM907 266h303l78 393z" />
<glyph unicode="&#xbd;" horiz-adv-x="1695" d="M59 -14l1350 1505l82 -37l-1350 -1505zM205 1200l16 82h43q77 0 126.5 36.5t62.5 104.5l2 11h80l-160 -781h-80l127 625q-54 -78 -174 -78h-43zM956 -12l15 69q14 67 55.5 121.5t93.5 88.5t112 68t110.5 61.5t88 67t46.5 85.5q14 75 -24.5 119.5t-121.5 44.5 q-89 0 -144.5 -48.5t-70.5 -136.5h-74q20 121 97 188.5t196 67.5q116 0 177 -66.5t38 -178.5q-13 -65 -64 -117.5t-117 -89.5t-132.5 -74t-120 -89.5t-69.5 -117.5h444l-12 -63h-523z" />
<glyph unicode="&#xbe;" horiz-adv-x="1767" d="M168 901h76q-18 -194 184 -194q87 0 145 48t58 130q0 60 -38 95.5t-104 35.5h-110l16 78h103q77 0 128.5 44t51.5 115q0 58 -37.5 92.5t-105.5 34.5q-71 0 -127.5 -41.5t-83.5 -132.5h-80q33 119 113 181.5t184 62.5q96 0 154.5 -50t58.5 -132q0 -77 -49 -134t-132 -77 q62 -15 99 -61t37 -111q0 -109 -80 -178.5t-207 -69.5q-132 0 -201.5 70t-52.5 194zM276 -14l1350 1505l82 -37l-1350 -1505zM1024 197l16 79l490 504h82l-105 -514h146l-15 -69h-145l-41 -197h-80l41 197h-389zM1124 266h303l78 393z" />
<glyph unicode="&#xbf;" horiz-adv-x="1083" d="M4 27q12 63 43 117t71.5 93.5t87.5 77t94.5 76.5t89 82.5t74 105t46.5 134.5l12 63h88l-12 -63q-16 -81 -49.5 -149.5t-75.5 -115.5t-89.5 -88.5t-94.5 -78t-86.5 -73t-69 -84.5t-39.5 -104q-24 -127 54 -210.5t237 -83.5q161 0 269.5 91t146.5 285h96q-22 -120 -71 -210 t-118.5 -144.5t-151.5 -81t-177 -26.5q-106 0 -187 32.5t-125.5 86.5t-61 123t-1.5 145zM498 1006q0 41 27.5 68.5t68.5 27.5t69.5 -27.5t28.5 -68.5t-28.5 -70t-69.5 -29t-68.5 28.5t-27.5 70.5z" />
<glyph unicode="&#xc0;" horiz-adv-x="1433" d="M-33 0l881 1434h96l301 -1434h-96l-98 473h-691l-290 -473h-103zM410 553h624l-157 762zM483 2005l60 61l481 -458l-59 -62z" />
<glyph unicode="&#xc1;" horiz-adv-x="1433" d="M-33 0l881 1434h96l301 -1434h-96l-98 473h-691l-290 -473h-103zM410 553h624l-157 762zM815 1608l612 420l60 -64l-613 -420z" />
<glyph unicode="&#xc2;" horiz-adv-x="1433" d="M-33 0l881 1434h96l301 -1434h-96l-98 473h-691l-290 -473h-103zM410 553h624l-157 762zM532 1622l429 334h79l293 -334l-59 -55l-279 317l-403 -317z" />
<glyph unicode="&#xc3;" horiz-adv-x="1433" d="M-33 0l881 1434h96l301 -1434h-96l-98 473h-691l-290 -473h-103zM410 553h624l-157 762zM584 1628q13 110 71 175t142 65q40 0 77 -17.5t65.5 -42.5t56.5 -50t61 -42.5t67 -17.5q102 0 127 151h82q-12 -110 -65.5 -170t-143.5 -59q-43 1 -82 18.5t-68.5 42.5t-57 49.5 t-57.5 42t-60 17.5q-51 0 -86.5 -43.5t-44.5 -118.5h-84z" />
<glyph unicode="&#xc4;" horiz-adv-x="1433" d="M-33 0l881 1434h96l301 -1434h-96l-98 473h-691l-290 -473h-103zM410 553h624l-157 762zM651 1698q0 40 26.5 67t67.5 27q40 0 67.5 -27t27.5 -67q0 -41 -27.5 -68.5t-67.5 -27.5q-41 0 -67.5 27.5t-26.5 68.5zM1061 1698q0 40 26.5 67t67.5 27q40 0 67 -27t27 -67 q0 -41 -27 -68.5t-67 -27.5q-41 0 -67.5 27.5t-26.5 68.5z" />
<glyph unicode="&#xc5;" horiz-adv-x="1433" d="M-33 0l881 1434h96l301 -1434h-96l-98 473h-691l-290 -473h-103zM410 553h624l-157 762zM774 1718q0 69 49 115.5t121 46.5t120 -46.5t48 -115.5t-48 -115.5t-120 -46.5t-121 46.5t-49 115.5zM852 1718q0 -40 26 -66t66 -26q38 0 64 26t26 66t-26 66t-64 26 q-40 0 -66 -26t-26 -66z" />
<glyph unicode="&#xc6;" horiz-adv-x="1929" d="M-33 0l832 1434h1183l-16 -82h-836l-112 -553h754l-17 -80h-754l-129 -637h854l-16 -82h-944l96 473h-518l-274 -473h-103zM389 553h490l161 799h-188z" />
<glyph unicode="&#xc7;" horiz-adv-x="1527" d="M145 537q0 146 37 282.5t109 250t170 198.5t227 132.5t273 47.5q251 0 383.5 -143.5t123.5 -419.5h-92q0 237 -104 357t-328 120q-155 0 -288.5 -67t-223 -179.5t-140 -259t-50.5 -305.5q0 -236 123 -357.5t331 -121.5q213 0 371 117.5t242 359.5h96 q-91 -276 -264.5 -413t-411.5 -148l-151 -391l-86 16l145 375q-225 14 -358.5 160t-133.5 389z" />
<glyph unicode="&#xc8;" horiz-adv-x="1245" d="M82 0l291 1434h925l-16 -82h-836l-112 -553h753l-16 -80h-754l-129 -637h854l-16 -82h-944zM418 2005l59 61l481 -458l-59 -62z" />
<glyph unicode="&#xc9;" horiz-adv-x="1245" d="M82 0l291 1434h925l-16 -82h-836l-112 -553h753l-16 -80h-754l-129 -637h854l-16 -82h-944zM750 1608l612 420l59 -64l-612 -420z" />
<glyph unicode="&#xca;" horiz-adv-x="1245" d="M82 0l291 1434h925l-16 -82h-836l-112 -553h753l-16 -80h-754l-129 -637h854l-16 -82h-944zM467 1622l428 334h80l293 -334l-60 -55l-278 317l-404 -317z" />
<glyph unicode="&#xcb;" horiz-adv-x="1245" d="M82 0l291 1434h925l-16 -82h-836l-112 -553h753l-16 -80h-754l-129 -637h854l-16 -82h-944zM586 1698q0 40 26.5 67t67.5 27q40 0 67 -27t27 -67q0 -41 -27 -68.5t-67 -27.5q-41 0 -67.5 27.5t-26.5 68.5zM995 1698q0 40 27 67t68 27q40 0 67 -27t27 -67q0 -41 -27 -68.5 t-67 -27.5q-41 0 -68 27.5t-27 68.5z" />
<glyph unicode="&#xcc;" horiz-adv-x="475" d="M6 2005l60 61l481 -458l-60 -62zM82 0l291 1434h92l-291 -1434h-92z" />
<glyph unicode="&#xcd;" horiz-adv-x="475" d="M82 0l291 1434h92l-291 -1434h-92zM338 1608l612 420l60 -64l-613 -420z" />
<glyph unicode="&#xce;" horiz-adv-x="475" d="M55 1622l428 334h80l293 -334l-59 -55l-279 317l-403 -317zM82 0l291 1434h92l-291 -1434h-92z" />
<glyph unicode="&#xcf;" horiz-adv-x="475" d="M82 0l291 1434h92l-291 -1434h-92zM174 1698q0 40 26.5 67t67.5 27q40 0 67 -27t27 -67q0 -41 -27 -68.5t-67 -27.5q-41 0 -67.5 27.5t-26.5 68.5zM584 1698q0 40 26.5 67t67.5 27q40 0 67 -27t27 -67q0 -41 -27 -68.5t-67 -27.5q-41 0 -67.5 27.5t-26.5 68.5z" />
<glyph unicode="&#xd0;" horiz-adv-x="1486" d="M41 684l16 80h222l135 670h489q240 0 376 -135t136 -379q0 -141 -33 -275t-99.5 -251t-159 -205t-220 -138.5t-274.5 -50.5h-506l139 684h-221zM229 82h398q154 0 286 69.5t219.5 185.5t137 265.5t49.5 310.5q0 207 -112.5 323t-313.5 116h-406l-118 -588h526l-16 -80 h-527z" />
<glyph unicode="&#xd1;" horiz-adv-x="1497" d="M82 0l291 1434h106l651 -1315l267 1315h90l-291 -1434h-106l-652 1317l-266 -1317h-90zM616 1628q13 110 71 175t142 65q40 0 77 -17.5t66 -42.5t56.5 -50t61 -42.5t67.5 -17.5q102 0 127 151h82q-12 -110 -65.5 -170t-143.5 -59q-43 1 -82 18.5t-68.5 42.5t-57 49.5 t-58 42t-60.5 17.5q-51 0 -86.5 -43.5t-44.5 -118.5h-84z" />
<glyph unicode="&#xd2;" horiz-adv-x="1546" d="M147 539q0 255 104.5 463.5t288.5 327t410 118.5q245 0 381.5 -149.5t136.5 -417.5q0 -133 -31.5 -260.5t-97 -242.5t-158 -202.5t-223.5 -138.5t-284 -51q-246 0 -386.5 146.5t-140.5 406.5zM242 551q0 -227 115 -353t327 -126q130 0 242.5 46t193.5 124.5t139 181.5 t86.5 219t28.5 236q0 230 -114 356.5t-328 126.5q-141 0 -268 -62t-220 -169t-147.5 -258.5t-54.5 -321.5zM535 2005l59 61l481 -458l-59 -62z" />
<glyph unicode="&#xd3;" horiz-adv-x="1546" d="M147 539q0 255 104.5 463.5t288.5 327t410 118.5q245 0 381.5 -149.5t136.5 -417.5q0 -133 -31.5 -260.5t-97 -242.5t-158 -202.5t-223.5 -138.5t-284 -51q-246 0 -386.5 146.5t-140.5 406.5zM242 551q0 -227 115 -353t327 -126q130 0 242.5 46t193.5 124.5t139 181.5 t86.5 219t28.5 236q0 230 -114 356.5t-328 126.5q-141 0 -268 -62t-220 -169t-147.5 -258.5t-54.5 -321.5zM866 1608l613 420l59 -64l-612 -420z" />
<glyph unicode="&#xd4;" horiz-adv-x="1546" d="M147 539q0 255 104.5 463.5t288.5 327t410 118.5q245 0 381.5 -149.5t136.5 -417.5q0 -133 -31.5 -260.5t-97 -242.5t-158 -202.5t-223.5 -138.5t-284 -51q-246 0 -386.5 146.5t-140.5 406.5zM242 551q0 -227 115 -353t327 -126q130 0 242.5 46t193.5 124.5t139 181.5 t86.5 219t28.5 236q0 230 -114 356.5t-328 126.5q-141 0 -268 -62t-220 -169t-147.5 -258.5t-54.5 -321.5zM584 1622l428 334h80l292 -334l-59 -55l-278 317l-404 -317z" />
<glyph unicode="&#xd5;" horiz-adv-x="1546" d="M147 539q0 255 104.5 463.5t288.5 327t410 118.5q245 0 381.5 -149.5t136.5 -417.5q0 -133 -31.5 -260.5t-97 -242.5t-158 -202.5t-223.5 -138.5t-284 -51q-246 0 -386.5 146.5t-140.5 406.5zM242 551q0 -227 115 -353t327 -126q130 0 242.5 46t193.5 124.5t139 181.5 t86.5 219t28.5 236q0 230 -114 356.5t-328 126.5q-141 0 -268 -62t-220 -169t-147.5 -258.5t-54.5 -321.5zM635 1628q13 110 71 175t142 65q40 0 77 -17.5t66 -42.5t56.5 -50t61 -42.5t67.5 -17.5q102 0 127 151h81q-12 -110 -65.5 -170t-142.5 -59q-43 1 -82 18.5 t-68.5 42.5t-57 49.5t-58 42t-60.5 17.5q-51 0 -86.5 -43.5t-44.5 -118.5h-84z" />
<glyph unicode="&#xd6;" horiz-adv-x="1546" d="M147 539q0 255 104.5 463.5t288.5 327t410 118.5q245 0 381.5 -149.5t136.5 -417.5q0 -133 -31.5 -260.5t-97 -242.5t-158 -202.5t-223.5 -138.5t-284 -51q-246 0 -386.5 146.5t-140.5 406.5zM242 551q0 -227 115 -353t327 -126q130 0 242.5 46t193.5 124.5t139 181.5 t86.5 219t28.5 236q0 230 -114 356.5t-328 126.5q-141 0 -268 -62t-220 -169t-147.5 -258.5t-54.5 -321.5zM702 1698q0 40 27 67t68 27q40 0 67 -27t27 -67q0 -41 -27 -68.5t-67 -27.5q-41 0 -68 27.5t-27 68.5zM1112 1698q0 40 26.5 67t67.5 27q40 0 67 -27t27 -67 q0 -41 -27 -68.5t-67 -27.5q-41 0 -67.5 27.5t-26.5 68.5z" />
<glyph unicode="&#xd7;" horiz-adv-x="1040" d="M31 223l440 367l-289 362l64 58l291 -367l438 365l53 -56l-442 -368l284 -359l-63 -57l-289 362l-434 -362z" />
<glyph unicode="&#xd8;" horiz-adv-x="1548" d="M-16 -59l254 256q-91 136 -91 342q0 255 104.5 463.5t288.5 327t410 118.5q246 0 381 -150l240 242l63 -51l-254 -256q88 -139 88 -352q0 -133 -31.5 -260.5t-97 -242.5t-158 -202.5t-223.5 -138.5t-284 -51q-246 0 -385 145l-240 -242zM242 551q0 -170 65 -285l957 965 q-113 131 -332 131q-141 0 -268 -62t-220 -169t-147.5 -258.5t-54.5 -321.5zM356 199q115 -127 328 -127q130 0 242.5 46t193.5 124.5t139 181.5t86.5 219t28.5 236q0 173 -63 284z" />
<glyph unicode="&#xd9;" horiz-adv-x="1406" d="M162 453l198 981h93l-199 -977q-38 -184 58.5 -283.5t295.5 -99.5q198 0 335.5 98t176.5 287l197 975h92l-199 -981q-46 -232 -209 -349.5t-409 -117.5q-108 0 -196 30t-149 87t-84.5 147t-0.5 203zM471 2005l59 61l482 -458l-60 -62z" />
<glyph unicode="&#xda;" horiz-adv-x="1406" d="M162 453l198 981h93l-199 -977q-38 -184 58.5 -283.5t295.5 -99.5q198 0 335.5 98t176.5 287l197 975h92l-199 -981q-46 -232 -209 -349.5t-409 -117.5q-108 0 -196 30t-149 87t-84.5 147t-0.5 203zM803 1608l612 420l60 -64l-613 -420z" />
<glyph unicode="&#xdb;" horiz-adv-x="1406" d="M162 453l198 981h93l-199 -977q-38 -184 58.5 -283.5t295.5 -99.5q198 0 335.5 98t176.5 287l197 975h92l-199 -981q-46 -232 -209 -349.5t-409 -117.5q-108 0 -196 30t-149 87t-84.5 147t-0.5 203zM520 1622l428 334h80l293 -334l-59 -55l-279 317l-403 -317z" />
<glyph unicode="&#xdc;" horiz-adv-x="1406" d="M162 453l198 981h93l-199 -977q-38 -184 58.5 -283.5t295.5 -99.5q198 0 335.5 98t176.5 287l197 975h92l-199 -981q-46 -232 -209 -349.5t-409 -117.5q-108 0 -196 30t-149 87t-84.5 147t-0.5 203zM639 1698q0 40 26.5 67t67.5 27q40 0 67 -27t27 -67q0 -41 -27 -68.5 t-67 -27.5q-41 0 -67.5 27.5t-26.5 68.5zM1049 1698q0 40 26.5 67t67.5 27q40 0 67 -27t27 -67q0 -41 -27 -68.5t-67 -27.5q-41 0 -67.5 27.5t-26.5 68.5z" />
<glyph unicode="&#xdd;" horiz-adv-x="1265" d="M223 1434h101l338 -711l624 711h121l-711 -801l-129 -633h-92l129 633zM723 1608l612 420l60 -64l-613 -420z" />
<glyph unicode="&#xde;" horiz-adv-x="1370" d="M82 0l291 1434h90l-62 -304h570q151 0 244.5 -88.5t93.5 -257.5q0 -95 -31 -182t-91 -157t-159 -112t-223 -42h-574l-59 -291h-90zM248 373h575q97 0 174 36t122.5 96t69 130.5t23.5 146.5q0 127 -70 197t-186 70h-571z" />
<glyph unicode="&#xdf;" horiz-adv-x="1179" d="M55 0l211 1042q40 202 168 304t318 102q177 0 273.5 -85t96.5 -230q0 -142 -90 -248.5t-241 -141.5q120 -27 186.5 -107.5t66.5 -209.5q0 -195 -136.5 -318.5t-350.5 -121.5q-103 0 -209 32l17 84q101 -34 198 -34q172 -2 281.5 101t109.5 267q0 131 -75.5 201t-214.5 70 h-111l16 77h109q155 0 255.5 97.5t100.5 238.5q0 114 -76.5 178t-212.5 64q-154 0 -256.5 -82t-136.5 -248l-211 -1032h-86z" />
<glyph unicode="&#xe0;" d="M61 274q0 60 15.5 108.5t47 82t69.5 58t92 41t105 26.5t118 18q31 4 78.5 9t74 8t64 8.5t58.5 11.5t46 15.5t39 21t25.5 28.5t15.5 38q24 117 -52.5 194.5t-231.5 77.5q-131 0 -235 -63.5t-140 -196.5h-90q41 170 172 256t305 86q189 0 289.5 -105t64.5 -284l-102 -504 q-13 -65 3 -97t79 -32h43l-17 -80h-41q-78 0 -117.5 38t-39.5 107q0 36 8 72q-136 -227 -406 -227q-153 0 -246.5 76.5t-93.5 207.5zM150 279q0 -94 72.5 -150.5t193.5 -56.5q355 0 442 420l29 137q-11 -15 -28 -27.5t-41 -21t-44.5 -14.5t-54.5 -11t-55.5 -7.5t-62.5 -6.5 t-60 -6q-74 -8 -123 -16.5t-104.5 -27t-88 -44t-54 -68.5t-21.5 -100zM233 1696l60 61l481 -459l-59 -61z" />
<glyph unicode="&#xe1;" d="M61 274q0 60 15.5 108.5t47 82t69.5 58t92 41t105 26.5t118 18q31 4 78.5 9t74 8t64 8.5t58.5 11.5t46 15.5t39 21t25.5 28.5t15.5 38q24 117 -52.5 194.5t-231.5 77.5q-131 0 -235 -63.5t-140 -196.5h-90q41 170 172 256t305 86q189 0 289.5 -105t64.5 -284l-102 -504 q-13 -65 3 -97t79 -32h43l-17 -80h-41q-78 0 -117.5 38t-39.5 107q0 36 8 72q-136 -227 -406 -227q-153 0 -246.5 76.5t-93.5 207.5zM150 279q0 -94 72.5 -150.5t193.5 -56.5q355 0 442 420l29 137q-11 -15 -28 -27.5t-41 -21t-44.5 -14.5t-54.5 -11t-55.5 -7.5t-62.5 -6.5 t-60 -6q-74 -8 -123 -16.5t-104.5 -27t-88 -44t-54 -68.5t-21.5 -100zM565 1300l613 420l59 -63l-612 -420z" />
<glyph unicode="&#xe2;" d="M61 274q0 60 15.5 108.5t47 82t69.5 58t92 41t105 26.5t118 18q31 4 78.5 9t74 8t64 8.5t58.5 11.5t46 15.5t39 21t25.5 28.5t15.5 38q24 117 -52.5 194.5t-231.5 77.5q-131 0 -235 -63.5t-140 -196.5h-90q41 170 172 256t305 86q189 0 289.5 -105t64.5 -284l-102 -504 q-13 -65 3 -97t79 -32h43l-17 -80h-41q-78 0 -117.5 38t-39.5 107q0 36 8 72q-136 -227 -406 -227q-153 0 -246.5 76.5t-93.5 207.5zM150 279q0 -94 72.5 -150.5t193.5 -56.5q355 0 442 420l29 137q-11 -15 -28 -27.5t-41 -21t-44.5 -14.5t-54.5 -11t-55.5 -7.5t-62.5 -6.5 t-60 -6q-74 -8 -123 -16.5t-104.5 -27t-88 -44t-54 -68.5t-21.5 -100zM260 1294l455 355h80l317 -365l-68 -45l-294 338l-431 -338z" />
<glyph unicode="&#xe3;" d="M61 274q0 60 15.5 108.5t47 82t69.5 58t92 41t105 26.5t118 18q31 4 78.5 9t74 8t64 8.5t58.5 11.5t46 15.5t39 21t25.5 28.5t15.5 38q24 117 -52.5 194.5t-231.5 77.5q-131 0 -235 -63.5t-140 -196.5h-90q41 170 172 256t305 86q189 0 289.5 -105t64.5 -284l-102 -504 q-13 -65 3 -97t79 -32h43l-17 -80h-41q-78 0 -117.5 38t-39.5 107q0 36 8 72q-136 -227 -406 -227q-153 0 -246.5 76.5t-93.5 207.5zM150 279q0 -94 72.5 -150.5t193.5 -56.5q355 0 442 420l29 137q-11 -15 -28 -27.5t-41 -21t-44.5 -14.5t-54.5 -11t-55.5 -7.5t-62.5 -6.5 t-60 -6q-74 -8 -123 -16.5t-104.5 -27t-88 -44t-54 -68.5t-21.5 -100zM338 1341q13 110 71 175t142 65q40 0 77 -17.5t66 -42.5t56.5 -50t61 -42.5t67.5 -17.5q105 0 127 152h81q-12 -111 -65.5 -171t-142.5 -59q-43 1 -82 18.5t-68.5 42.5t-57 49.5t-58 42t-60.5 17.5 q-51 0 -86.5 -43.5t-44.5 -118.5h-84z" />
<glyph unicode="&#xe4;" d="M61 274q0 60 15.5 108.5t47 82t69.5 58t92 41t105 26.5t118 18q31 4 78.5 9t74 8t64 8.5t58.5 11.5t46 15.5t39 21t25.5 28.5t15.5 38q24 117 -52.5 194.5t-231.5 77.5q-131 0 -235 -63.5t-140 -196.5h-90q41 170 172 256t305 86q189 0 289.5 -105t64.5 -284l-102 -504 q-13 -65 3 -97t79 -32h43l-17 -80h-41q-78 0 -117.5 38t-39.5 107q0 36 8 72q-136 -227 -406 -227q-153 0 -246.5 76.5t-93.5 207.5zM150 279q0 -94 72.5 -150.5t193.5 -56.5q355 0 442 420l29 137q-11 -15 -28 -27.5t-41 -21t-44.5 -14.5t-54.5 -11t-55.5 -7.5t-62.5 -6.5 t-60 -6q-74 -8 -123 -16.5t-104.5 -27t-88 -44t-54 -68.5t-21.5 -100zM401 1391q0 40 27 67t68 27q40 0 67 -27t27 -67q0 -41 -27 -69t-67 -28q-41 0 -68 28t-27 69zM811 1391q0 40 26.5 67t67.5 27q40 0 67 -27t27 -67q0 -41 -27 -69t-67 -28q-41 0 -67.5 27.5t-26.5 69.5z " />
<glyph unicode="&#xe5;" d="M61 274q0 60 15.5 108.5t47 82t69.5 58t92 41t105 26.5t118 18q31 4 78.5 9t74 8t64 8.5t58.5 11.5t46 15.5t39 21t25.5 28.5t15.5 38q24 117 -52.5 194.5t-231.5 77.5q-131 0 -235 -63.5t-140 -196.5h-90q41 170 172 256t305 86q189 0 289.5 -105t64.5 -284l-102 -504 q-13 -65 3 -97t79 -32h43l-17 -80h-41q-78 0 -117.5 38t-39.5 107q0 36 8 72q-136 -227 -406 -227q-153 0 -246.5 76.5t-93.5 207.5zM150 279q0 -94 72.5 -150.5t193.5 -56.5q355 0 442 420l29 137q-11 -15 -28 -27.5t-41 -21t-44.5 -14.5t-54.5 -11t-55.5 -7.5t-62.5 -6.5 t-60 -6q-74 -8 -123 -16.5t-104.5 -27t-88 -44t-54 -68.5t-21.5 -100zM530 1391q0 69 49 115t121 46t120 -46t48 -115t-48 -115.5t-120 -46.5t-121 46.5t-49 115.5zM608 1391q0 -40 26 -66.5t66 -26.5q38 0 64.5 26.5t26.5 66.5q0 39 -26.5 65.5t-64.5 26.5q-40 0 -66 -26 t-26 -66z" />
<glyph unicode="&#xe6;" horiz-adv-x="1898" d="M61 274q0 60 15.5 108.5t47 82t69.5 58t92 41t105 26.5t118 18q31 4 78.5 9t74 8t64 8.5t58.5 11.5t46 15.5t39 21t25.5 28.5t15.5 38q24 117 -52.5 194.5t-231.5 77.5q-131 0 -235 -63.5t-140 -196.5h-90q41 170 172 256t305 86q146 0 242 -65t116 -181q78 114 195 180 t262 66q198 0 295.5 -137t54.5 -387l-2 -13h-831q-24 -105 -14.5 -195.5t44 -157t104.5 -104.5t167 -38q146 0 244.5 72t150.5 198h92q-65 -179 -195 -266.5t-305 -87.5q-163 0 -266 87t-125 242q-130 -325 -458 -325q-157 0 -252 76.5t-95 207.5zM150 279 q0 -94 72.5 -150.5t193.5 -56.5q355 0 442 420l29 137q-11 -15 -28 -27.5t-41 -21t-44.5 -14.5t-54.5 -11t-55.5 -7.5t-62.5 -6.5t-60 -6q-74 -8 -123 -16.5t-104.5 -27t-88 -44t-54 -68.5t-21.5 -100zM989 643h727q8 80 -3.5 146t-43 118t-91 81.5t-142.5 29.5 q-158 0 -275.5 -105t-171.5 -270z" />
<glyph unicode="&#xe7;" horiz-adv-x="1148" d="M90 410q0 136 42.5 261t119 221t191.5 153t251 57q183 0 282.5 -111.5t92.5 -320.5h-88q0 348 -303 348q-111 0 -205.5 -50.5t-157.5 -134t-98 -190.5t-35 -221q0 -173 89 -262.5t235 -89.5q148 0 259 89.5t169 262.5h90q-58 -198 -186 -309t-303 -125l-154 -391l-86 16 l145 375q-165 13 -257.5 127t-92.5 295z" />
<glyph unicode="&#xe8;" horiz-adv-x="1126" d="M88 399q0 135 41 261t115 224.5t187.5 158t248.5 59.5q198 0 295.5 -137t54.5 -387l-2 -13h-831q-24 -105 -14.5 -195.5t44 -157t104.5 -104.5t167 -38q146 0 244.5 72t150.5 198h92q-65 -179 -195 -266.5t-305 -87.5q-185 0 -291 110.5t-106 302.5zM217 643h727 q8 80 -3.5 146t-43 118t-91 81.5t-142.5 29.5q-158 0 -275.5 -105t-171.5 -270zM268 1696l60 61l481 -459l-59 -61z" />
<glyph unicode="&#xe9;" horiz-adv-x="1126" d="M88 399q0 135 41 261t115 224.5t187.5 158t248.5 59.5q198 0 295.5 -137t54.5 -387l-2 -13h-831q-24 -105 -14.5 -195.5t44 -157t104.5 -104.5t167 -38q146 0 244.5 72t150.5 198h92q-65 -179 -195 -266.5t-305 -87.5q-185 0 -291 110.5t-106 302.5zM217 643h727 q8 80 -3.5 146t-43 118t-91 81.5t-142.5 29.5q-158 0 -275.5 -105t-171.5 -270zM600 1300l612 420l60 -63l-613 -420z" />
<glyph unicode="&#xea;" horiz-adv-x="1126" d="M88 399q0 135 41 261t115 224.5t187.5 158t248.5 59.5q198 0 295.5 -137t54.5 -387l-2 -13h-831q-24 -105 -14.5 -195.5t44 -157t104.5 -104.5t167 -38q146 0 244.5 72t150.5 198h92q-65 -179 -195 -266.5t-305 -87.5q-185 0 -291 110.5t-106 302.5zM217 643h727 q8 80 -3.5 146t-43 118t-91 81.5t-142.5 29.5q-158 0 -275.5 -105t-171.5 -270zM295 1294l455 355h79l318 -365l-68 -45l-295 338l-430 -338z" />
<glyph unicode="&#xeb;" horiz-adv-x="1126" d="M88 399q0 135 41 261t115 224.5t187.5 158t248.5 59.5q198 0 295.5 -137t54.5 -387l-2 -13h-831q-24 -105 -14.5 -195.5t44 -157t104.5 -104.5t167 -38q146 0 244.5 72t150.5 198h92q-65 -179 -195 -266.5t-305 -87.5q-185 0 -291 110.5t-106 302.5zM217 643h727 q8 80 -3.5 146t-43 118t-91 81.5t-142.5 29.5q-158 0 -275.5 -105t-171.5 -270zM436 1391q0 40 26.5 67t67.5 27q40 0 67.5 -27t27.5 -67q0 -41 -27.5 -69t-67.5 -28q-41 0 -67.5 27.5t-26.5 69.5zM846 1391q0 40 26.5 67t67.5 27q40 0 67 -27t27 -67q0 -41 -27 -69t-67 -28 q-41 0 -67.5 27.5t-26.5 69.5z" />
<glyph unicode="&#xec;" horiz-adv-x="382" d="M-102 1696l59 61l481 -459l-59 -61zM35 0l223 1085h90l-223 -1085h-90z" />
<glyph unicode="&#xed;" horiz-adv-x="382" d="M35 0l223 1085h90l-223 -1085h-90zM229 1300l613 420l59 -63l-612 -420z" />
<glyph unicode="&#xee;" horiz-adv-x="382" d="M-76 1294l455 355h80l317 -365l-67 -45l-295 338l-430 -338zM35 0l223 1085h90l-223 -1085h-90z" />
<glyph unicode="&#xef;" horiz-adv-x="382" d="M35 0l223 1085h90l-223 -1085h-90zM66 1391q0 40 26.5 67t67.5 27q40 0 67 -27t27 -67q0 -41 -27 -69t-67 -28q-41 0 -67.5 27.5t-26.5 69.5zM475 1391q0 40 26.5 67t67.5 27q40 0 67.5 -27t27.5 -67q0 -41 -27.5 -69t-67.5 -28q-41 0 -67.5 27.5t-26.5 69.5z" />
<glyph unicode="&#xf0;" d="M86 393q0 164 64.5 301.5t189.5 222t287 84.5q127 0 218.5 -66t121.5 -185q16 156 -30.5 293.5t-160.5 236.5l-418 -164l-32 72l374 147q-117 71 -276 107l33 84q212 -57 344 -152l329 129l33 -71l-295 -115q189 -180 189 -494q0 -169 -37 -317t-108.5 -265.5t-188 -186 t-264.5 -68.5q-171 0 -272 110t-101 297zM180 406q0 -159 78 -247.5t215 -88.5q161 0 285 119.5t160 316.5q35 188 -48 300t-245 112q-131 0 -234 -72.5t-157 -188.5t-54 -251z" />
<glyph unicode="&#xf1;" horiz-adv-x="1114" d="M37 0l221 1085h70l-33 -223q71 111 186 175.5t244 64.5q171 0 247 -110t38 -298l-142 -694h-90l140 688q32 157 -22 243.5t-198 86.5q-158 0 -281.5 -102.5t-158.5 -270.5l-131 -645h-90zM379 1341q13 110 71 175t142 65q40 0 77 -17.5t66 -42.5t56.5 -50t61 -42.5 t67.5 -17.5q105 0 127 152h81q-12 -111 -65.5 -171t-142.5 -59q-43 1 -82 18.5t-68.5 42.5t-57 49.5t-58 42t-60.5 17.5q-51 0 -86.5 -43.5t-44.5 -118.5h-84z" />
<glyph unicode="&#xf2;" horiz-adv-x="1181" d="M90 410q0 136 42.5 261t119 221t191.5 153t251 57q181 0 289.5 -107t108.5 -313q0 -135 -42 -260t-118 -222t-192.5 -155.5t-254.5 -58.5q-186 0 -290.5 116t-104.5 308zM182 422q0 -173 89 -262.5t235 -89.5q110 0 204 51.5t156.5 136.5t97.5 194.5t35 225.5 q0 162 -84 251t-237 89q-111 0 -205.5 -50.5t-157.5 -134t-98 -190.5t-35 -221zM285 1696l59 61l481 -459l-59 -61z" />
<glyph unicode="&#xf3;" horiz-adv-x="1181" d="M90 410q0 136 42.5 261t119 221t191.5 153t251 57q181 0 289.5 -107t108.5 -313q0 -135 -42 -260t-118 -222t-192.5 -155.5t-254.5 -58.5q-186 0 -290.5 116t-104.5 308zM182 422q0 -173 89 -262.5t235 -89.5q110 0 204 51.5t156.5 136.5t97.5 194.5t35 225.5 q0 162 -84 251t-237 89q-111 0 -205.5 -50.5t-157.5 -134t-98 -190.5t-35 -221zM616 1300l613 420l59 -63l-612 -420z" />
<glyph unicode="&#xf4;" horiz-adv-x="1181" d="M90 410q0 136 42.5 261t119 221t191.5 153t251 57q181 0 289.5 -107t108.5 -313q0 -135 -42 -260t-118 -222t-192.5 -155.5t-254.5 -58.5q-186 0 -290.5 116t-104.5 308zM182 422q0 -173 89 -262.5t235 -89.5q110 0 204 51.5t156.5 136.5t97.5 194.5t35 225.5 q0 162 -84 251t-237 89q-111 0 -205.5 -50.5t-157.5 -134t-98 -190.5t-35 -221zM311 1294l455 355h80l317 -365l-67 -45l-295 338l-430 -338z" />
<glyph unicode="&#xf5;" horiz-adv-x="1181" d="M90 410q0 136 42.5 261t119 221t191.5 153t251 57q181 0 289.5 -107t108.5 -313q0 -135 -42 -260t-118 -222t-192.5 -155.5t-254.5 -58.5q-186 0 -290.5 116t-104.5 308zM182 422q0 -173 89 -262.5t235 -89.5q110 0 204 51.5t156.5 136.5t97.5 194.5t35 225.5 q0 162 -84 251t-237 89q-111 0 -205.5 -50.5t-157.5 -134t-98 -190.5t-35 -221zM389 1341q13 110 71 175t142 65q40 0 77 -17.5t66 -42.5t56.5 -50t61 -42.5t67.5 -17.5q105 0 127 152h82q-12 -110 -66 -170.5t-143 -59.5q-43 1 -82 18.5t-68.5 42.5t-57 49.5t-58 42 t-60.5 17.5q-51 0 -86.5 -43.5t-44.5 -118.5h-84z" />
<glyph unicode="&#xf6;" horiz-adv-x="1181" d="M90 410q0 136 42.5 261t119 221t191.5 153t251 57q181 0 289.5 -107t108.5 -313q0 -135 -42 -260t-118 -222t-192.5 -155.5t-254.5 -58.5q-186 0 -290.5 116t-104.5 308zM182 422q0 -173 89 -262.5t235 -89.5q110 0 204 51.5t156.5 136.5t97.5 194.5t35 225.5 q0 162 -84 251t-237 89q-111 0 -205.5 -50.5t-157.5 -134t-98 -190.5t-35 -221zM453 1391q0 40 26.5 67t67.5 27q40 0 67 -27t27 -67q0 -41 -27 -69t-67 -28q-41 0 -67.5 27.5t-26.5 69.5zM862 1391q0 40 26.5 67t67.5 27q40 0 67.5 -27t27.5 -67q0 -41 -27.5 -69t-67.5 -28 q-41 0 -67.5 27.5t-26.5 69.5z" />
<glyph unicode="&#xf7;" horiz-adv-x="1155" d="M121 606l16 82h938l-16 -82h-938zM430 303q0 41 28.5 69.5t69.5 28.5t69 -28.5t28 -69.5t-28 -68.5t-69 -27.5t-69.5 27.5t-28.5 68.5zM563 987q0 41 29 69.5t70 28.5t68.5 -28.5t27.5 -69.5t-27.5 -68.5t-68.5 -27.5q-42 0 -70.5 27.5t-28.5 68.5z" />
<glyph unicode="&#xf8;" horiz-adv-x="1179" d="M-33 -35l187 191q-64 106 -64 254q0 136 42.5 261t119 221t191.5 153t251 57q185 0 289 -107l164 166l65 -45l-180 -184q60 -102 60 -250q0 -135 -42 -260t-118 -222t-192.5 -155.5t-254.5 -58.5q-177 0 -280 106l-172 -174zM182 422q0 -120 41 -197l692 703 q-81 90 -237 90q-111 0 -205.5 -50.5t-157.5 -134t-98 -190.5t-35 -221zM270 160q84 -90 236 -90q110 0 204 51.5t156.5 136.5t97.5 194.5t35 225.5q0 111 -36 184z" />
<glyph unicode="&#xf9;" horiz-adv-x="1116" d="M100 375l146 710h90l-146 -712q-28 -140 35.5 -221.5t206.5 -81.5q155 0 271 99t155 269l131 647h90l-221 -1085h-70l33 219q-66 -111 -171.5 -172t-241.5 -61q-171 0 -257.5 104.5t-50.5 284.5zM252 1696l59 61l482 -459l-60 -61z" />
<glyph unicode="&#xfa;" horiz-adv-x="1116" d="M100 375l146 710h90l-146 -712q-28 -140 35.5 -221.5t206.5 -81.5q155 0 271 99t155 269l131 647h90l-221 -1085h-70l33 219q-66 -111 -171.5 -172t-241.5 -61q-171 0 -257.5 104.5t-50.5 284.5zM584 1300l612 420l59 -63l-612 -420z" />
<glyph unicode="&#xfb;" horiz-adv-x="1116" d="M100 375l146 710h90l-146 -712q-28 -140 35.5 -221.5t206.5 -81.5q155 0 271 99t155 269l131 647h90l-221 -1085h-70l33 219q-66 -111 -171.5 -172t-241.5 -61q-171 0 -257.5 104.5t-50.5 284.5zM279 1294l454 355h80l317 -365l-67 -45l-295 338l-430 -338z" />
<glyph unicode="&#xfc;" horiz-adv-x="1116" d="M100 375l146 710h90l-146 -712q-28 -140 35.5 -221.5t206.5 -81.5q155 0 271 99t155 269l131 647h90l-221 -1085h-70l33 219q-66 -111 -171.5 -172t-241.5 -61q-171 0 -257.5 104.5t-50.5 284.5zM420 1391q0 40 26.5 67t67.5 27q40 0 67 -27t27 -67q0 -41 -27 -69 t-67 -28q-41 0 -67.5 27.5t-26.5 69.5zM829 1391q0 40 27 67t68 27q40 0 67 -27t27 -67q0 -41 -27 -69t-67 -28q-41 0 -68 28t-27 69z" />
<glyph unicode="&#xfd;" horiz-adv-x="1067" d="M-113 -410l17 80h178q73 0 124 36.5t97 115.5l103 178h-41l-209 1085h92l194 -1019l586 1019h105l-760 -1321q-49 -88 -119 -131t-182 -43h-185zM551 1300l612 420l60 -63l-613 -420z" />
<glyph unicode="&#xfe;" horiz-adv-x="1222" d="M-31 -410l398 1946h88l-142 -690q80 120 201.5 188t259.5 68q169 0 265 -109.5t96 -310.5q0 -128 -41 -252t-113 -223t-183 -160t-241 -61q-145 0 -239.5 74.5t-120.5 207.5l-140 -678h-88zM244 420q0 -162 84 -256t231 -94q85 0 161.5 34.5t133.5 94t99 137t63.5 165.5 t21.5 177q0 160 -76 250t-219 90q-148 0 -264 -86t-175.5 -221.5t-59.5 -290.5z" />
<glyph unicode="&#xff;" horiz-adv-x="1067" d="M-113 -410l17 80h178q73 0 124 36.5t97 115.5l103 178h-41l-209 1085h92l194 -1019l586 1019h105l-760 -1321q-49 -88 -119 -131t-182 -43h-185zM387 1391q0 40 26.5 67t67.5 27q40 0 67 -27t27 -67q0 -41 -27 -69t-67 -28q-41 0 -67.5 27.5t-26.5 69.5zM797 1391 q0 40 26.5 67t67.5 27q40 0 67 -27t27 -67q0 -41 -27 -69t-67 -28q-41 0 -67.5 27.5t-26.5 69.5z" />
<glyph unicode="&#x152;" horiz-adv-x="2381" d="M145 539q0 179 58.5 344t161 290t255 200t328.5 75q195 0 321.5 -106.5t162.5 -288.5l77 381h926l-16 -82h-836l-113 -553h754l-16 -80h-754l-129 -637h854l-16 -82h-944l65 322q-100 -156 -255 -246t-363 -90q-241 0 -381 149t-140 404zM240 551q0 -226 116.5 -352.5 t321.5 -126.5q131 0 244.5 46t195 125t139.5 183.5t86.5 223t28.5 241.5q0 230 -120 350.5t-322 120.5q-122 0 -231 -44t-192 -121t-143.5 -179t-92 -222t-31.5 -245z" />
<glyph unicode="&#x153;" horiz-adv-x="2023" d="M90 410q0 136 42.5 261t119 221t191.5 153t251 57q154 0 257 -78.5t130 -230.5q78 142 205.5 225.5t290.5 83.5q198 0 295.5 -137t54.5 -387l-2 -13h-831q-24 -105 -14.5 -195.5t44 -157t104.5 -104.5t167 -38q146 0 244.5 72t150.5 198h92q-65 -179 -195 -266.5 t-305 -87.5q-156 0 -257.5 81t-129.5 226q-78 -141 -209.5 -224t-300.5 -83q-186 0 -290.5 116t-104.5 308zM182 422q0 -173 89 -262.5t235 -89.5q110 0 204 51.5t156.5 136.5t97.5 194.5t35 225.5q0 162 -84 251t-237 89q-111 0 -205.5 -50.5t-157.5 -134t-98 -190.5 t-35 -221zM1114 643h727q8 80 -3.5 146t-43 118t-91 81.5t-142.5 29.5q-158 0 -275.5 -105t-171.5 -270z" />
<glyph unicode="&#x178;" horiz-adv-x="1265" d="M223 1434h101l338 -711l624 711h121l-711 -801l-129 -633h-92l129 633zM559 1698q0 40 26.5 67t67.5 27q40 0 67.5 -27t27.5 -67q0 -41 -27.5 -68.5t-67.5 -27.5q-41 0 -67.5 27.5t-26.5 68.5zM969 1698q0 40 26.5 67t67.5 27q40 0 67 -27t27 -67q0 -41 -27 -68.5 t-67 -27.5q-41 0 -67.5 27.5t-26.5 68.5z" />
<glyph unicode="&#x2c6;" horiz-adv-x="985" d="M219 1294l455 355h80l317 -365l-67 -45l-295 338l-430 -338z" />
<glyph unicode="&#x2dc;" horiz-adv-x="933" d="M276 1341q13 110 71 175t142 65q40 0 77 -17.5t66 -42.5t56.5 -50t61 -42.5t67.5 -17.5q105 0 127 152h82q-12 -110 -66 -170.5t-143 -59.5q-43 1 -82 18.5t-68.5 42.5t-57 49.5t-57.5 42t-60 17.5q-51 0 -87 -43.5t-45 -118.5h-84z" />
<glyph unicode="&#x2000;" horiz-adv-x="1033" />
<glyph unicode="&#x2001;" horiz-adv-x="2066" />
<glyph unicode="&#x2002;" horiz-adv-x="1033" />
<glyph unicode="&#x2003;" horiz-adv-x="2066" />
<glyph unicode="&#x2004;" horiz-adv-x="688" />
<glyph unicode="&#x2005;" horiz-adv-x="516" />
<glyph unicode="&#x2006;" horiz-adv-x="344" />
<glyph unicode="&#x2007;" horiz-adv-x="344" />
<glyph unicode="&#x2008;" horiz-adv-x="258" />
<glyph unicode="&#x2009;" horiz-adv-x="413" />
<glyph unicode="&#x200a;" horiz-adv-x="114" />
<glyph unicode="&#x2010;" horiz-adv-x="1050" d="M121 606l16 82h834l-17 -82h-833z" />
<glyph unicode="&#x2011;" horiz-adv-x="1050" d="M121 606l16 82h834l-17 -82h-833z" />
<glyph unicode="&#x2012;" horiz-adv-x="1050" d="M121 606l16 82h834l-17 -82h-833z" />
<glyph unicode="&#x2013;" horiz-adv-x="1091" d="M121 606l16 82h875l-17 -82h-874z" />
<glyph unicode="&#x2014;" horiz-adv-x="1798" d="M121 606l16 82h1581l-16 -82h-1581z" />
<glyph unicode="&#x2018;" horiz-adv-x="522" d="M193 872l354 672l86 -26l-346 -674z" />
<glyph unicode="&#x2019;" horiz-adv-x="522" d="M193 870l346 674l94 -28l-354 -672z" />
<glyph unicode="&#x201a;" horiz-adv-x="522" d="M-88 -328l346 674l94 -29l-354 -671z" />
<glyph unicode="&#x201c;" horiz-adv-x="815" d="M193 872l354 672l86 -26l-346 -674zM485 872l355 672l86 -26l-346 -674z" />
<glyph unicode="&#x201d;" horiz-adv-x="815" d="M193 870l346 674l94 -28l-354 -672zM485 870l346 674l95 -28l-355 -672z" />
<glyph unicode="&#x201e;" horiz-adv-x="815" d="M-88 -328l346 674l94 -29l-354 -671zM205 -328l346 674l94 -29l-354 -671z" />
<glyph unicode="&#x2022;" horiz-adv-x="618" d="M174 621q0 66 43 108.5t109 42.5q65 0 107 -42.5t42 -108.5t-42 -109t-107 -43q-66 0 -109 43t-43 109z" />
<glyph unicode="&#x2026;" horiz-adv-x="1316" d="M39 82q0 41 28.5 69.5t69.5 28.5t68.5 -28.5t27.5 -69.5t-27.5 -68.5t-68.5 -27.5t-69.5 27.5t-28.5 68.5zM467 82q0 41 28.5 69.5t69.5 28.5t69 -28.5t28 -69.5t-28 -68.5t-69 -27.5t-69.5 27.5t-28.5 68.5zM895 82q0 41 28.5 69.5t69.5 28.5t69 -28.5t28 -69.5 t-28 -68.5t-69 -27.5t-69.5 27.5t-28.5 68.5z" />
<glyph unicode="&#x202f;" horiz-adv-x="413" />
<glyph unicode="&#x2039;" horiz-adv-x="716" d="M104 522l21 99l534 444l64 -64l-537 -442l336 -418l-67 -59z" />
<glyph unicode="&#x203a;" horiz-adv-x="714" d="M12 145l531 437l-344 424l69 59l355 -444l-21 -99l-530 -440z" />
<glyph unicode="&#x205f;" horiz-adv-x="516" />
<glyph unicode="&#x20ac;" horiz-adv-x="1718" d="M74 551l14 70h252q5 86 33 196h-244l14 70h252q88 251 287.5 406t468.5 155q251 0 384 -143.5t124 -419.5h-92q0 237 -104 357t-328 120q-223 0 -392 -131.5t-249 -343.5h655l-14 -70h-666q-26 -90 -35 -196h660l-15 -70h-647q0 -236 123.5 -357.5t331.5 -121.5 q213 0 370.5 117.5t241.5 359.5h96q-95 -289 -280 -426t-438 -137q-247 0 -394 147.5t-147 403.5v14h-262z" />
<glyph unicode="&#x2122;" horiz-adv-x="1454" d="M229 1364l15 70h563l-14 -70h-244l-125 -623h-76l125 623h-244zM727 741l139 693h76l131 -611l377 611h78l-139 -693h-76l104 521l-321 -521h-74l-113 525l-106 -525h-76z" />
<glyph unicode="&#x25fc;" horiz-adv-x="1085" d="M0 0v1085h1085v-1085h-1085z" />
<glyph unicode="&#xfb01;" horiz-adv-x="1101" d="M141 1006l17 79h221l31 152q31 154 107 226.5t235 72.5h186l-16 -80h-187q-100 0 -156 -52t-79 -167l-31 -152h600l-221 -1085h-90l205 1006h-510l-205 -1006h-90l204 1006h-221zM997 1413q0 39 27.5 65.5t67.5 26.5t66.5 -26.5t25.5 -65.5q-2 -40 -28.5 -67t-65.5 -27 q-40 0 -67 27t-26 67z" />
<glyph unicode="&#xfb02;" horiz-adv-x="1122" d="M141 1006l17 79h221l31 152q31 154 107 226.5t235 72.5h407l-311 -1536h-90l295 1456h-318q-100 0 -156 -52t-79 -167l-31 -152h391l-16 -79h-391l-205 -1006h-90l204 1006h-221z" />
<glyph unicode="&#xfb03;" horiz-adv-x="1703" d="M141 1006l17 79h221l31 152q31 154 107 226.5t235 72.5h227l-16 -80h-228q-100 0 -156 -52t-79 -167l-31 -152h510l31 152q31 154 107 226.5t235 72.5h186l-16 -80h-187q-100 0 -156 -52t-79 -167l-31 -152h600l-221 -1085h-90l205 1006h-510l-205 -1006h-90l205 1006 h-510l-205 -1006h-90l204 1006h-221zM1597 1413q0 39 27.5 65.5t67.5 26.5t66 -26t26 -66t-27 -67t-67 -27t-67 27t-26 67z" />
</font>
</defs>
</svg>
